<svg width="162" height="127" viewBox="0 0 162 127" fill="none" xmlns="http://www.w3.org/2000/svg">
<g clip-path="url(#clip0_269_192)">
<path d="M107 53.5C107 83.0481 83.0481 107 53.5 107C39.3438 107 26.4659 101.498 16.9022 92.5171C15.6144 91.3146 14.3882 90.0457 13.2282 88.7153C4.99018 79.3078 0 66.9839 0 53.5C0 23.9519 23.9519 0 53.5 0C76.8127 0 96.6456 14.909 103.965 35.7172C104.59 37.4879 105.125 39.2965 105.561 41.1429C106.503 45.1057 107 49.2437 107 53.5Z" fill="#E8DFCE"/>
<g opacity="0.11">
<path d="M93.2703 53.5C93.2703 75.4634 75.4638 93.2699 53.5004 93.2699C31.537 93.2699 13.7305 75.4634 13.7305 53.5V53.339C13.8157 31.4514 31.5891 13.7301 53.5004 13.7301C57.7804 13.7301 61.8994 14.4071 65.7628 15.6618C81.7228 20.8271 93.2703 35.8166 93.2703 53.5Z" fill="#A78544"/>
</g>
<path opacity="0.23" d="M40.0063 47.3451C44.3207 47.3451 47.8182 43.8476 47.8182 39.5332C47.8182 35.2188 44.3207 31.7213 40.0063 31.7213C35.6919 31.7213 32.1943 35.2188 32.1943 39.5332C32.1943 43.8476 35.6919 47.3451 40.0063 47.3451Z" fill="black"/>
<path opacity="0.23" d="M67.9399 46.8717C72.2543 46.8717 75.7518 43.3742 75.7518 39.0597C75.7518 34.7453 72.2543 31.2478 67.9399 31.2478C63.6255 31.2478 60.1279 34.7453 60.1279 39.0597C60.1279 43.3742 63.6255 46.8717 67.9399 46.8717Z" fill="black"/>
<path opacity="0.23" d="M40.0063 74.3318C44.3207 74.3318 47.8182 70.8343 47.8182 66.5199C47.8182 62.2055 44.3207 58.7079 40.0063 58.7079C35.6919 58.7079 32.1943 62.2055 32.1943 66.5199C32.1943 70.8343 35.6919 74.3318 40.0063 74.3318Z" fill="black"/>
<path opacity="0.23" d="M67.9399 73.8584C72.2543 73.8584 75.7518 70.3609 75.7518 66.0464C75.7518 61.732 72.2543 58.2345 67.9399 58.2345C63.6255 58.2345 60.1279 61.732 60.1279 66.0464C60.1279 70.3609 63.6255 73.8584 67.9399 73.8584Z" fill="black"/>
<path d="M65.7628 15.6618C59.106 18.564 45.7263 18.3794 33.6154 26.9867C21.6939 35.4568 18.2945 48.0553 13.7305 53.339C13.8157 31.4514 31.5891 13.7301 53.5004 13.7301C57.7804 13.7301 61.8994 14.4071 65.7628 15.6618Z" fill="#DBCDB2"/>
<path opacity="0.03" d="M107 53.5C107 83.0481 83.0483 107 53.5002 107C39.344 107 26.4661 101.499 16.9024 92.5171C16.4527 92.0484 16.0218 91.5702 15.5957 91.0826C27.2994 92.4887 54.9679 110.546 79.0666 94.2168C96.7547 82.2243 101.565 57.4249 105.561 41.1429C106.503 45.1057 107 49.2437 107 53.5Z" fill="black"/>
<path opacity="0.34" d="M15.6234 25.0929C6.84565 38.0276 9.17977 54.0019 4.73406 54.4469C-0.000456095 54.9204 2.93021 36.522 11.8358 23.6726C20.7414 10.8231 42.6859 0.970584 44.9774 5.68142C46.3078 8.41797 24.619 11.8363 15.6234 25.0929Z" fill="white"/>
</g>
<g clip-path="url(#clip1_269_192)">
<path d="M162 109C162 118.941 153.941 127 144 127C139.237 127 134.904 125.149 131.687 122.127C131.253 121.723 130.841 121.296 130.451 120.848C127.679 117.683 126 113.537 126 109C126 99.0586 134.059 91 144 91C151.844 91 158.516 96.0161 160.979 103.017C161.189 103.613 161.369 104.221 161.516 104.842C161.833 106.176 162 107.568 162 109Z" fill="#E8DFCE"/>
<g opacity="0.11">
<path d="M157.38 109C157.38 116.39 151.389 122.381 144 122.381C136.61 122.381 130.619 116.39 130.619 109V108.946C130.648 101.582 136.628 95.6194 144 95.6194C145.44 95.6194 146.826 95.8472 148.125 96.2694C153.495 98.0072 157.38 103.05 157.38 109Z" fill="#A78544"/>
</g>
<path opacity="0.23" d="M139.46 106.929C140.912 106.929 142.089 105.752 142.089 104.301C142.089 102.849 140.912 101.673 139.46 101.673C138.009 101.673 136.832 102.849 136.832 104.301C136.832 105.752 138.009 106.929 139.46 106.929Z" fill="black"/>
<path opacity="0.23" d="M148.859 106.77C150.31 106.77 151.487 105.593 151.487 104.142C151.487 102.69 150.31 101.513 148.859 101.513C147.407 101.513 146.23 102.69 146.23 104.142C146.23 105.593 147.407 106.77 148.859 106.77Z" fill="black"/>
<path opacity="0.23" d="M139.46 116.009C140.912 116.009 142.089 114.832 142.089 113.381C142.089 111.929 140.912 110.752 139.46 110.752C138.009 110.752 136.832 111.929 136.832 113.381C136.832 114.832 138.009 116.009 139.46 116.009Z" fill="black"/>
<path opacity="0.23" d="M148.859 115.85C150.31 115.85 151.487 114.673 151.487 113.221C151.487 111.77 150.31 110.593 148.859 110.593C147.407 110.593 146.23 111.77 146.23 113.221C146.23 114.673 147.407 115.85 148.859 115.85Z" fill="black"/>
<path d="M148.125 96.2694C145.886 97.2458 141.384 97.1837 137.309 100.08C133.298 102.929 132.155 107.168 130.619 108.946C130.648 101.582 136.628 95.6194 144 95.6194C145.44 95.6194 146.826 95.8472 148.125 96.2694Z" fill="#DBCDB2"/>
<path opacity="0.03" d="M162 109C162 118.941 153.941 127 144 127C139.237 127 134.904 125.149 131.687 122.127C131.535 121.97 131.39 121.809 131.247 121.645C135.185 122.118 144.494 128.193 152.602 122.699C158.553 118.664 160.171 110.321 161.516 104.842C161.833 106.176 162 107.568 162 109Z" fill="black"/>
<path opacity="0.34" d="M131.256 99.4424C128.303 103.794 129.088 109.169 127.593 109.319C126 109.478 126.986 103.288 129.982 98.9646C132.978 94.6414 140.361 91.3265 141.132 92.9115C141.58 93.8322 134.283 94.9823 131.256 99.4424Z" fill="white"/>
</g>
<defs>
<clipPath id="clip0_269_192">
<rect width="107" height="107" fill="white"/>
</clipPath>
<clipPath id="clip1_269_192">
<rect width="36" height="36" fill="white" transform="translate(126 91)"/>
</clipPath>
</defs>
</svg>
