<svg width="245" height="169" viewBox="0 0 245 169" fill="none" xmlns="http://www.w3.org/2000/svg">
<g clip-path="url(#clip0_269_191)">
<path d="M245 78C245 97.8828 228.883 114 209 114C199.474 114 190.809 110.298 184.373 104.255C183.507 103.445 182.682 102.592 181.901 101.696C176.358 95.366 173 87.0733 173 78C173 58.1172 189.117 42 209 42C224.687 42 238.033 52.0322 242.958 66.034C243.378 67.2255 243.738 68.4425 244.032 69.685C244.665 72.3515 245 75.1359 245 78Z" fill="#E8DFCE"/>
<g opacity="0.11">
<path d="M235.761 78C235.761 92.7791 223.779 104.761 209 104.761C194.221 104.761 182.239 92.7791 182.239 78V77.8916C182.297 63.1635 194.256 51.2389 209 51.2389C211.88 51.2389 214.652 51.6945 217.252 52.5387C227.991 56.0145 235.761 66.1008 235.761 78Z" fill="#A78544"/>
</g>
<path opacity="0.23" d="M199.921 73.8584C202.824 73.8584 205.177 71.5049 205.177 68.6017C205.177 65.6986 202.824 63.3451 199.921 63.3451C197.018 63.3451 194.664 65.6986 194.664 68.6017C194.664 71.5049 197.018 73.8584 199.921 73.8584Z" fill="black"/>
<path opacity="0.23" d="M218.717 73.5398C221.62 73.5398 223.973 71.1863 223.973 68.2831C223.973 65.38 221.62 63.0265 218.717 63.0265C215.813 63.0265 213.46 65.38 213.46 68.2831C213.46 71.1863 215.813 73.5398 218.717 73.5398Z" fill="black"/>
<path opacity="0.23" d="M199.921 92.0177C202.824 92.0177 205.177 89.6642 205.177 86.761C205.177 83.8579 202.824 81.5044 199.921 81.5044C197.018 81.5044 194.664 83.8579 194.664 86.761C194.664 89.6642 197.018 92.0177 199.921 92.0177Z" fill="black"/>
<path opacity="0.23" d="M218.717 91.6991C221.62 91.6991 223.973 89.3456 223.973 86.4424C223.973 83.5393 221.62 81.1858 218.717 81.1858C215.813 81.1858 213.46 83.5393 213.46 86.4424C213.46 89.3456 215.813 91.6991 218.717 91.6991Z" fill="black"/>
<path d="M217.252 52.5387C212.772 54.4916 203.769 54.3674 195.62 60.1592C187.598 65.8587 185.31 74.3362 182.239 77.8916C182.297 63.1635 194.256 51.2389 209 51.2389C211.88 51.2389 214.652 51.6945 217.252 52.5387Z" fill="#DBCDB2"/>
<path opacity="0.03" d="M245 78C245 97.8828 228.883 114 209 114C199.474 114 190.809 110.298 184.373 104.254C184.071 103.939 183.781 103.617 183.494 103.289C191.37 104.235 209.988 116.386 226.204 105.398C238.106 97.3285 241.343 80.641 244.031 69.6849C244.665 72.3515 245 75.1359 245 78Z" fill="black"/>
<path opacity="0.34" d="M183.513 58.8849C177.607 67.5886 179.177 78.3376 176.186 78.6371C173 78.9557 174.972 66.5755 180.965 57.9291C186.957 49.2828 201.724 42.653 203.266 45.8229C204.161 47.6644 189.567 49.9645 183.513 58.8849Z" fill="white"/>
</g>
<g clip-path="url(#clip1_269_191)">
<path d="M46 18C46 27.9414 37.9414 36 28 36C23.2372 36 18.9044 34.149 15.6867 31.1273C15.2535 30.7227 14.8409 30.2958 14.4506 29.8481C11.6789 26.683 10 22.5366 10 18C10 8.05858 18.0586 0 28 0C35.8435 0 42.5163 5.01611 44.9789 12.017C45.1892 12.6127 45.3692 13.2212 45.5158 13.8425C45.8327 15.1758 46 16.568 46 18Z" fill="#E8DFCE"/>
<g opacity="0.11">
<path d="M41.3802 18C41.3802 25.3896 35.3892 31.3806 27.9997 31.3806C20.6101 31.3806 14.6191 25.3896 14.6191 18V17.9459C14.6478 10.5818 20.6276 4.61951 27.9997 4.61951C29.4397 4.61951 30.8255 4.84729 32.1253 5.26942C37.4951 7.00729 41.3802 12.0505 41.3802 18Z" fill="#A78544"/>
</g>
<path opacity="0.23" d="M23.4603 15.9292C24.9119 15.9292 26.0887 14.7525 26.0887 13.3009C26.0887 11.8493 24.9119 10.6726 23.4603 10.6726C22.0088 10.6726 20.832 11.8493 20.832 13.3009C20.832 14.7525 22.0088 15.9292 23.4603 15.9292Z" fill="black"/>
<path opacity="0.23" d="M32.8588 15.7699C34.3104 15.7699 35.4871 14.5932 35.4871 13.1416C35.4871 11.69 34.3104 10.5133 32.8588 10.5133C31.4072 10.5133 30.2305 11.69 30.2305 13.1416C30.2305 14.5932 31.4072 15.7699 32.8588 15.7699Z" fill="black"/>
<path opacity="0.23" d="M23.4603 25.0088C24.9119 25.0088 26.0887 23.8321 26.0887 22.3805C26.0887 20.9289 24.9119 19.7522 23.4603 19.7522C22.0088 19.7522 20.832 20.9289 20.832 22.3805C20.832 23.8321 22.0088 25.0088 23.4603 25.0088Z" fill="black"/>
<path opacity="0.23" d="M32.8588 24.8495C34.3104 24.8495 35.4871 23.6728 35.4871 22.2212C35.4871 20.7696 34.3104 19.5929 32.8588 19.5929C31.4072 19.5929 30.2305 20.7696 30.2305 22.2212C30.2305 23.6728 31.4072 24.8495 32.8588 24.8495Z" fill="black"/>
<path d="M32.1253 5.26942C29.8857 6.24588 25.3841 6.18375 21.3094 9.07968C17.2984 11.9294 16.1547 16.1682 14.6191 17.9459C14.6478 10.5818 20.6276 4.61951 27.9997 4.61951C29.4397 4.61951 30.8255 4.84729 32.1253 5.26942Z" fill="#DBCDB2"/>
<path opacity="0.03" d="M46 18.0001C46 27.9415 37.9414 36.0001 28 36.0001C23.2372 36.0001 18.9044 34.1491 15.6867 31.1273C15.5354 30.9696 15.3904 30.8087 15.2471 30.6447C19.1848 31.1178 28.4938 37.1931 36.6018 31.6992C42.5529 27.6643 44.1713 19.3206 45.5157 13.8425C45.8327 15.1758 46 16.568 46 18.0001Z" fill="black"/>
<path opacity="0.34" d="M15.2562 8.44245C12.3029 12.7943 13.0883 18.1688 11.5925 18.3186C9.99958 18.4778 10.9856 12.2878 13.9819 7.96457C16.9782 3.64139 24.3614 0.326519 25.1323 1.91147C25.5799 2.83218 18.2828 3.98227 15.2562 8.44245Z" fill="white"/>
</g>
<g clip-path="url(#clip2_269_191)">
<path d="M36 64C36 73.9414 27.9414 82 18 82C13.2372 82 8.90443 80.149 5.68673 77.1273C5.25345 76.7227 4.84089 76.2958 4.45062 75.8481C1.67894 72.683 0 68.5366 0 64C0 54.0586 8.05858 46 18 46C25.8435 46 32.5163 51.0161 34.9789 58.017C35.1892 58.6127 35.3692 59.2212 35.5158 59.8425C35.8327 61.1758 36 62.568 36 64Z" fill="#E8DFCE"/>
<g opacity="0.11">
<path d="M31.3802 64C31.3802 71.3896 25.3892 77.3806 17.9997 77.3806C10.6101 77.3806 4.61914 71.3896 4.61914 64V63.9459C4.64781 56.5818 10.6276 50.6195 17.9997 50.6195C19.4397 50.6195 20.8255 50.8473 22.1253 51.2694C27.4951 53.0073 31.3802 58.0505 31.3802 64Z" fill="#A78544"/>
</g>
<path opacity="0.23" d="M13.4603 61.9292C14.9119 61.9292 16.0887 60.7525 16.0887 59.3009C16.0887 57.8493 14.9119 56.6726 13.4603 56.6726C12.0088 56.6726 10.832 57.8493 10.832 59.3009C10.832 60.7525 12.0088 61.9292 13.4603 61.9292Z" fill="black"/>
<path opacity="0.23" d="M22.8588 61.7699C24.3104 61.7699 25.4871 60.5932 25.4871 59.1416C25.4871 57.69 24.3104 56.5133 22.8588 56.5133C21.4072 56.5133 20.2305 57.69 20.2305 59.1416C20.2305 60.5932 21.4072 61.7699 22.8588 61.7699Z" fill="black"/>
<path opacity="0.23" d="M13.4603 71.0088C14.9119 71.0088 16.0887 69.8321 16.0887 68.3805C16.0887 66.9289 14.9119 65.7522 13.4603 65.7522C12.0088 65.7522 10.832 66.9289 10.832 68.3805C10.832 69.8321 12.0088 71.0088 13.4603 71.0088Z" fill="black"/>
<path opacity="0.23" d="M22.8588 70.8495C24.3104 70.8495 25.4871 69.6728 25.4871 68.2212C25.4871 66.7696 24.3104 65.5929 22.8588 65.5929C21.4072 65.5929 20.2305 66.7696 20.2305 68.2212C20.2305 69.6728 21.4072 70.8495 22.8588 70.8495Z" fill="black"/>
<path d="M22.1253 51.2694C19.8857 52.2459 15.3841 52.1838 11.3094 55.0797C7.29843 57.9294 6.15472 62.1682 4.61914 63.9459C4.64781 56.5818 10.6276 50.6195 17.9997 50.6195C19.4397 50.6195 20.8255 50.8473 22.1253 51.2694Z" fill="#DBCDB2"/>
<path opacity="0.03" d="M36 64.0001C36 73.9415 27.9414 82.0001 18 82.0001C13.2372 82.0001 8.90442 80.1491 5.68672 77.1273C5.53539 76.9696 5.39043 76.8087 5.24707 76.6447C9.18477 77.1178 18.4938 83.1931 26.6018 77.6992C32.5529 73.6643 34.1713 65.3206 35.5157 59.8425C35.8327 61.1758 36 62.568 36 64.0001Z" fill="black"/>
<path opacity="0.34" d="M5.25622 54.4424C2.30294 58.7943 3.08825 64.1688 1.5925 64.3186C-0.000418186 64.4778 0.9856 58.2878 3.98188 53.9646C6.97817 49.6414 14.3614 46.3265 15.1323 47.9115C15.5799 48.8322 8.28277 49.9823 5.25622 54.4424Z" fill="white"/>
</g>
<g clip-path="url(#clip3_269_191)">
<path d="M161 110C161 142.586 134.586 169 102 169C86.3885 169 72.1867 162.933 61.6398 153.028C60.2196 151.702 58.8673 150.303 57.5881 148.836C48.5032 138.461 43 124.87 43 110C43 77.4142 69.4142 51 102 51C127.709 51 149.581 67.4417 157.653 90.389C158.342 92.3418 158.932 94.3363 159.413 96.3726C160.452 100.743 161 105.306 161 110Z" fill="#E8DFCE"/>
<g opacity="0.11">
<path d="M145.858 110C145.858 134.221 126.221 153.858 102 153.858C77.7787 153.858 58.1416 134.221 58.1416 110V109.822C58.2356 85.6847 77.8361 66.1416 102 66.1416C106.72 66.1416 111.262 66.8882 115.523 68.2719C133.124 73.9682 145.858 90.4987 145.858 110Z" fill="#A78544"/>
</g>
<path opacity="0.23" d="M87.1199 103.212C91.8779 103.212 95.735 99.3553 95.735 94.5973C95.735 89.8394 91.8779 85.9823 87.1199 85.9823C82.362 85.9823 78.5049 89.8394 78.5049 94.5973C78.5049 99.3553 82.362 103.212 87.1199 103.212Z" fill="black"/>
<path opacity="0.23" d="M117.925 102.69C122.683 102.69 126.54 98.8332 126.54 94.0752C126.54 89.3173 122.683 85.4602 117.925 85.4602C113.167 85.4602 109.31 89.3173 109.31 94.0752C109.31 98.8332 113.167 102.69 117.925 102.69Z" fill="black"/>
<path opacity="0.23" d="M87.1199 132.973C91.8779 132.973 95.735 129.116 95.735 124.358C95.735 119.6 91.8779 115.743 87.1199 115.743C82.362 115.743 78.5049 119.6 78.5049 124.358C78.5049 129.116 82.362 132.973 87.1199 132.973Z" fill="black"/>
<path opacity="0.23" d="M117.925 132.451C122.683 132.451 126.54 128.594 126.54 123.836C126.54 119.078 122.683 115.221 117.925 115.221C113.167 115.221 109.31 119.078 109.31 123.836C109.31 128.594 113.167 132.451 117.925 132.451Z" fill="black"/>
<path d="M115.523 68.2719C108.182 71.4725 93.4267 71.2689 80.0708 80.7611C66.9237 90.1019 63.1749 103.996 58.1416 109.822C58.2356 85.6847 77.8361 66.1416 102 66.1416C106.72 66.1416 111.262 66.8882 115.523 68.2719Z" fill="#DBCDB2"/>
<path opacity="0.03" d="M161 110C161 142.586 134.586 169 102 169C86.389 169 72.1872 162.933 61.6403 153.028C61.1443 152.511 60.6691 151.984 60.1992 151.446C73.1061 152.997 103.619 172.911 130.195 154.903C149.702 141.677 155.006 114.328 159.413 96.3726C160.452 100.743 161 105.306 161 110Z" fill="black"/>
<path opacity="0.34" d="M60.2296 78.6726C50.5495 92.937 53.1235 110.553 48.2208 111.044C42.9996 111.566 46.2315 91.2767 56.0526 77.1062C65.8738 62.9358 90.0742 52.0704 92.6013 57.2655C94.0685 60.2834 70.15 64.0531 60.2296 78.6726Z" fill="white"/>
</g>
<defs>
<clipPath id="clip0_269_191">
<rect width="72" height="72" fill="white" transform="translate(173 42)"/>
</clipPath>
<clipPath id="clip1_269_191">
<rect width="36" height="36" fill="white" transform="translate(10)"/>
</clipPath>
<clipPath id="clip2_269_191">
<rect width="36" height="36" fill="white" transform="translate(0 46)"/>
</clipPath>
<clipPath id="clip3_269_191">
<rect width="118" height="118" fill="white" transform="translate(43 51)"/>
</clipPath>
</defs>
</svg>
