<svg width="67" height="66" viewBox="0 0 67 66" fill="none" xmlns="http://www.w3.org/2000/svg">
<path d="M59.0504 0.600098H7.95039C3.93539 0.600098 0.650391 3.8401 0.650391 7.8001V58.2001C0.650391 62.1637 3.93539 65.4001 7.95039 65.4001H33.5004V40.2001H26.2004V31.2901H33.5004V23.9101C33.5004 16.1197 37.9242 10.6477 47.2463 10.6477L53.8272 10.6549V20.0329H49.4582C45.8301 20.0329 44.4504 22.7185 44.4504 25.2097V31.2937H53.8236L51.7504 40.2001H44.4504V65.4001H59.0504C63.0654 65.4001 66.3504 62.1637 66.3504 58.2001V7.8001C66.3504 3.8401 63.0654 0.600098 59.0504 0.600098Z" fill="#E94A27"/>
</svg>
