<svg width="1512" height="408" viewBox="0 0 1512 408" fill="none" xmlns="http://www.w3.org/2000/svg">
<rect x="-7" y="82.0024" width="1520" height="326" fill="#F0EEEA"/>
<rect x="595.745" y="64.2686" width="80.3218" height="77.6931" transform="rotate(136.403 595.745 64.2686)" fill="white"/>
<rect x="537.745" y="72.2686" width="80.3218" height="77.6931" transform="rotate(136.403 537.745 72.2686)" fill="white"/>
<rect x="666.745" y="64.2686" width="80.3218" height="77.6931" transform="rotate(136.403 666.745 64.2686)" fill="white"/>
<rect x="720.745" y="56.2686" width="80.3218" height="77.6931" transform="rotate(136.403 720.745 56.2686)" fill="white"/>
<rect x="773.745" y="71.2686" width="80.3218" height="77.6931" transform="rotate(136.403 773.745 71.2686)" fill="white"/>
<rect x="833.745" y="64.2686" width="80.3218" height="77.6931" transform="rotate(136.403 833.745 64.2686)" fill="white"/>
<rect x="895.745" y="71.2686" width="80.3218" height="77.6931" transform="rotate(136.403 895.745 71.2686)" fill="white"/>
<rect x="958.745" y="71.2686" width="80.3218" height="77.6931" transform="rotate(136.403 958.745 71.2686)" fill="white"/>
<rect x="1030.75" y="71.2686" width="80.3218" height="77.6931" transform="rotate(136.403 1030.75 71.2686)" fill="white"/>
<rect x="1107.75" y="71.2686" width="80.3218" height="77.6931" transform="rotate(136.403 1107.75 71.2686)" fill="white"/>
<rect x="1181.75" y="91.2681" width="80.3218" height="77.6931" transform="rotate(136.403 1181.75 91.2681)" fill="white"/>
<rect x="1249.75" y="72.2686" width="80.3218" height="77.6931" transform="rotate(136.403 1249.75 72.2686)" fill="white"/>
<rect x="1315.75" y="82.2686" width="80.3218" height="77.6931" transform="rotate(136.403 1315.75 82.2686)" fill="white"/>
<rect x="1369.75" y="82.2686" width="80.3218" height="77.6931" transform="rotate(136.403 1369.75 82.2686)" fill="white"/>
<rect x="1416.75" y="83.2686" width="80.3218" height="77.6931" transform="rotate(136.403 1416.75 83.2686)" fill="white"/>
<rect x="1476.75" y="82.2686" width="80.3218" height="77.6931" transform="rotate(136.403 1476.75 82.2686)" fill="white"/>
<rect x="1541.75" y="82.2686" width="80.3218" height="77.6931" transform="rotate(136.403 1541.75 82.2686)" fill="white"/>
</svg>
