<svg width="1520" height="163" viewBox="0 0 1520 163" fill="none" xmlns="http://www.w3.org/2000/svg">
<path fill-rule="evenodd" clip-rule="evenodd" d="M1425.58 55.6543L1459.67 23.1934L1490.58 55.6543L1520 27.6367V163H0V0H443.104L486.576 45.6543L520.99 12.8848L544.576 37.6543L581.814 2.19678L615.576 37.6543L647.893 6.88281L669.576 29.6543L689.883 10.3188L722.576 44.6543L757.541 11.3618L782.576 37.6543L811.598 10.02L844.576 44.6543L877.617 13.1919L907.576 44.6543L945.338 8.69775L979.576 44.6543L1019.96 6.20068L1056.58 44.6543L1085.4 17.209L1130.58 64.6543L1175.73 21.6602L1198.58 45.6543L1228.2 17.4492L1264.58 55.6543L1292.9 28.6865L1318.58 55.6543L1342.73 32.6582L1365.58 56.6543L1397.54 26.2148L1425.58 55.6543Z" fill="#F0EEEA"/>
</svg>
