<svg width="65" height="65" viewBox="0 0 65 65" fill="none" xmlns="http://www.w3.org/2000/svg">
<path fill-rule="evenodd" clip-rule="evenodd" d="M13.9183 0.159668C10.2688 0.159668 6.76865 1.60907 4.18755 4.18918C1.60645 6.76929 0.155698 10.2689 0.154297 13.9184V50.6224C0.154297 54.2728 1.60443 57.7738 4.18568 60.355C6.76693 62.9363 10.2679 64.3864 13.9183 64.3864H50.6223C54.2718 64.385 57.7714 62.9342 60.3515 60.3531C62.9316 57.772 64.381 54.2719 64.381 50.6224V13.9184C64.3796 10.2698 62.9296 6.771 60.3496 4.19105C57.7697 1.61109 54.2709 0.161069 50.6223 0.159668H13.9183ZM54.5813 13.9395C54.5813 14.9909 54.1636 15.9993 53.4202 16.7427C52.6767 17.4861 51.6684 17.9038 50.617 17.9038C49.5656 17.9038 48.5573 17.4861 47.8138 16.7427C47.0704 15.9993 46.6527 14.9909 46.6527 13.9395C46.6527 12.8881 47.0704 11.8798 47.8138 11.1364C48.5573 10.3929 49.5656 9.97524 50.617 9.97524C51.6684 9.97524 52.6767 10.3929 53.4202 11.1364C54.1636 11.8798 54.5813 12.8881 54.5813 13.9395ZM32.2756 21.2761C29.3597 21.2761 26.5633 22.4344 24.5014 24.4962C22.4396 26.5581 21.2813 29.3545 21.2813 32.2704C21.2813 35.1862 22.4396 37.9827 24.5014 40.0445C26.5633 42.1063 29.3597 43.2647 32.2756 43.2647C35.1914 43.2647 37.9879 42.1063 40.0497 40.0445C42.1115 37.9827 43.2699 35.1862 43.2699 32.2704C43.2699 29.3545 42.1115 26.5581 40.0497 24.4962C37.9879 22.4344 35.1914 21.2761 32.2756 21.2761ZM15.9903 32.2704C15.9903 27.9527 17.7055 23.8118 20.7586 20.7587C23.8117 17.7056 27.9526 15.9904 32.2703 15.9904C36.588 15.9904 40.7289 17.7056 43.782 20.7587C46.8351 23.8118 48.5503 27.9527 48.5503 32.2704C48.5503 36.5881 46.8351 40.729 43.782 43.7821C40.7289 46.8352 36.588 48.5504 32.2703 48.5504C27.9526 48.5504 23.8117 46.8352 20.7586 43.7821C17.7055 40.729 15.9903 36.5881 15.9903 32.2704Z" fill="#E94A27"/>
</svg>
