<svg width="107" height="107" viewBox="0 0 107 107" fill="none" xmlns="http://www.w3.org/2000/svg">
<g clip-path="url(#clip0_279_681)">
<path d="M107 53.5C107 83.0481 83.0481 107 53.5 107C39.3438 107 26.4659 101.498 16.9022 92.5171C15.6144 91.3146 14.3882 90.0457 13.2282 88.7153C4.99018 79.3078 0 66.9839 0 53.5C0 23.9519 23.9519 0 53.5 0C76.8127 0 96.6456 14.909 103.965 35.7172C104.59 37.4879 105.125 39.2965 105.561 41.1429C106.503 45.1057 107 49.2437 107 53.5Z" fill="#E8DFCE"/>
<g opacity="0.11">
<path d="M93.2703 53.5C93.2703 75.4634 75.4638 93.2699 53.5004 93.2699C31.537 93.2699 13.7305 75.4634 13.7305 53.5V53.339C13.8157 31.4514 31.5891 13.7301 53.5004 13.7301C57.7804 13.7301 61.8994 14.4071 65.7628 15.6618C81.7228 20.8271 93.2703 35.8166 93.2703 53.5Z" fill="#A78544"/>
</g>
<path opacity="0.23" d="M40.0073 47.3451C44.3217 47.3451 47.8192 43.8476 47.8192 39.5332C47.8192 35.2188 44.3217 31.7213 40.0073 31.7213C35.6928 31.7213 32.1953 35.2188 32.1953 39.5332C32.1953 43.8476 35.6928 47.3451 40.0073 47.3451Z" fill="black"/>
<path opacity="0.23" d="M67.9409 46.8717C72.2553 46.8717 75.7528 43.3742 75.7528 39.0597C75.7528 34.7453 72.2553 31.2478 67.9409 31.2478C63.6264 31.2478 60.1289 34.7453 60.1289 39.0597C60.1289 43.3742 63.6264 46.8717 67.9409 46.8717Z" fill="black"/>
<path opacity="0.23" d="M40.0073 74.3318C44.3217 74.3318 47.8192 70.8343 47.8192 66.5199C47.8192 62.2055 44.3217 58.7079 40.0073 58.7079C35.6928 58.7079 32.1953 62.2055 32.1953 66.5199C32.1953 70.8343 35.6928 74.3318 40.0073 74.3318Z" fill="black"/>
<path opacity="0.23" d="M67.9409 73.8584C72.2553 73.8584 75.7528 70.3609 75.7528 66.0464C75.7528 61.732 72.2553 58.2345 67.9409 58.2345C63.6264 58.2345 60.1289 61.732 60.1289 66.0464C60.1289 70.3609 63.6264 73.8584 67.9409 73.8584Z" fill="black"/>
<path d="M65.7628 15.6618C59.106 18.564 45.7263 18.3794 33.6154 26.9867C21.6939 35.4568 18.2945 48.0553 13.7305 53.339C13.8157 31.4514 31.5891 13.7301 53.5004 13.7301C57.7804 13.7301 61.8994 14.4071 65.7628 15.6618Z" fill="#DBCDB2"/>
<path opacity="0.03" d="M107 53.5C107 83.0481 83.0483 107 53.5002 107C39.344 107 26.4661 101.499 16.9024 92.5171C16.4527 92.0484 16.0218 91.5702 15.5957 91.0826C27.2994 92.4887 54.9679 110.546 79.0666 94.2168C96.7547 82.2243 101.565 57.4249 105.561 41.1429C106.503 45.1057 107 49.2437 107 53.5Z" fill="black"/>
<path opacity="0.34" d="M15.6234 25.0929C6.84565 38.0276 9.17977 54.0019 4.73406 54.4469C-0.000456095 54.9204 2.93021 36.522 11.8358 23.6726C20.7414 10.8231 42.6859 0.970584 44.9774 5.68142C46.3078 8.41797 24.619 11.8363 15.6234 25.0929Z" fill="white"/>
</g>
<defs>
<clipPath id="clip0_279_681">
<rect width="107" height="107" fill="white"/>
</clipPath>
</defs>
</svg>
