<svg width="36" height="36" viewBox="0 0 36 36" fill="none" xmlns="http://www.w3.org/2000/svg">
<g clip-path="url(#clip0_279_725)">
<path d="M36 18C36 27.9414 27.9414 36 18 36C13.2372 36 8.90443 34.149 5.68673 31.1273C5.25345 30.7227 4.84089 30.2958 4.45062 29.8481C1.67894 26.683 0 22.5366 0 18C0 8.05858 8.05858 0 18 0C25.8435 0 32.5163 5.01611 34.9789 12.017C35.1892 12.6127 35.3692 13.2212 35.5158 13.8425C35.8327 15.1758 36 16.568 36 18Z" fill="#E8DFCE"/>
<g opacity="0.11">
<path d="M31.3802 18C31.3802 25.3895 25.3892 31.3805 17.9997 31.3805C10.6101 31.3805 4.61914 25.3895 4.61914 18V17.9458C4.64781 10.5817 10.6276 4.61945 17.9997 4.61945C19.4397 4.61945 20.8255 4.84723 22.1253 5.26936C27.4951 7.00723 31.3802 12.0504 31.3802 18Z" fill="#A78544"/>
</g>
<path opacity="0.23" d="M13.4603 15.9292C14.9119 15.9292 16.0887 14.7524 16.0887 13.3009C16.0887 11.8493 14.9119 10.6725 13.4603 10.6725C12.0088 10.6725 10.832 11.8493 10.832 13.3009C10.832 14.7524 12.0088 15.9292 13.4603 15.9292Z" fill="black"/>
<path opacity="0.23" d="M22.8588 15.7699C24.3104 15.7699 25.4871 14.5931 25.4871 13.1416C25.4871 11.69 24.3104 10.5132 22.8588 10.5132C21.4072 10.5132 20.2305 11.69 20.2305 13.1416C20.2305 14.5931 21.4072 15.7699 22.8588 15.7699Z" fill="black"/>
<path opacity="0.23" d="M13.4603 25.0088C14.9119 25.0088 16.0887 23.8321 16.0887 22.3805C16.0887 20.9289 14.9119 19.7522 13.4603 19.7522C12.0088 19.7522 10.832 20.9289 10.832 22.3805C10.832 23.8321 12.0088 25.0088 13.4603 25.0088Z" fill="black"/>
<path opacity="0.23" d="M22.8588 24.8495C24.3104 24.8495 25.4871 23.6728 25.4871 22.2212C25.4871 20.7696 24.3104 19.5929 22.8588 19.5929C21.4072 19.5929 20.2305 20.7696 20.2305 22.2212C20.2305 23.6728 21.4072 24.8495 22.8588 24.8495Z" fill="black"/>
<path d="M22.1253 5.26936C19.8857 6.24582 15.3841 6.18369 11.3094 9.07962C7.29843 11.9294 6.15472 16.1681 4.61914 17.9458C4.64781 10.5817 10.6276 4.61945 17.9997 4.61945C19.4397 4.61945 20.8255 4.84723 22.1253 5.26936Z" fill="#DBCDB2"/>
<path opacity="0.03" d="M36.001 18C36.001 27.9414 27.9424 36 18.001 36C13.2381 36 8.90539 34.149 5.68769 31.1272C5.53637 30.9695 5.39141 30.8087 5.24805 30.6446C9.18575 31.1177 18.4948 37.1931 26.6027 31.6991C32.5539 27.6642 34.1723 19.3205 35.5167 13.8425C35.8337 15.1757 36.001 16.568 36.001 18Z" fill="black"/>
<path opacity="0.34" d="M5.2572 8.44245C2.30392 12.7943 3.08923 18.1688 1.59348 18.3186C0.000558376 18.4778 0.986576 12.2878 3.98286 7.96457C6.97914 3.64139 14.3623 0.326519 15.1333 1.91147C15.5809 2.83218 8.28374 3.98227 5.2572 8.44245Z" fill="white"/>
</g>
<defs>
<clipPath id="clip0_279_725">
<rect width="36" height="36" fill="white"/>
</clipPath>
</defs>
</svg>
