<svg width="317" height="972" viewBox="0 0 317 972" fill="none" xmlns="http://www.w3.org/2000/svg">
<path d="M220 56.4273C194.36 62.4946 174.988 103.538 169.63 113.475C160.062 131.225 137.261 174.579 134.234 233.279C131.715 281.911 145.795 282.475 136.509 309.73C129.328 330.862 106.169 373.746 70.2845 396.456C66.2054 399.03 58.6675 403.444 54.3065 412.423C47.3701 426.699 50.7537 447.774 62.2955 461.487C72.8786 474.053 82.5594 471.198 86.2813 482.018C89.4581 491.278 85.4919 502.417 80.5669 516.242C76.4126 527.888 74.5328 527.87 74.8524 532.209C76.0178 547.555 99.9097 552.477 98.8382 563.015C98.1803 569.364 89.4018 568.424 83.9881 577.854C76.9765 590.064 81.2436 609.918 91.9771 620.081C98.3871 626.129 102.861 624.758 105.681 630.355C109.778 638.527 103.218 647.393 98.8382 660.016C93.0861 676.564 92.5786 695.123 95.417 704.515C103.237 730.399 151.754 737.312 179.913 741.031C249.633 750.235 305.406 737.857 324.937 733.048C384.751 718.302 449.547 702.336 473.382 652.032C487.781 621.64 516.485 602.705 514.192 590.608C476.465 390.596 577.747 211.903 475.13 111.239C409.432 46.7911 291.254 42.0575 230.5 56.4273H220Z" fill="#9B8178"/>
<path d="M168.935 584.015C169.819 591.078 158.446 597.634 143.803 606.086C128.464 614.934 96.1882 633.53 80.6049 620.55C71.5632 612.999 69.2135 595.699 76.037 584.785C78.8379 580.296 83.7065 576.088 95.0791 572.613C126.377 563.052 167.319 571.242 168.935 584.034V584.015Z" fill="#B15E58"/>
<path d="M167.468 585.743C169.668 578.474 141.151 573.158 115.699 546.184C113.857 544.231 105.793 535.552 92.8601 531.72C88.2547 530.349 81.1116 528.245 76.8633 531.72C70.7729 536.717 73.9121 550.636 78.3859 559.108C82.4275 566.79 89.1946 573.083 101.225 578.887C128.801 592.205 165.043 593.745 167.468 585.743Z" fill="#DD8B85"/>
<path d="M101.507 474.899C104.139 470.034 93.9505 456.453 80.9237 453.654C79.9462 453.447 70.6038 451.437 68.5736 455.025C65.7916 459.928 76.7694 474.993 90.5293 476.965C91.8828 477.153 99.6838 478.28 101.507 474.917V474.899Z" fill="#917871"/>
<path d="M201.493 65.7066C191.398 90.9524 224.099 109.895 286 202.5C360.984 314.678 304.215 498.625 286 719C276.225 837.227 353.829 925.754 369.507 929.191C381.819 931.896 403.436 852.064 429.509 854.844C452.254 857.267 496.447 932.159 505.094 931.257C520.64 929.623 522.651 802.849 522.651 802.849C582.748 587.152 573.631 218.064 475.131 111.277C391.312 20.3995 215.102 31.6511 201.493 65.7066Z" fill="#55433F"/>
</svg>
