<svg width="412" height="581" viewBox="0 0 412 581" fill="none" xmlns="http://www.w3.org/2000/svg">
<path d="M160.397 20.9955C157.41 21.0334 136.006 21.6157 121.69 37.767C117.31 42.7162 114.564 48.0198 108.792 76.4744C104.159 99.3217 102.627 118.258 99.7541 155.18C98.982 165.066 98.2605 176.344 104.918 186.154C107.564 190.053 109.412 190.812 117.817 199.052C131.209 212.166 130.766 214.393 135.879 218.406C149.917 229.443 172.941 228.216 188.789 220.988C199.978 215.887 206.041 208.482 215.889 196.47C226.737 183.23 234.053 174.306 235.243 161.636C236.306 150.244 231.268 148.307 223.636 122.928C221.496 115.802 222.243 117.144 214.598 82.9299C206.522 46.792 205.269 43.4503 201.7 39.0581C187.042 21.0461 162.359 20.9701 160.41 20.9955H160.397Z" fill="#9B8178"/>
<path d="M164.22 27.5775C150.031 34.438 132.145 31.2735 122.386 38.2986C112.412 45.4882 113.197 62.2344 113.349 67.9811C114.728 119.485 104.526 142.092 104.159 209.204C103.881 259.24 123.855 327.896 112.058 363.476C112.058 363.476 116.399 375.97 113.349 377.666C109.45 379.843 97.9188 359.667 88.8305 362.185C81.6156 364.185 81.2865 379.02 77.2234 378.957C72.1476 378.881 70.0084 355.705 65.6162 355.73C61.6163 355.755 60.4139 374.982 56.5786 375.084C53.047 375.185 48.8826 359.046 47.5409 342.819C45.9967 324.048 48.6295 309.516 50.1231 301.529C56.3254 268.442 59.4392 251.886 63.0214 237.013C73.7805 192.432 63.9707 185.926 70.7679 136.371C75.9196 98.8154 85.5142 28.742 130.12 7.33772C146.942 -0.737936 170.891 -2.91507 175.283 4.75553C175.283 4.75553 177.005 21.3878 164.22 27.5775Z" fill="#3A2A25"/>
<path d="M135.423 216.216C144.726 235.848 152.992 270.986 152.992 270.986C175.636 284.619 202.167 268.1 205.698 265.822C227.128 252 232.685 241.19 233.862 234.823C237.406 215.495 234.976 198.66 224.305 177.99C220.002 169.661 212.243 208.634 188.142 218.292C165.054 227.545 129.587 203.875 135.435 216.229L135.423 216.216Z" fill="#967D77"/>
<path d="M170.295 277.973C214.952 269.961 263.203 341.098 282.607 383.678C292.949 406.374 326.96 481.029 292.518 532.331C241.533 608.265 72.6276 585.266 48.0716 527.141C43.3249 515.914 56.8814 528.407 56.8814 422.209C56.8814 262.544 156.093 280.505 170.295 277.961V277.973Z" fill="#DFE5F3"/>
<path d="M136.322 279.682C138.967 272.037 183.333 291.985 225.509 269.771C248.267 257.784 247.432 245.62 266.254 240.038C298.645 230.431 337.555 255.658 358.744 279.682C393.996 319.643 395.604 373.717 396.186 393.096C397.502 437.259 384.275 466.296 403.894 502.104C408.932 511.307 413.375 515.901 411.603 521.926C404.629 545.66 311.379 557.95 280.57 520.825C252.596 487.118 300.923 442.575 278.367 385.387C249.33 311.808 132.221 291.568 136.322 279.682Z" fill="#D5DEEF"/>
<path d="M173.802 2.13541C184.447 -4.73776 217.623 6.75549 223.99 11.6414C247.571 29.7293 261.507 53.2095 282.709 107.499C311.67 181.686 308.278 195.875 333.036 234.507C343.606 251 362.58 277.062 361.795 277.644C360.82 278.366 335.467 234.899 316.265 239.304C301.227 242.747 298.481 273.568 289.899 272.86C281.165 272.138 280.418 239.949 273.127 239.304C261.317 238.266 249.888 321.389 235.977 320.782C229.99 320.529 225.774 304.833 220.395 284.834C215.648 267.189 212.585 255.784 214.408 242.899C217.661 219.76 226.433 214.153 226.04 191.432C224.952 128.523 233.154 114.714 219.205 75.1454C211.319 52.7665 180.523 28.3243 168.903 20.0841C168.004 19.4512 163.979 8.46429 173.802 2.13541Z" fill="#55433F"/>
<path d="M4.0351 492.269C12.5285 506.167 34.6542 513.851 46.9829 506.585C63.9063 496.611 46.5399 467.751 59.0964 420.702C70.982 376.134 95.0444 370.261 102.044 323.807C104.272 309.035 106.867 276.176 97.6393 273.151C90.1585 270.708 82.1841 290.251 13.9588 433.917C4.68065 453.448 -5.98985 475.852 4.04776 492.282L4.0351 492.269Z" fill="#D5DEEF"/>
</svg>
