<svg width="1512" height="581" viewBox="0 0 1512 581" fill="none" xmlns="http://www.w3.org/2000/svg">
<path d="M-47 349.925C-38.7904 349.925 -31.3339 352.394 -23.3165 353.604C-6.26813 356.177 12.3987 354.064 29.5688 354.064C49.8602 354.064 66.9411 350.347 85.9033 343.257C114.253 332.656 144.11 324.605 173.049 315.664C261.253 288.414 358.372 275.982 446.444 308.076C470.833 316.964 495.214 326.076 518.874 336.818C544.516 348.461 567.968 362.599 594.753 371.769C646.404 389.451 709.022 406.547 761.687 383.036C772.991 377.989 794.036 371.897 796.867 357.743C797.373 355.214 799.488 341.882 795.257 341.647C789.632 341.335 786.82 341.806 782.841 345.786C781.259 347.368 777.245 355.213 775.023 355.213C773.337 355.213 776.908 335.439 768.355 335.439C760.808 335.439 751.799 332.338 751.799 341.647C751.799 380 788.372 410.122 822.85 421.895C866.374 436.757 909.217 438.91 954.603 438.91C1027.6 438.91 1099.49 429.182 1171.43 417.756C1244.31 406.182 1316.36 399.351 1390.1 399.591C1428.32 399.716 1466.89 402.401 1504.15 411.548C1515.65 414.371 1528.03 418.332 1538.18 424.424" stroke="#3D5C6E" stroke-width="3" stroke-linecap="round" stroke-dasharray="6 6"/>
<path d="M1135.4 20.9955C1132.41 21.0334 1111.01 21.6157 1096.69 37.767C1092.31 42.7162 1089.56 48.0198 1083.79 76.4744C1079.16 99.3217 1077.63 118.258 1074.75 155.18C1073.98 165.066 1073.26 176.344 1079.92 186.154C1082.56 190.053 1084.41 190.812 1092.82 199.052C1106.21 212.166 1105.77 214.393 1110.88 218.406C1124.92 229.443 1147.94 228.216 1163.79 220.988C1174.98 215.887 1181.04 208.482 1190.89 196.47C1201.74 183.23 1209.05 174.306 1210.24 161.636C1211.31 150.244 1206.27 148.307 1198.64 122.928C1196.5 115.802 1197.24 117.144 1189.6 82.9299C1181.52 46.792 1180.27 43.4503 1176.7 39.0581C1162.04 21.0461 1137.36 20.9701 1135.41 20.9955H1135.4Z" fill="#9B8178"/>
<path d="M1139.22 27.5775C1125.03 34.438 1107.15 31.2735 1097.39 38.2986C1087.41 45.4882 1088.2 62.2344 1088.35 67.9811C1089.73 119.485 1079.53 142.092 1079.16 209.204C1078.88 259.24 1098.85 327.896 1087.06 363.476C1087.06 363.476 1091.4 375.97 1088.35 377.666C1084.45 379.843 1072.92 359.667 1063.83 362.185C1056.62 364.185 1056.29 379.02 1052.22 378.957C1047.15 378.881 1045.01 355.705 1040.62 355.73C1036.62 355.755 1035.41 374.982 1031.58 375.084C1028.05 375.185 1023.88 359.046 1022.54 342.819C1021 324.048 1023.63 309.516 1025.12 301.529C1031.33 268.442 1034.44 251.886 1038.02 237.013C1048.78 192.432 1038.97 185.926 1045.77 136.371C1050.92 98.8154 1060.51 28.742 1105.12 7.33772C1121.94 -0.737936 1145.89 -2.91507 1150.28 4.75553C1150.28 4.75553 1152 21.3878 1139.22 27.5775Z" fill="#3A2A25"/>
<path d="M1110.42 216.216C1119.73 235.848 1127.99 270.986 1127.99 270.986C1150.64 284.619 1177.17 268.1 1180.7 265.822C1202.13 252 1207.68 241.19 1208.86 234.823C1212.41 215.495 1209.98 198.66 1199.31 177.99C1195 169.661 1187.24 208.634 1163.14 218.292C1140.05 227.545 1104.59 203.875 1110.44 216.229L1110.42 216.216Z" fill="#967D77"/>
<path d="M1145.29 277.973C1189.95 269.961 1238.2 341.098 1257.61 383.678C1267.95 406.374 1301.96 481.029 1267.52 532.331C1216.53 608.265 1047.63 585.266 1023.07 527.141C1018.32 515.914 1031.88 528.407 1031.88 422.209C1031.88 262.544 1131.09 280.505 1145.29 277.961V277.973Z" fill="#DFE5F3"/>
<path d="M1111.32 279.682C1113.97 272.037 1158.33 291.985 1200.51 269.771C1223.27 257.784 1222.43 245.62 1241.25 240.038C1273.65 230.431 1312.56 255.658 1333.74 279.682C1369 319.643 1370.6 373.717 1371.19 393.096C1372.5 437.259 1359.27 466.296 1378.89 502.104C1383.93 511.307 1388.38 515.901 1386.6 521.926C1379.63 545.66 1286.38 557.95 1255.57 520.825C1227.6 487.118 1275.92 442.575 1253.37 385.387C1224.33 311.808 1107.22 291.568 1111.32 279.682Z" fill="#D5DEEF"/>
<path d="M1148.8 2.13541C1159.45 -4.73776 1192.62 6.75549 1198.99 11.6414C1222.57 29.7293 1236.51 53.2095 1257.71 107.499C1286.67 181.686 1283.28 195.875 1308.04 234.507C1318.61 251 1337.58 277.062 1336.79 277.644C1335.82 278.366 1310.47 234.899 1291.26 239.304C1276.23 242.747 1273.48 273.568 1264.9 272.86C1256.16 272.138 1255.42 239.949 1248.13 239.304C1236.32 238.266 1224.89 321.389 1210.98 320.782C1204.99 320.529 1200.77 304.833 1195.39 284.834C1190.65 267.189 1187.59 255.784 1189.41 242.899C1192.66 219.76 1201.43 214.153 1201.04 191.432C1199.95 128.523 1208.15 114.714 1194.21 75.1454C1186.32 52.7665 1155.52 28.3243 1143.9 20.0841C1143 19.4512 1138.98 8.46429 1148.8 2.13541Z" fill="#55433F"/>
<path d="M979.035 492.269C987.528 506.167 1009.65 513.851 1021.98 506.585C1038.91 496.611 1021.54 467.751 1034.1 420.702C1045.98 376.134 1070.04 370.261 1077.04 323.807C1079.27 309.035 1081.87 276.176 1072.64 273.151C1065.16 270.708 1057.18 290.251 988.959 433.917C979.681 453.448 969.01 475.852 979.048 492.282L979.035 492.269Z" fill="#D5DEEF"/>
</svg>
