<svg width="65" height="65" viewBox="0 0 65 65" fill="none" xmlns="http://www.w3.org/2000/svg">
<path fill-rule="evenodd" clip-rule="evenodd" d="M53.75 0.625C56.5679 0.625 59.2704 1.74442 61.263 3.73699C63.2556 5.72957 64.375 8.43208 64.375 11.25V53.75C64.375 56.5679 63.2556 59.2704 61.263 61.263C59.2704 63.2556 56.5679 64.375 53.75 64.375H11.25C8.43208 64.375 5.72957 63.2556 3.73699 61.263C1.74442 59.2704 0.625 56.5679 0.625 53.75V11.25C0.625 8.43208 1.74442 5.72957 3.73699 3.73699C5.72957 1.74442 8.43208 0.625 11.25 0.625H53.75ZM18.3333 25.4167C17.394 25.4167 16.4932 25.7898 15.829 26.454C15.1648 27.1182 14.7917 28.019 14.7917 28.9583V46.6667C14.7917 47.606 15.1648 48.5068 15.829 49.171C16.4932 49.8352 17.394 50.2083 18.3333 50.2083C19.2726 50.2083 20.1735 49.8352 20.8377 49.171C21.5019 48.5068 21.875 47.606 21.875 46.6667V28.9583C21.875 28.019 21.5019 27.1182 20.8377 26.454C20.1735 25.7898 19.2726 25.4167 18.3333 25.4167ZM28.9583 21.875C28.019 21.875 27.1182 22.2481 26.454 22.9123C25.7898 23.5765 25.4167 24.4774 25.4167 25.4167V46.6667C25.4167 47.606 25.7898 48.5068 26.454 49.171C27.1182 49.8352 28.019 50.2083 28.9583 50.2083C29.8976 50.2083 30.7985 49.8352 31.4627 49.171C32.1269 48.5068 32.5 47.606 32.5 46.6667V33.7042C33.5802 32.4858 35.4042 31.055 37.4335 30.1873C38.6129 29.6844 40.3873 29.479 41.6198 29.8685C42.0287 29.9723 42.3928 30.2059 42.6575 30.5344C42.8417 30.7823 43.125 31.3348 43.125 32.5V46.6667C43.125 47.606 43.4981 48.5068 44.1623 49.171C44.8265 49.8352 45.7274 50.2083 46.6667 50.2083C47.606 50.2083 48.5068 49.8352 49.171 49.171C49.8352 48.5068 50.2083 47.606 50.2083 46.6667V32.5C50.2083 30.1271 49.6063 28.0162 48.3525 26.3233C47.1988 24.7882 45.5842 23.6626 43.7448 23.111C40.5502 22.1088 37.0121 22.6648 34.6498 23.6777C33.8929 24.0016 33.1561 24.3706 32.4433 24.7827C32.2949 23.9667 31.8647 23.2286 31.2278 22.6972C30.5909 22.1659 29.7878 21.8749 28.9583 21.875ZM18.3333 14.7917C17.394 14.7917 16.4932 15.1648 15.829 15.829C15.1648 16.4932 14.7917 17.394 14.7917 18.3333C14.7917 19.2726 15.1648 20.1735 15.829 20.8377C16.4932 21.5019 17.394 21.875 18.3333 21.875C19.2726 21.875 20.1735 21.5019 20.8377 20.8377C21.5019 20.1735 21.875 19.2726 21.875 18.3333C21.875 17.394 21.5019 16.4932 20.8377 15.829C20.1735 15.1648 19.2726 14.7917 18.3333 14.7917Z" fill="#E94A27"/>
</svg>
