<svg width="218" height="202" viewBox="0 0 218 202" fill="none" xmlns="http://www.w3.org/2000/svg">
<path d="M205.697 147.264C193.704 181.544 158.366 191.537 132.265 194.07C115.135 195.733 101.983 194.192 101.983 194.192C86.833 191.684 74.2614 188.274 63.8506 184.432C61.7235 183.641 59.6797 182.836 57.7326 182.017C56.9281 181.685 56.1451 181.341 55.3751 181.004C22.4349 166.492 15.6094 148.222 15.6094 148.222C-8.98479 106.965 19.1093 75.4941 31.9937 64.0879C33.0033 63.1955 33.9218 62.4266 34.7073 61.7919C34.94 61.6033 35.1582 61.4274 35.3618 61.2641C35.725 60.9754 36.1677 61.1033 36.3922 61.4072C36.5356 61.6024 36.5913 61.8735 36.4621 62.1449C33.4915 68.4623 31.5529 74.5258 30.2909 79.755C28.3483 87.7628 27.9842 93.8308 27.9145 95.9279C27.897 96.4539 27.8977 96.7278 27.8977 96.7278C28.0361 98.032 28.2445 99.3139 28.5236 100.567C28.5226 100.58 28.5284 100.594 28.5279 100.601C30.2874 108.549 34.6634 115.446 39.7899 121.151C50.5109 133.096 64.4958 139.778 64.4958 139.778C67.1022 141.611 69.825 143.253 72.6214 144.729C83.2129 150.33 94.8895 153.524 105.394 155.319C123.324 158.398 137.857 157.416 137.857 157.416C141.069 157.211 144.123 156.836 147.029 156.328C192.634 148.277 201.179 104.976 202.512 95.4583C202.581 94.9771 203.244 94.9086 203.423 95.3599C205.727 101.279 207.219 106.872 208.125 112.039C209.117 117.719 209.408 122.882 209.293 127.4C208.981 139.744 205.697 147.264 205.697 147.264Z" fill="#E8DFCE"/>
<path d="M115.692 159.009C101.967 174.929 25.8405 136.671 23.7295 106.629C22.8796 94.5362 27.5078 79.4165 33.7753 66.2438C31.8561 70.809 30.7787 75.3805 30.2907 79.7549C28.3482 87.7628 27.9841 93.8307 27.9144 95.9279C27.8969 96.4539 27.8976 96.7278 27.8976 96.7278C28.036 98.032 28.2444 99.3139 28.5235 100.567C28.5225 100.58 28.5283 100.594 28.5278 100.601C30.2873 108.549 34.6633 115.446 39.7898 121.151C48.2206 134.464 63.9577 141.629 72.6213 144.729C83.2128 150.33 94.8894 153.524 105.394 155.319C111.075 157.045 116.021 158.622 115.692 159.009Z" fill="#E3D8C3"/>
<path d="M120.994 27.1742C120.25 27.1341 119.502 27.0662 118.763 26.9648C111.079 25.84 59.004 19.9737 35.6325 64.146C10.3652 111.899 46.3249 132.183 65.8404 143.245C65.8404 143.245 131.848 184.036 180.475 141.165C180.475 141.165 199.52 122.782 202.594 97.3609C202.594 97.3609 205.575 73.3092 167.941 44.5634C167.941 44.5634 146.861 28.6229 120.993 27.1811L120.994 27.1742Z" fill="#EDE6D9"/>
<path opacity="0.07" d="M180.333 86.1966C179.929 87.1397 178.378 87.2808 175.782 86.1615C173.186 85.0422 173.308 83.9212 173.719 82.9786C174.129 82.036 174.479 82.7872 177.075 83.9064C179.672 85.0257 180.737 85.2535 180.333 86.1966Z" fill="black"/>
<path opacity="0.09" d="M144.539 135.392C144.643 136.413 143.616 137.263 141.333 137.495C139.049 137.727 138.673 136.686 138.569 135.665C138.465 134.644 139.024 135.144 141.308 134.905C143.592 134.666 144.435 134.371 144.539 135.392Z" fill="black"/>
<path opacity="0.09" d="M84.0874 136.561C84.2127 137.762 83.3631 138.714 81.4244 138.916C79.4856 139.118 79.1301 137.88 79.0116 136.68C78.8931 135.48 79.3835 136.084 81.3222 135.882C83.261 135.68 83.9688 135.361 84.0947 136.555L84.0874 136.561Z" fill="black"/>
<path opacity="0.03" d="M141.145 59.8993C140.903 60.6897 139.808 60.9665 137.899 60.3695C135.991 59.7726 136.035 58.8856 136.277 58.0951C136.519 57.3046 136.808 57.8596 138.709 58.4561C140.611 59.0526 141.38 59.1083 141.138 59.8988L141.145 59.8993Z" fill="black"/>
<path opacity="0.07" d="M75.666 72.4339C76.1255 73.2752 75.781 74.25 74.3764 75.0179C72.9719 75.7858 72.3313 74.9862 71.8718 74.1449C71.4124 73.3036 71.9668 73.5903 73.3714 72.8224C74.7759 72.0544 75.2065 71.5926 75.666 72.4339Z" fill="black"/>
<path opacity="0.07" d="M103.209 87.6304C102.917 88.5473 101.908 88.9468 100.248 88.4226C98.5879 87.8984 98.696 86.8791 98.9884 85.9621C99.2807 85.0452 99.4898 85.6561 101.15 86.1803C102.81 86.7045 103.501 86.7135 103.209 87.6304Z" fill="black"/>
<path d="M177.588 84.6831L190.57 54.6176C190.57 54.6176 190.57 54.6176 190.571 54.6108C192.524 55.1495 194.694 54.5054 196.002 52.7992C197.726 50.5548 197.308 47.3405 195.063 45.6167C192.819 43.8929 189.605 44.3107 187.881 46.5551C186.157 48.7995 186.575 52.0139 188.819 53.7376C188.982 53.8589 189.151 53.974 189.315 54.0748L176.333 84.1403C176.184 84.4856 176.347 84.8877 176.692 85.036C177.038 85.1842 177.44 85.0216 177.588 84.6763L177.588 84.6831Z" fill="#B0B0B0"/>
<path d="M141.916 135.415L136.184 103.172C138.112 102.552 139.566 100.815 139.722 98.6695C139.926 95.8494 137.803 93.3949 134.983 93.1907C132.163 92.9865 129.708 95.1095 129.504 97.9296C129.3 100.75 131.423 103.204 134.243 103.408C134.447 103.423 134.646 103.424 134.845 103.411L140.577 135.653C140.646 136.021 140.998 136.273 141.372 136.204C141.74 136.135 141.992 135.783 141.923 135.408L141.916 135.415Z" fill="#5C5C5C"/>
<path d="M82.0204 136.733L80.9051 104.004C80.9051 104.004 80.9051 104.004 80.9056 103.997C82.9024 103.655 84.587 102.141 85.0406 100.037C85.6448 97.2735 83.8908 94.5444 81.1266 93.9471C78.3624 93.3498 75.6338 95.0969 75.0365 97.8611C74.4392 100.625 76.1863 103.354 78.9505 103.951C79.1529 103.993 79.3494 104.021 79.5465 104.042L80.6618 136.772C80.6755 137.15 80.9896 137.446 81.3672 137.433C81.7448 137.419 82.0414 137.105 82.0277 136.727L82.0204 136.733Z" fill="#5C5C5C"/>
<path d="M101.587 86.7529L114.344 56.589C114.344 56.589 114.344 56.589 114.345 56.5821C116.299 57.1072 118.463 56.4422 119.765 54.7287C121.476 52.4765 121.031 49.2602 118.779 47.5495C116.526 45.8389 113.31 46.2839 111.599 48.5361C109.889 50.7883 110.334 54.0046 112.586 55.7153C112.748 55.8366 112.919 55.9448 113.089 56.0462L100.332 86.2101C100.184 86.5554 100.347 86.9575 100.692 87.1058C101.037 87.2541 101.44 87.0914 101.588 86.7461L101.587 86.7529Z" fill="#8E8E8E"/>
<path d="M74.1938 72.7998L61.3023 42.6959C63.0351 41.6504 64.058 39.6292 63.7253 37.5097C63.2838 34.7182 60.6624 32.8097 57.8709 33.2512C55.0794 33.6927 53.1708 36.314 53.6123 39.1056C54.0539 41.8971 56.6752 43.8056 59.4667 43.3641C59.6677 43.3307 59.8629 43.2832 60.0513 43.2353L72.9427 73.3392C73.0888 73.6853 73.495 73.8448 73.8411 73.6987C74.1872 73.5526 74.3467 73.1464 74.2006 72.8003L74.1938 72.7998Z" fill="#B0B0B0"/>
<path d="M96.7887 48.6277L91.1476 16.3646C93.0756 15.7441 94.5361 14.0147 94.6983 11.8695C94.9025 9.04941 92.7868 6.58859 89.9672 6.37756C87.1476 6.16654 84.6868 8.28226 84.4758 11.1018C84.2647 13.9214 86.3805 16.3823 89.2001 16.5933C89.4044 16.6081 89.6029 16.6088 89.802 16.6026L95.443 48.8658C95.5054 49.2332 95.8638 49.4851 96.2312 49.4227C96.5987 49.3603 96.8506 49.002 96.7882 48.6345L96.7887 48.6277Z" fill="#DEDEDE"/>
<path d="M139.223 59.0274L149.012 27.772C149.012 27.772 149.012 27.772 149.013 27.7652C151.008 28.1015 153.098 27.2325 154.223 25.4035C155.706 22.991 154.955 19.8415 152.549 18.3595C150.137 16.8769 146.987 17.628 145.505 20.0337C144.023 22.4394 144.774 25.5957 147.179 27.0778C147.35 27.186 147.528 27.2742 147.713 27.363L137.925 58.6184C137.809 58.9798 138.014 59.3644 138.369 59.4723C138.731 59.5875 139.115 59.3825 139.223 59.0274Z" fill="#DEDEDE"/>
<path opacity="0.45" d="M115.558 47.1999C114.332 47.207 112.86 47.8605 113.342 48.1145C113.803 48.3602 114.661 47.8608 115.887 47.8537C117.114 47.8467 118.732 48.8608 118.727 48.3538C118.723 47.8468 116.784 47.1928 115.559 47.1931L115.558 47.1999Z" fill="white"/>
<path opacity="0.49" d="M189.319 46.084C188.329 46.7998 187.509 48.1921 188.055 48.1221C188.573 48.0569 188.975 47.1478 189.965 46.4252C190.956 45.7026 192.861 45.5804 192.569 45.1758C192.276 44.7711 190.309 45.3682 189.319 46.084Z" fill="white"/>
<path opacity="0.49" d="M55.9058 35.0535C54.9159 35.7693 54.0961 37.1616 54.6421 37.0916C55.1604 37.0264 55.5617 36.1174 56.5522 35.3948C57.5426 34.6722 59.4482 34.55 59.1557 34.1453C58.8632 33.7407 56.8958 34.3377 55.9058 35.0535Z" fill="white"/>
<path opacity="0.57" d="M76.0858 96.3142C75.338 97.2804 74.9506 98.8478 75.453 98.624C75.9271 98.4118 76.0599 97.4285 76.8083 96.4556C77.5566 95.4826 79.3499 94.8319 78.9478 94.522C78.5457 94.2121 76.8342 95.3413 76.0858 96.3142Z" fill="white"/>
<path opacity="0.57" d="M130.926 95.4922C130.178 96.4583 129.79 98.0257 130.293 97.8019C130.767 97.5897 130.9 96.6064 131.648 95.6335C132.396 94.6606 134.19 94.0098 133.788 93.6999C133.386 93.3901 131.674 94.5192 130.926 95.4922Z" fill="white"/>
<path d="M205.697 147.264C193.704 181.544 158.366 191.537 132.265 194.07C116.188 194.994 104.075 193.665 104.075 193.665C87.9189 191.249 74.6771 188.017 63.8505 184.432C61.5769 183.679 59.4138 182.913 57.3475 182.133C57.4668 182.094 57.6002 182.049 57.7325 182.017C69.9026 178.585 136.578 189.534 162.77 177.435C190.917 164.422 203.307 136.683 209.123 126.628C209.179 126.885 209.236 127.142 209.293 127.4C208.981 139.744 205.697 147.264 205.697 147.264Z" fill="#E4DAC6"/>
</svg>
