<svg width="466" height="512" viewBox="0 0 466 512" fill="none" xmlns="http://www.w3.org/2000/svg">
<g clip-path="url(#clip0_280_1130)">
<path d="M82.4935 275.032C82.4736 274.018 81.1209 273.68 80.6236 274.575C71.3139 291.042 24.2683 375.086 22.478 393.005C22.478 393.005 9.98557 476.811 0.218383 502.585C-0.517637 504.534 0.695801 506.662 2.76461 506.961C15.4958 508.751 53.7688 502.446 70.2198 500.398C73.5021 499.98 78.0574 495.744 78.1768 492.443C79.251 460.782 83.1897 301.045 82.4935 275.032Z" fill="#B8B9C8"/>
<path d="M151.301 286.11L152.077 477.865L145.811 500.398L157.746 504.375L196.357 341.079L155.757 283.624L151.301 286.11Z" fill="#B8B9C8"/>
<path d="M269.144 295.556L201.51 329.365L199.521 339.309L182.99 508.532H206.543L269.144 295.556Z" fill="#B8B9C8"/>
<path d="M366.141 274.237C366.141 274.237 404.414 295.377 412.968 310.691C414.32 313.097 415.773 315.424 417.424 317.631C420.666 321.947 425.5 330.001 426.674 340.761C427.768 350.804 429.956 360.688 433.835 370.015C439.723 384.255 447.103 404.938 448.177 421.484C448.615 428.286 449.888 434.988 451.619 441.59C456.413 459.867 464.708 493.019 466.021 508.452C466.2 510.461 464.489 512.151 462.48 512.012L358.801 504.674C356.553 504.514 354.743 502.804 354.464 500.577C352.515 484.846 345.552 425.501 350.724 416.89C350.724 416.89 351.759 286.746 366.161 274.257L366.141 274.237Z" fill="#A8AABC"/>
<path d="M117.963 249.616C117.963 249.616 94.0918 257.77 88.124 263.736C82.1563 269.702 58.2854 482.499 78.1778 498.409L143.823 502.386L151.78 476.533C151.78 476.533 147.801 289.312 151.78 284.479C155.758 279.646 120.131 249.636 120.131 249.636" fill="#212020"/>
<path d="M131.887 295.556C131.887 295.556 137.974 277.28 143.504 275.39C144.3 275.112 145.076 275.172 145.812 275.669C151.78 279.646 159.736 283.624 159.736 283.624C159.736 283.624 157.747 297.545 161.726 303.511C161.726 303.511 211.457 347.264 205.489 353.23C205.489 353.23 212.451 413.887 190.57 459.628C190.57 459.628 180.624 499.403 182.613 505.37C184.602 511.336 182.613 507.358 182.613 507.358L158.742 503.381C158.742 503.381 178.634 403.943 180.624 401.955C182.613 399.966 196.537 338.314 196.537 338.314L190.57 314.449C190.57 314.449 167.753 279.885 169.205 271.313L152.078 267.018C152.078 267.018 140.819 258.764 131.867 295.556H131.887Z" fill="#A8AABC"/>
<path d="M364.629 273.68C364.629 273.68 344.736 379.084 350.704 394.994C350.704 394.994 346.725 438.746 350.704 448.69C350.704 448.69 362.162 492.542 356.672 504.375L207.478 508.353L203.5 468.578L273.124 295.556L304.951 253.792L364.629 273.68Z" fill="#212020"/>
<path d="M284.064 317.612C284.064 317.612 281.08 291.559 271.134 289.57C271.134 289.57 263.177 307.469 255.22 309.458L251.242 313.435C251.242 313.435 215.435 319.501 203.5 328.391C203.5 328.391 209.567 302.278 264.212 274.038C264.212 274.038 298.984 253.753 306.941 253.753C306.941 253.753 291.027 311.804 284.064 317.592V317.612Z" fill="#A8AABC"/>
<path d="M196.358 216.305C195.046 216.185 194.031 217.398 194.409 218.651C196.498 225.652 200.874 244.585 189.277 251.088C189.277 251.088 158.742 274.316 189.058 310.711C189.177 310.87 189.356 310.989 189.515 311.069C190.132 311.427 191.942 313.077 194.389 320.634C194.747 321.748 196.04 322.265 197.055 321.689C208.314 315.185 263.694 282.57 264.967 269.603C264.987 269.325 265.067 269.066 265.206 268.808C266.758 266.262 275.829 248.801 267.136 197.928C266.877 196.437 265.047 195.88 263.993 196.954C257.408 203.756 237.078 220.083 196.358 216.265V216.305Z" fill="#CCB29D"/>
<path d="M199.52 29.0635C199.52 29.0635 147.8 27.0748 148.675 102.647C148.675 102.647 156.831 178.22 162.958 186.175C162.958 186.175 178.394 220.083 216.548 221.018C216.548 221.018 273.023 221.972 277.101 166.287C281.855 165.094 295.063 31.0523 199.52 29.0635Z" fill="#D4BFAD"/>
<path d="M202.466 108.614H198.169C196.717 108.614 195.364 107.977 194.369 106.943C192.38 104.915 187.725 101.792 178.316 102.389C176.963 102.468 175.591 102.488 174.238 102.329C171.354 101.951 164.829 102.15 158.861 109.608C158.861 109.608 158.861 99.6642 182.732 99.6642C182.732 99.6642 191.425 97.934 203.122 106.645C203.957 107.261 203.52 108.614 202.466 108.614Z" fill="#5A4A45"/>
<path d="M203.819 133.214C203.819 133.214 204.336 143.616 197.493 150.119C196.041 151.511 196.16 153.878 197.831 154.991C200.397 156.722 204.097 158.452 207.459 157.318C207.459 157.318 207.459 159.307 211.437 157.318C211.437 157.318 221.125 159.466 227.033 156.662C230.077 155.21 230.315 150.974 227.391 149.284C222.159 146.281 213.446 140.294 212.631 133.413C212.631 133.413 206.146 130.967 203.819 133.214Z" fill="#C9AE98"/>
<path d="M203.5 39.0073C193.415 43.6808 190.55 44.178 183.608 48.951C176.506 53.8434 171.573 62.932 171.672 66.8498C172.647 101.892 158.842 110.085 158.563 155.747C156.554 187.309 209.468 194.965 191.565 258.884C191.565 258.884 175.83 280.402 173.662 281.555C170.897 283.027 158.245 265.407 151.78 267.117C146.648 268.469 142.311 271.274 139.407 271.234C135.786 271.174 135.011 262.981 131.888 262.981C129.043 262.981 127.451 268.529 124.726 268.589C122.22 268.648 119.256 257.671 118.301 246.633C117.207 233.865 119.077 223.981 120.131 218.532C124.547 196.019 126.755 184.763 129.301 174.64C136.96 144.312 129.978 139.877 134.812 106.167C138.472 80.612 147.901 28.1089 179.629 13.5512C191.605 8.06228 212.313 -1.98092 215.436 3.2495C215.436 3.2495 212.591 34.7911 203.5 38.9874V39.0073Z" fill="#3A2A25"/>
<path d="M222.536 106.625H226.833C228.285 106.625 229.637 105.988 230.632 104.954C232.621 102.926 237.276 99.8034 246.685 100.4C248.038 100.48 249.41 100.499 250.763 100.34C253.648 99.9625 260.172 100.161 266.14 107.619C266.14 107.619 266.14 97.6754 242.269 97.6754C242.269 97.6754 233.576 95.9452 221.879 104.656C221.044 105.272 221.482 106.625 222.536 106.625Z" fill="#5A4A45"/>
<path d="M195.542 178.22C195.542 178.22 197.531 174.242 213.445 174.242C213.445 174.242 229.339 169.012 241.891 173.248C242.747 173.526 242.707 174.759 241.851 174.998C236.341 176.609 223.153 180.209 215.434 180.209C215.434 180.209 193.553 182.197 195.542 178.22Z" fill="#B15E58"/>
<path d="M196.835 181.183C196.716 181.183 196.656 181.322 196.735 181.422C198.168 182.774 206.383 189.973 215.414 188.164C215.414 188.164 237.157 184.206 241.235 176.311C241.235 176.271 241.235 176.251 241.195 176.251C239.803 176.45 220.348 179.214 216.469 180.189L196.835 181.183Z" fill="#BC756F"/>
<path d="M270.994 118.776C214.161 115.017 214.439 130.49 214.439 130.49C214.439 152.366 240.3 148.389 240.3 148.389C264.171 150.377 272.128 136.456 272.128 136.456C276.106 134.467 270.994 118.776 270.994 118.776ZM266.16 136.456C266.16 136.456 261.207 147.872 240.658 146.161C240.658 146.161 218.418 149.582 218.418 130.768C218.418 130.768 215.275 117.324 264.171 120.546C264.171 120.546 269.581 134.746 266.16 136.456Z" fill="black"/>
<path d="M199.52 127.507C195.542 123.529 171.671 123.529 171.671 123.529C149.789 123.529 145.811 127.507 145.811 127.507C145.811 135.462 147.8 141.428 147.8 141.428C149.789 145.406 157.746 151.372 157.746 151.372C159.735 153.361 181.617 153.361 181.617 153.361C203.499 153.361 203.837 133.214 203.837 133.214C204.175 130.967 199.52 127.507 199.52 127.507ZM181.08 151.591C181.08 151.591 161.963 151.591 160.213 149.86C160.213 149.86 153.25 144.65 151.52 141.169C151.52 141.169 149.789 135.959 149.789 128.998C149.789 128.998 153.27 125.518 172.387 125.518C172.387 125.518 193.254 125.518 196.735 128.998C196.735 128.998 200.793 132.041 200.495 133.99C200.495 133.99 200.196 151.591 181.08 151.591Z" fill="black"/>
<path d="M287.047 105.63V115.236L271.133 135.462C271.133 135.462 271.133 119.552 269.144 119.552C267.154 119.552 287.047 105.63 287.047 105.63Z" fill="black"/>
<path d="M196.537 126.731C196.537 126.731 210.144 128.541 221.403 124.543C221.403 124.543 212.272 129.396 215.873 133.433C215.873 133.433 208.274 130.987 203.082 133.234C203.082 133.234 200.018 127.964 196.557 126.751L196.537 126.731Z" fill="black"/>
<path d="M146.408 127.089C146.408 127.089 156.016 117.205 158.304 112.591C158.304 112.591 165.684 112.591 153.987 126.512L146.408 127.089Z" fill="black"/>
<path d="M217.981 3.38871C235.625 -9.25976 280.145 17.2304 285.794 23.0177C298.824 32.5239 303.598 53.6842 322.675 98.0931C348.734 158.79 353.886 160.023 358.72 195.681C359.655 223.504 347.66 225.413 347.023 225.91C346.227 226.527 346.705 228.237 330.91 232.413C318.537 235.675 325.679 243.133 318.557 242.775C311.296 242.417 314.081 253.415 308.014 253.077C298.207 252.54 282.154 274.336 270.616 274.217C265.643 274.177 278.454 266.68 273.441 250.252C269.025 235.754 262.043 228.714 263.196 217.975C263.813 212.188 268.746 193.812 269.9 189.973C275.41 171.637 278.514 152.664 278.315 133.533C278.016 104.736 273.938 101.792 258.343 81.4472C255.896 78.2453 253.807 74.7849 251.917 71.2051C243.563 55.3548 223.392 46.9424 211.456 36.9986C209.507 35.3877 209.487 27.1742 209.726 24.4695C210.283 18.006 212.471 7.18722 217.981 3.34893V3.38871Z" fill="#4E3E39"/>
<path d="M217.424 33.041C217.424 33.041 241.295 50.9398 251.241 52.9285C261.187 54.9173 223.392 33.041 217.424 33.041Z" fill="#3A2A25"/>
<path d="M169.801 66.8299C169.801 66.8299 167.871 96.6015 162.898 105.451C157.945 114.301 165.902 71.3642 169.801 66.8299Z" fill="#4E3E39"/>
<path d="M181.738 204.054C181.738 204.054 192.141 233.905 190.132 240.905C188.123 247.906 179.152 207.077 181.738 204.054Z" fill="#4E3E39"/>
<path d="M317.523 111.02C317.523 111.02 342.747 164.299 350.465 180.547C359.198 198.982 327.131 118.299 317.523 111.02Z" fill="#3A2A25"/>
<path d="M285.059 154.355C285.059 154.355 271.711 201.429 269.145 221.972C267.156 237.882 295.005 130.49 285.059 154.355Z" fill="#3A2A25"/>
<path d="M135.866 170.265C135.866 170.265 122.518 217.339 119.952 237.882C117.962 253.792 145.812 146.4 135.866 170.265Z" fill="#4E3E39"/>
<path d="M271.133 70.8273C271.133 70.8273 289.036 89.9193 293.014 123.33C296.993 156.741 293.014 124.524 293.014 124.524C293.014 124.524 304.95 154.355 296.993 190.152C296.993 190.152 302.961 132.876 298.982 123.33C298.982 123.33 285.058 77.9868 271.133 70.8273Z" fill="#3A2A25"/>
<path d="M319.513 239.434C319.513 239.434 314.898 223.961 322.855 208.051C322.855 208.051 320.865 216.006 320.865 223.961C320.865 223.961 322.138 244.962 319.513 239.434Z" fill="#3A2A25"/>
<path d="M275.111 271.691C275.111 271.691 283.585 257.074 279.448 239.772C279.448 239.772 279.388 240.746 279.329 242.556C279.03 250.253 277.856 257.889 276.046 265.367C275.509 267.575 275.131 269.842 275.131 271.691H275.111Z" fill="#3A2A25"/>
<path d="M221.642 5.99398C224.905 4.88028 226.138 5.19848 233.339 5.19848C237.318 5.19848 243.703 6.47128 245.275 6.88892C253.132 8.93733 272.109 13.9888 279.271 21.4466C280.007 22.2023 279.131 23.316 278.017 23.0575C267.176 20.4522 243.285 3.50804 221.424 8.30093C220.21 8.55947 220.469 6.39173 221.642 5.99398Z" fill="#3A2A25"/>
<path d="M210.761 3.78645C207.538 4.10465 206.484 4.72117 199.939 7.04801C196.319 8.34069 190.829 11.2642 189.496 12.0398C182.832 15.9576 166.799 25.4639 162.064 32.7626C161.587 33.4984 162.641 33.9558 163.576 33.4189C172.806 28.1686 190.49 9.15608 211.497 5.25813C212.67 5.03937 211.915 3.66713 210.761 3.78645Z" fill="#4E3E39"/>
<path d="M144.201 213.162C143.823 227.282 139.387 251.585 139.268 265.466C139.268 267.137 140.64 267.594 140.76 265.944C141.694 253.574 146.508 229.709 145.733 213.381C145.653 211.75 144.261 211.512 144.221 213.162H144.201Z" fill="#4E3E39"/>
<path d="M166.003 260.117C166.54 264.532 172.886 272.109 173.085 276.444C173.104 276.961 171.115 277.101 170.936 276.584C169.584 272.725 162.721 265.268 163.835 260.176C163.954 259.659 165.943 259.6 166.003 260.117Z" fill="#4E3E39"/>
<path d="M148.676 69.4153C148.676 69.4153 137.755 93.2803 136.82 119.85C136.82 119.85 145.812 82.7797 148.676 69.4153Z" fill="#4E3E39"/>
</g>
<defs>
<clipPath id="clip0_280_1130">
<rect width="466" height="512" fill="white"/>
</clipPath>
</defs>
</svg>
