<svg width="342" height="730" viewBox="0 0 342 730" fill="none" xmlns="http://www.w3.org/2000/svg">
<g clip-path="url(#clip0_280_1167)">
<path d="M238.731 573.333C238.731 573.333 156.065 668.725 139.387 681.385C139.387 681.385 115.196 696.553 142.742 724.13H215.366C241.21 702.845 290.644 600.459 238.731 573.308V573.333Z" fill="#B8B9C8"/>
<path d="M92.6584 684.043C92.6584 684.043 62.6073 706.606 50.0859 726.662L102.951 726.787L125.214 684.043C125.214 684.043 107.684 689.057 92.6584 684.043Z" fill="#B8B9C8"/>
<path d="M116.498 683.942C116.498 683.942 91.3297 725.133 101.222 726.06L135.204 729.194L136.156 676.547C136.156 676.547 115.295 688.706 116.472 683.967L116.498 683.942Z" fill="#212020"/>
<path d="M324.203 397.516C324.203 397.516 305.646 472.225 304.745 510.758C303.743 553.126 340.881 365.527 324.203 397.516Z" fill="#3A2A25"/>
<path d="M360.74 585.166C360.74 585.166 337.375 649.07 334.921 682.263C332.241 718.765 380.398 558.065 360.74 585.166Z" fill="#3A2A25"/>
<path d="M130.223 99.9082C130.223 99.9082 139.513 102.415 149.906 99.9082C149.906 99.9082 170.291 94.8942 210.359 135.006C210.359 135.006 227.889 155.063 245.419 167.598C245.419 167.598 213.865 114.549 184.565 99.7076C184.565 99.7076 155.265 89.8801 130.223 99.9082Z" fill="#3A2A25"/>
<path d="M95.3867 480.222C95.3867 480.222 63.8581 601.612 70.6446 659.399C71.5962 667.496 77.7818 674.441 85.8956 674.992C86.7721 675.042 87.6736 675.268 88.6002 675.719C90.1779 676.472 91.3799 677.85 92.2314 679.38C94.4101 683.266 100.846 692.817 111.088 692.817C111.088 692.817 138.961 695.324 151.482 662.733C151.482 662.733 158.67 645.46 170.865 627.284C177.952 616.729 186.767 607.453 196.809 599.632C210.082 589.278 230.442 574.988 241.636 574.988C241.636 574.988 202.018 523.343 95.3617 480.222H95.3867Z" fill="#3A2A25"/>
<path d="M97.6663 501.031C97.6663 501.031 70.1194 611.339 77.6322 656.466C77.6322 656.466 105.179 518.58 97.6663 501.031Z" fill="#4E3E39"/>
<path d="M163.479 617.005C163.479 617.005 147.401 676.547 126.816 688.38C126.816 688.38 152.034 618.559 163.479 617.005Z" fill="#4E3E39"/>
<path d="M231.369 562.001C231.369 562.001 265.452 593.79 257.939 633.902C257.939 633.902 252.931 676.522 220.375 701.592C220.375 701.592 217.871 719.141 225.384 726.662C232.897 734.183 226.861 726.662 226.861 726.662L310.804 729.169C310.804 729.169 365.623 711.62 383.152 679.029C400.682 646.438 383.152 676.321 383.152 676.321C383.152 676.321 378.469 488.22 353.252 465.782L231.344 562.001H231.369Z" fill="#CCB29D"/>
<path d="M137.81 93.6407C137.81 93.6407 75.1286 117.457 70.12 175.119C70.12 175.119 66.5139 197.933 64.2851 220.521C62.2066 241.504 68.317 262.338 80.7131 279.36C85.1206 285.402 88.9271 292.472 90.029 299.742C90.1041 300.244 90.1291 300.77 90.079 301.272C89.7785 306.01 87.6499 330.478 76.556 344.091C76.4058 344.267 76.2805 344.443 76.1804 344.618C73.601 348.729 45.2527 394.859 66.564 403.232C66.564 403.232 78.4843 409.274 91.1308 409.901C95.1627 410.101 98.1177 413.786 97.4416 417.773C95.3881 429.806 92.1075 451.066 93.9106 454.626C93.9106 454.626 107.834 498.749 120.03 508.777C120.982 509.58 121.683 510.607 122.084 511.786C125.289 521.413 141.166 562.728 176.551 564.96C176.551 564.96 243.841 572.455 276.471 540.14C276.622 539.99 276.797 539.839 276.972 539.689C281.831 535.928 352 481.351 356.833 457.158C361.667 432.965 326.782 251.583 296.731 226.512C266.68 201.442 214.266 53.5285 137.81 93.6407Z" fill="#D4BFAD"/>
<path d="M120.681 69.5483C120.681 69.5483 93.9107 75.164 86.3979 109.485C86.3979 109.485 83.8937 118.711 76.3809 146.288C76.3809 146.288 103.903 108.608 112.693 104.872C112.693 104.872 114.921 75.515 120.706 69.5232L120.681 69.5483Z" fill="#3A2A25"/>
<path d="M97.8909 457.709C98.7424 457.81 99.4686 458.085 99.8693 458.662C99.8693 458.662 110.187 449.637 172.793 467.186C172.793 467.186 117.7 474.707 102.674 469.693C91.1044 465.832 91.5051 466.735 91.6804 463.225C91.8557 459.966 94.6604 457.333 97.8909 457.709Z" fill="#B15E58"/>
<path d="M175.298 467.186C175.298 467.186 98.1671 474.707 95.4124 467.186C93.7847 462.749 91.3806 469.618 92.232 477.038C93.0835 484.459 100.196 489.925 107.784 489.022C121.933 487.367 152.81 482.178 175.298 467.186Z" fill="#BC756F"/>
<path d="M318.817 264.895L171.792 303.904C168.686 304.731 167.059 307.915 168.311 310.723L179.48 335.618C180.406 337.648 182.886 338.626 185.064 337.749L325.579 282.419L318.842 264.87L318.817 264.895Z" fill="black"/>
<path d="M83.8424 308.041C83.8424 308.041 83.8424 307.99 83.8174 307.99C81.864 308.743 41.0696 324.411 36.2363 323.709C31.4031 323.007 2.50391 331.757 2.50391 336.771C2.50391 341.459 9.11516 366.003 11.9951 369.061C12.1954 369.262 12.3707 369.362 12.521 369.362C15.0252 369.362 61.6546 345.821 61.6546 345.821L80.1361 334.264C80.1361 334.264 80.1361 314.358 83.8424 308.016V308.041Z" fill="#131312"/>
<path d="M167.786 304.23C167.786 304.23 120.205 296.709 102.675 306.737C102.675 306.737 77.6322 319.272 75.1279 331.807C75.0278 332.309 74.9526 332.71 74.8525 333.161C73.8758 333.412 70.0192 334.189 63.1325 333.086C63.1325 333.086 20.0341 309.244 0 334.314C0 334.314 7.51279 379.441 27.5469 389.469C27.5469 389.469 52.9401 400.274 55.2691 393.605C56.947 388.817 54.8183 396.563 58.1741 381.697C48.4074 406.742 26.3198 383.201 26.3198 383.201C8.78997 370.666 5.03357 336.821 5.03357 336.821C22.5634 316.765 62.6316 339.328 62.6316 339.328C62.9572 350.384 62.5816 359.309 61.68 366.454C62.6567 362.292 63.7836 357.504 65.1359 351.863C65.1359 351.863 71.0961 341.284 79.3852 341.56C79.3852 341.56 96.6646 390.496 132.225 381.22C132.225 381.22 162.802 384.455 180.332 344.342V343.014C180.332 343.014 180.808 346.899 184.339 333.086L167.811 304.23H167.786ZM165.281 359.384C139.938 384.755 112.692 374.426 112.692 374.426C90.1535 369.412 82.6407 331.807 82.6407 331.807C92.6578 299.216 150.256 311.751 150.256 311.751C167.786 321.779 165.281 357.98 165.281 357.98C165.281 357.98 166.534 358.131 165.281 359.384Z" fill="black"/>
<path d="M61.6544 366.454C60.0767 373.148 58.9498 378.112 58.1484 381.697C59.651 377.861 60.853 372.872 61.6544 366.454Z" fill="black"/>
<path d="M119.078 254.265L127.017 253.789C129.696 253.639 132.1 252.184 133.828 249.953C137.259 245.541 145.448 238.647 162.878 238.822C165.382 238.847 167.936 238.747 170.39 238.22C175.674 237.142 199.791 240.276 211.736 254.942C211.736 254.942 198.463 231 154.413 233.658C154.413 233.658 138.161 231.05 117.651 250.254C116.173 251.633 117.15 254.366 119.078 254.24V254.265Z" fill="#5A4A45"/>
<path d="M91.0803 267.026C91.0803 267.026 76.4804 264.393 71.0211 266.274C65.5618 268.154 65.1361 260.232 61.1543 252.31C61.1543 252.31 86.2721 257.875 91.0803 267.026Z" fill="#5A4A45"/>
<path d="M89.0762 402.58C89.7523 399.772 82.8155 394.282 75.9037 394.608C75.3778 394.633 70.4194 394.859 69.8685 396.939C69.1172 399.772 76.63 405.915 83.8172 405.062C84.5184 404.987 88.6004 404.511 89.0762 402.58Z" fill="#AF9B95"/>
<path d="M147.752 107.429C166.71 105.424 192.704 132.775 215.367 155.063C215.367 155.063 354.154 263.942 321.273 365.978C315.638 383.477 310.58 401.126 307.249 419.177C297.482 472.376 282.156 570.3 288.116 634.003C290.721 661.781 310.029 685.146 336.824 692.792L341.808 685.798C345.79 680.207 349.296 674.291 352.651 668.299C356.458 661.48 360.615 658.772 370.582 656.19C370.582 656.19 371.709 658.496 372.31 661.806C374.188 672.009 383.454 679.204 393.771 678.402C405.817 677.449 420.291 674.09 433.113 664.964C436.87 662.307 441.978 665.366 441.427 669.953C441.027 673.288 444.232 675.92 447.413 674.867L447.938 674.692C459.959 670.705 469.049 660.778 471.979 648.443C473.607 641.649 478.29 636.008 484.676 633.15L487.406 631.947C494.593 628.738 502.757 634.805 501.304 642.552C501.304 642.627 501.279 642.702 501.254 642.777C500.703 645.435 503.383 647.541 505.787 646.337C515.654 641.424 531.906 631.696 543.601 616.454C551.815 605.724 561.682 596.347 573.202 589.278C581.441 584.214 590.531 577.67 597.017 570.299C603.503 562.929 611.642 558.842 620.883 557.664C629.923 556.511 640.241 553.127 644.724 544.202C645.65 542.371 646.001 540.291 646.001 538.235C645.951 522.315 644.648 441.915 622.736 401.226C615.649 388.065 609.489 374.452 604.981 360.212C600.473 345.972 595.264 327.971 591.308 310.498C577.609 249.828 555.797 191.239 525.32 137.037C501.154 94.0419 473.407 52.6762 449.391 37.4335C447.488 36.2302 445.66 34.8764 443.831 33.5477C428.38 22.216 356.007 -23.0357 230.042 14.8704C227.939 15.4972 225.785 16.0236 223.606 16.3997C209.407 18.8315 148.178 31.6173 123.912 73.5847C104.979 106.326 115.172 113.521 122.66 109.936C131.024 105.925 138.487 108.407 147.702 107.429H147.752Z" fill="#4E3E39"/>
<path d="M265.451 9.6558C265.451 9.6558 348.092 -5.38628 443.254 59.7961C443.254 59.7961 495.843 92.3873 553.442 202.696C553.442 202.696 594.812 304.606 592.909 333.888C592.909 333.888 500.852 -7.8933 265.451 9.6558Z" fill="#3A2A25"/>
<path d="M132.726 98.8303C132.726 98.8303 140.239 102.415 145.248 99.9083C145.248 99.9083 179.882 102.34 198.864 124.928C198.864 124.928 225.058 158.121 242.739 165.367C242.739 165.367 185.291 72.6822 132.701 98.8303H132.726Z" fill="#3A2A25"/>
<path d="M308.025 533.622C308.025 527.781 314.561 423.965 313.635 429.706C304.97 483.757 285.487 581.255 299.686 647.165C315.663 721.347 307.825 623.273 308.025 533.622Z" fill="#3A2A25"/>
</g>
<defs>
<clipPath id="clip0_280_1167">
<rect width="646" height="730" fill="white"/>
</clipPath>
</defs>
</svg>
