<svg width="1512" height="512" viewBox="0 0 1512 512" fill="none" xmlns="http://www.w3.org/2000/svg">
<path d="M-47 379.925C-38.7904 379.925 -31.3339 382.394 -23.3165 383.604C-6.26813 386.177 12.3987 384.064 29.5688 384.064C49.8602 384.064 66.9411 380.347 85.9033 373.257C114.253 362.656 144.11 354.605 173.049 345.664C261.253 318.414 358.372 305.982 446.444 338.076C470.833 346.964 495.214 356.076 518.874 366.818C544.516 378.461 567.968 392.599 594.753 401.769C646.404 419.451 709.022 436.547 761.687 413.036C772.991 407.989 794.036 401.897 796.867 387.743C797.373 385.214 799.488 371.882 795.257 371.647C789.632 371.335 786.82 371.806 782.841 375.786C781.259 377.368 777.245 385.213 775.023 385.213C773.337 385.213 776.908 365.439 768.355 365.439C760.808 365.439 751.799 362.338 751.799 371.647C751.799 410 788.372 440.122 822.85 451.895C866.374 466.757 909.217 468.91 954.603 468.91C1027.6 468.91 1099.49 459.182 1171.43 447.756C1244.31 436.182 1316.36 429.351 1390.1 429.591C1428.32 429.716 1466.89 432.401 1504.15 441.548C1515.65 444.371 1528.03 448.332 1538.18 454.424" stroke="#3D5C6E" stroke-width="3" stroke-linecap="round" stroke-dasharray="6 6"/>
<g clip-path="url(#clip0_285_274)">
<path d="M1021.49 275.032C1021.47 274.018 1020.12 273.68 1019.62 274.575C1010.31 291.042 963.268 375.086 961.478 393.005C961.478 393.005 948.986 476.811 939.218 502.585C938.482 504.534 939.696 506.662 941.765 506.961C954.496 508.751 992.769 502.446 1009.22 500.398C1012.5 499.98 1017.06 495.744 1017.18 492.443C1018.25 460.782 1022.19 301.045 1021.49 275.032Z" fill="#B8B9C8"/>
<path d="M1090.3 286.11L1091.08 477.865L1084.81 500.398L1096.75 504.375L1135.36 341.079L1094.76 283.624L1090.3 286.11Z" fill="#B8B9C8"/>
<path d="M1208.14 295.556L1140.51 329.365L1138.52 339.309L1121.99 508.532H1145.54L1208.14 295.556Z" fill="#B8B9C8"/>
<path d="M1305.14 274.237C1305.14 274.237 1343.41 295.377 1351.97 310.691C1353.32 313.097 1354.77 315.424 1356.42 317.631C1359.67 321.947 1364.5 330.001 1365.67 340.761C1366.77 350.804 1368.96 360.688 1372.83 370.015C1378.72 384.255 1386.1 404.938 1387.18 421.484C1387.62 428.286 1388.89 434.988 1390.62 441.59C1395.41 459.867 1403.71 493.019 1405.02 508.452C1405.2 510.461 1403.49 512.151 1401.48 512.012L1297.8 504.674C1295.55 504.514 1293.74 502.804 1293.46 500.577C1291.51 484.846 1284.55 425.501 1289.72 416.89C1289.72 416.89 1290.76 286.746 1305.16 274.257L1305.14 274.237Z" fill="#A8AABC"/>
<path d="M1056.96 249.616C1056.96 249.616 1033.09 257.77 1027.12 263.736C1021.16 269.702 997.285 482.499 1017.18 498.409L1082.82 502.386L1090.78 476.533C1090.78 476.533 1086.8 289.312 1090.78 284.479C1094.76 279.646 1059.13 249.636 1059.13 249.636" fill="#212020"/>
<path d="M1070.89 295.556C1070.89 295.556 1076.97 277.28 1082.5 275.39C1083.3 275.112 1084.08 275.172 1084.81 275.669C1090.78 279.646 1098.74 283.624 1098.74 283.624C1098.74 283.624 1096.75 297.545 1100.73 303.511C1100.73 303.511 1150.46 347.264 1144.49 353.23C1144.49 353.23 1151.45 413.887 1129.57 459.628C1129.57 459.628 1119.62 499.403 1121.61 505.37C1123.6 511.336 1121.61 507.358 1121.61 507.358L1097.74 503.381C1097.74 503.381 1117.63 403.943 1119.62 401.955C1121.61 399.966 1135.54 338.314 1135.54 338.314L1129.57 314.449C1129.57 314.449 1106.75 279.885 1108.21 271.313L1091.08 267.018C1091.08 267.018 1079.82 258.764 1070.87 295.556H1070.89Z" fill="#A8AABC"/>
<path d="M1303.63 273.68C1303.63 273.68 1283.74 379.084 1289.7 394.994C1289.7 394.994 1285.73 438.746 1289.7 448.69C1289.7 448.69 1301.16 492.542 1295.67 504.375L1146.48 508.353L1142.5 468.578L1212.12 295.556L1243.95 253.792L1303.63 273.68Z" fill="#212020"/>
<path d="M1223.06 317.612C1223.06 317.612 1220.08 291.559 1210.13 289.57C1210.13 289.57 1202.18 307.469 1194.22 309.458L1190.24 313.435C1190.24 313.435 1154.44 319.501 1142.5 328.391C1142.5 328.391 1148.57 302.278 1203.21 274.038C1203.21 274.038 1237.98 253.753 1245.94 253.753C1245.94 253.753 1230.03 311.804 1223.06 317.592V317.612Z" fill="#A8AABC"/>
<path d="M1135.36 216.305C1134.05 216.185 1133.03 217.398 1133.41 218.651C1135.5 225.652 1139.87 244.585 1128.28 251.088C1128.28 251.088 1097.74 274.316 1128.06 310.711C1128.18 310.87 1128.36 310.989 1128.52 311.069C1129.13 311.427 1130.94 313.077 1133.39 320.634C1133.75 321.748 1135.04 322.265 1136.05 321.689C1147.31 315.185 1202.69 282.57 1203.97 269.603C1203.99 269.325 1204.07 269.066 1204.21 268.808C1205.76 266.262 1214.83 248.801 1206.14 197.928C1205.88 196.437 1204.05 195.88 1202.99 196.954C1196.41 203.756 1176.08 220.083 1135.36 216.265V216.305Z" fill="#CCB29D"/>
<path d="M1138.52 29.0635C1138.52 29.0635 1086.8 27.0748 1087.68 102.647C1087.68 102.647 1095.83 178.22 1101.96 186.175C1101.96 186.175 1117.39 220.083 1155.55 221.018C1155.55 221.018 1212.02 221.972 1216.1 166.287C1220.85 165.094 1234.06 31.0523 1138.52 29.0635Z" fill="#D4BFAD"/>
<path d="M1141.47 108.614H1137.17C1135.72 108.614 1134.36 107.977 1133.37 106.943C1131.38 104.915 1126.73 101.792 1117.32 102.389C1115.96 102.468 1114.59 102.488 1113.24 102.329C1110.35 101.951 1103.83 102.15 1097.86 109.608C1097.86 109.608 1097.86 99.6642 1121.73 99.6642C1121.73 99.6642 1130.43 97.934 1142.12 106.645C1142.96 107.261 1142.52 108.614 1141.47 108.614Z" fill="#5A4A45"/>
<path d="M1142.82 133.214C1142.82 133.214 1143.34 143.616 1136.49 150.119C1135.04 151.511 1135.16 153.878 1136.83 154.991C1139.4 156.722 1143.1 158.452 1146.46 157.318C1146.46 157.318 1146.46 159.307 1150.44 157.318C1150.44 157.318 1160.12 159.466 1166.03 156.662C1169.08 155.21 1169.32 150.974 1166.39 149.284C1161.16 146.281 1152.45 140.294 1151.63 133.413C1151.63 133.413 1145.15 130.967 1142.82 133.214Z" fill="#C9AE98"/>
<path d="M1142.5 39.0073C1132.41 43.6808 1129.55 44.178 1122.61 48.951C1115.51 53.8434 1110.57 62.932 1110.67 66.8498C1111.65 101.892 1097.84 110.085 1097.56 155.747C1095.55 187.309 1148.47 194.965 1130.56 258.884C1130.56 258.884 1114.83 280.402 1112.66 281.555C1109.9 283.027 1097.24 265.407 1090.78 267.117C1085.65 268.469 1081.31 271.274 1078.41 271.234C1074.79 271.174 1074.01 262.981 1070.89 262.981C1068.04 262.981 1066.45 268.529 1063.73 268.589C1061.22 268.648 1058.26 257.671 1057.3 246.633C1056.21 233.865 1058.08 223.981 1059.13 218.532C1063.55 196.019 1065.76 184.763 1068.3 174.64C1075.96 144.312 1068.98 139.877 1073.81 106.167C1077.47 80.612 1086.9 28.1089 1118.63 13.5512C1130.6 8.06228 1151.31 -1.98092 1154.44 3.2495C1154.44 3.2495 1151.59 34.7911 1142.5 38.9874V39.0073Z" fill="#3A2A25"/>
<path d="M1161.54 106.625H1165.83C1167.28 106.625 1168.64 105.988 1169.63 104.954C1171.62 102.926 1176.28 99.8034 1185.69 100.4C1187.04 100.48 1188.41 100.499 1189.76 100.34C1192.65 99.9625 1199.17 100.161 1205.14 107.619C1205.14 107.619 1205.14 97.6754 1181.27 97.6754C1181.27 97.6754 1172.58 95.9452 1160.88 104.656C1160.04 105.272 1160.48 106.625 1161.54 106.625Z" fill="#5A4A45"/>
<path d="M1134.54 178.22C1134.54 178.22 1136.53 174.242 1152.45 174.242C1152.45 174.242 1168.34 169.012 1180.89 173.248C1181.75 173.526 1181.71 174.759 1180.85 174.998C1175.34 176.609 1162.15 180.209 1154.43 180.209C1154.43 180.209 1132.55 182.197 1134.54 178.22Z" fill="#B15E58"/>
<path d="M1135.83 181.183C1135.72 181.183 1135.66 181.322 1135.74 181.422C1137.17 182.774 1145.38 189.973 1154.41 188.164C1154.41 188.164 1176.16 184.206 1180.23 176.311C1180.23 176.271 1180.23 176.251 1180.2 176.251C1178.8 176.45 1159.35 179.214 1155.47 180.189L1135.83 181.183Z" fill="#BC756F"/>
<path d="M1209.99 118.776C1153.16 115.017 1153.44 130.49 1153.44 130.49C1153.44 152.366 1179.3 148.389 1179.3 148.389C1203.17 150.377 1211.13 136.456 1211.13 136.456C1215.11 134.467 1209.99 118.776 1209.99 118.776ZM1205.16 136.456C1205.16 136.456 1200.21 147.872 1179.66 146.161C1179.66 146.161 1157.42 149.582 1157.42 130.768C1157.42 130.768 1154.27 117.324 1203.17 120.546C1203.17 120.546 1208.58 134.746 1205.16 136.456Z" fill="black"/>
<path d="M1138.52 127.507C1134.54 123.529 1110.67 123.529 1110.67 123.529C1088.79 123.529 1084.81 127.507 1084.81 127.507C1084.81 135.462 1086.8 141.428 1086.8 141.428C1088.79 145.406 1096.75 151.372 1096.75 151.372C1098.74 153.361 1120.62 153.361 1120.62 153.361C1142.5 153.361 1142.84 133.214 1142.84 133.214C1143.17 130.967 1138.52 127.507 1138.52 127.507ZM1120.08 151.591C1120.08 151.591 1100.96 151.591 1099.21 149.86C1099.21 149.86 1092.25 144.65 1090.52 141.169C1090.52 141.169 1088.79 135.959 1088.79 128.998C1088.79 128.998 1092.27 125.518 1111.39 125.518C1111.39 125.518 1132.25 125.518 1135.74 128.998C1135.74 128.998 1139.79 132.041 1139.49 133.99C1139.49 133.99 1139.2 151.591 1120.08 151.591Z" fill="black"/>
<path d="M1226.05 105.63V115.236L1210.13 135.462C1210.13 135.462 1210.13 119.552 1208.14 119.552C1206.15 119.552 1226.05 105.63 1226.05 105.63Z" fill="black"/>
<path d="M1135.54 126.731C1135.54 126.731 1149.14 128.541 1160.4 124.543C1160.4 124.543 1151.27 129.396 1154.87 133.433C1154.87 133.433 1147.27 130.987 1142.08 133.234C1142.08 133.234 1139.02 127.964 1135.56 126.751L1135.54 126.731Z" fill="black"/>
<path d="M1085.41 127.089C1085.41 127.089 1095.02 117.205 1097.3 112.591C1097.3 112.591 1104.68 112.591 1092.99 126.512L1085.41 127.089Z" fill="black"/>
<path d="M1156.98 3.38871C1174.63 -9.25976 1219.14 17.2304 1224.79 23.0177C1237.82 32.5239 1242.6 53.6842 1261.67 98.0931C1287.73 158.79 1292.89 160.023 1297.72 195.681C1298.65 223.504 1286.66 225.413 1286.02 225.91C1285.23 226.527 1285.7 228.237 1269.91 232.413C1257.54 235.675 1264.68 243.133 1257.56 242.775C1250.3 242.417 1253.08 253.415 1247.01 253.077C1237.21 252.54 1221.15 274.336 1209.62 274.217C1204.64 274.177 1217.45 266.68 1212.44 250.252C1208.02 235.754 1201.04 228.714 1202.2 217.975C1202.81 212.188 1207.75 193.812 1208.9 189.973C1214.41 171.637 1217.51 152.664 1217.31 133.533C1217.02 104.736 1212.94 101.792 1197.34 81.4472C1194.9 78.2453 1192.81 74.7849 1190.92 71.2051C1182.56 55.3548 1162.39 46.9424 1150.46 36.9986C1148.51 35.3877 1148.49 27.1742 1148.73 24.4695C1149.28 18.006 1151.47 7.18722 1156.98 3.34893V3.38871Z" fill="#4E3E39"/>
<path d="M1156.42 33.041C1156.42 33.041 1180.29 50.9398 1190.24 52.9285C1200.19 54.9173 1162.39 33.041 1156.42 33.041Z" fill="#3A2A25"/>
<path d="M1108.8 66.8299C1108.8 66.8299 1106.87 96.6015 1101.9 105.451C1096.95 114.301 1104.9 71.3642 1108.8 66.8299Z" fill="#4E3E39"/>
<path d="M1120.74 204.054C1120.74 204.054 1131.14 233.905 1129.13 240.905C1127.12 247.906 1118.15 207.077 1120.74 204.054Z" fill="#4E3E39"/>
<path d="M1256.52 111.02C1256.52 111.02 1281.75 164.299 1289.47 180.547C1298.2 198.982 1266.13 118.299 1256.52 111.02Z" fill="#3A2A25"/>
<path d="M1224.06 154.355C1224.06 154.355 1210.71 201.429 1208.15 221.972C1206.16 237.882 1234.01 130.49 1224.06 154.355Z" fill="#3A2A25"/>
<path d="M1074.87 170.265C1074.87 170.265 1061.52 217.339 1058.95 237.882C1056.96 253.792 1084.81 146.4 1074.87 170.265Z" fill="#4E3E39"/>
<path d="M1210.13 70.8273C1210.13 70.8273 1228.04 89.9193 1232.01 123.33C1235.99 156.741 1232.01 124.524 1232.01 124.524C1232.01 124.524 1243.95 154.355 1235.99 190.152C1235.99 190.152 1241.96 132.876 1237.98 123.33C1237.98 123.33 1224.06 77.9868 1210.13 70.8273Z" fill="#3A2A25"/>
<path d="M1258.51 239.434C1258.51 239.434 1253.9 223.961 1261.85 208.051C1261.85 208.051 1259.87 216.006 1259.87 223.961C1259.87 223.961 1261.14 244.962 1258.51 239.434Z" fill="#3A2A25"/>
<path d="M1214.11 271.691C1214.11 271.691 1222.59 257.074 1218.45 239.772C1218.45 239.772 1218.39 240.746 1218.33 242.556C1218.03 250.253 1216.86 257.889 1215.05 265.367C1214.51 267.575 1214.13 269.842 1214.13 271.691H1214.11Z" fill="#3A2A25"/>
<path d="M1160.64 5.99398C1163.9 4.88028 1165.14 5.19848 1172.34 5.19848C1176.32 5.19848 1182.7 6.47128 1184.27 6.88892C1192.13 8.93733 1211.11 13.9888 1218.27 21.4466C1219.01 22.2023 1218.13 23.316 1217.02 23.0575C1206.18 20.4522 1182.29 3.50804 1160.42 8.30093C1159.21 8.55947 1159.47 6.39173 1160.64 5.99398Z" fill="#3A2A25"/>
<path d="M1149.76 3.78645C1146.54 4.10465 1145.48 4.72117 1138.94 7.04801C1135.32 8.34069 1129.83 11.2642 1128.5 12.0398C1121.83 15.9576 1105.8 25.4639 1101.06 32.7626C1100.59 33.4984 1101.64 33.9558 1102.58 33.4189C1111.81 28.1686 1129.49 9.15608 1150.5 5.25813C1151.67 5.03937 1150.91 3.66713 1149.76 3.78645Z" fill="#4E3E39"/>
<path d="M1083.2 213.162C1082.82 227.282 1078.39 251.585 1078.27 265.466C1078.27 267.137 1079.64 267.594 1079.76 265.944C1080.69 253.574 1085.51 229.709 1084.73 213.381C1084.65 211.75 1083.26 211.512 1083.22 213.162H1083.2Z" fill="#4E3E39"/>
<path d="M1105 260.117C1105.54 264.532 1111.89 272.109 1112.08 276.444C1112.1 276.961 1110.12 277.101 1109.94 276.584C1108.58 272.725 1101.72 265.268 1102.83 260.176C1102.95 259.659 1104.94 259.6 1105 260.117Z" fill="#4E3E39"/>
<path d="M1087.68 69.4153C1087.68 69.4153 1076.76 93.2803 1075.82 119.85C1075.82 119.85 1084.81 82.7797 1087.68 69.4153Z" fill="#4E3E39"/>
</g>
<defs>
<clipPath id="clip0_285_274">
<rect width="466" height="512" fill="white" transform="translate(939)"/>
</clipPath>
</defs>
</svg>
