<svg width="263" height="174" viewBox="0 0 263 174" fill="none" xmlns="http://www.w3.org/2000/svg">
<path d="M187.502 37.5034C186.862 41.663 185.748 44.9546 184.827 47.2124C183.684 50.0128 182.065 53.982 178.519 57.6828C177.196 59.063 175.071 60.4623 170.874 63.2036C164.654 67.2662 161.384 69.4021 156.73 71.58C152.424 73.596 149.041 74.6583 147.364 75.1971C140.036 77.5482 127.263 82.0695 104.55 90.6172C72.9502 104.452 41.3482 118.284 9.74805 132.118C9.80921 132.446 10.2622 134.688 12.4239 135.926C14.2359 136.961 16.0268 136.592 16.4377 136.497C20.8453 136.099 26.9596 135.459 34.2132 134.403C40.899 133.43 57.6653 130.778 78.9385 124.694C92.6217 120.78 102.647 117.026 108.564 114.794C124.832 108.661 134.413 103.863 140.292 100.707C152.043 94.398 156.841 90.4383 160.553 86.429C162.621 84.196 163.477 82.8881 166.478 79.9564C170.476 76.048 175.039 71.6695 182.151 68.7244C184.456 67.7688 187.258 66.6341 191.134 66.2496C194.775 65.8879 197.894 66.3353 203.94 67.2014C206.755 67.605 208.745 68.001 212.159 68.1533C214.339 68.2504 216.136 68.2066 217.319 68.1533C217.161 67.9896 205.165 57.3706 201.685 54.0049C198.204 50.6391 187.653 37.6595 187.502 37.5034Z" fill="#B3B3B3"/>
<path d="M194.957 64.5361C185.899 64.1877 179.127 68.3664 175.461 70.628C171.094 73.3237 168.267 76.1145 163.802 80.5274C161.3 83.0003 158.328 87.7044 157.022 89.8632C158.374 88.6867 159.507 87.5597 160.553 86.4289C162.621 84.1958 163.477 82.888 166.478 79.9562C170.476 76.0479 175.039 71.6694 182.151 68.7243C184.456 67.7686 187.258 66.634 191.134 66.2495C194.775 65.8878 197.894 66.3351 203.94 67.2013C204.311 67.2546 204.664 67.3079 205.012 67.3593C204.299 67.0547 198.63 64.677 194.957 64.5361Z" fill="#9E9E9E"/>
<path d="M9.74805 132.118C9.77289 132.253 9.86655 132.718 10.1188 133.304C46.0807 117.893 82.0425 102.483 118.004 87.0721C117.456 86.7828 116.909 86.4915 116.361 86.2021C112.756 87.5386 108.83 89.0063 104.55 90.6169C72.9502 104.451 41.3482 118.284 9.74805 132.118Z" fill="#A8A8A8"/>
<path d="M198.588 108.703C197.152 109.053 195.036 109.445 192.471 109.464C184.568 109.523 178.715 105.988 174.505 103.372C168.545 99.6694 164.52 95.4108 160.17 90.8076C156.622 87.0535 156.617 86.4938 153.862 83.9542C149.927 80.3276 146.309 78.1288 140.674 75.0067C132.74 70.611 128.772 68.4141 122.708 65.6785C97.2199 54.1857 71.866 47.2124 71.866 47.2124C57.0264 43.1042 37.6492 38.7561 14.5259 36.1708C13.9085 36.0699 12.9337 36.0052 11.85 36.3612C9.13974 37.2502 8.15923 39.9726 8.02734 40.359C44.2147 56.8586 80.404 73.3562 116.591 89.8557C119.428 91.2721 122.486 92.6828 125.766 94.0439C127.532 94.7768 129.263 95.4546 130.951 96.0809C132.065 96.494 132.622 96.7034 133.22 96.8995C136.163 97.8666 138.539 98.1483 139.145 98.2321C143.352 98.8089 150.105 101.765 152.907 102.991C158.746 105.548 166.187 108.805 173.549 115.746C176.726 118.741 178.167 120.586 178.519 121.077C182.295 126.341 183.459 131.781 183.87 135.164C188.777 126.344 193.681 117.522 198.588 108.703Z" fill="#CCCCCC"/>
<path d="M252.296 23.2253C248.072 13.3108 239.326 9.28059 237.197 8.37633C231.915 6.13374 227.277 6.109 224.199 6.09186C217.001 6.05379 211.617 7.98987 209.673 8.75707C206.875 9.86123 199.205 12.9986 193.618 20.7505C190.699 24.7997 189.493 28.5215 187.693 34.0765C185.793 39.94 185.992 45.0496 186.737 48.1641C189.604 60.1575 199.516 65.3566 200.499 65.8687C212.481 72.1167 224.582 68.3283 228.787 67.0109C232.281 65.9163 239.586 63.5271 245.798 56.5404C251.969 49.5995 253.473 42.1559 253.825 40.1684C254.358 37.1434 255.427 30.5775 252.296 23.2253ZM243.695 36.1706C243.173 42.472 239.989 46.7172 238.726 48.3544C234.236 54.176 228.469 56.2853 226.111 57.1116C223.697 57.9587 218.842 59.594 212.731 58.4442C210.392 58.0044 205.751 57.1306 201.837 53.1137C197.896 49.0702 197.07 44.2824 196.867 42.2625C196.374 37.3681 198.029 33.6901 198.97 31.6017C199.453 30.5261 201.026 27.2422 204.322 23.9868C210.495 17.8892 217.892 16.6537 219.994 16.3719C222.623 16.0217 227.334 15.4525 232.609 17.7046C234.58 18.546 238.857 20.444 241.593 25.1291C244.234 29.6542 243.867 34.0861 243.695 36.1706Z" fill="black"/>
<path d="M249.238 151.216C245.014 161.131 236.268 165.161 234.139 166.065C228.858 168.308 224.219 168.333 221.142 168.35C213.944 168.388 208.559 166.452 206.616 165.685C203.817 164.58 196.147 161.443 190.56 153.691C187.642 149.642 186.436 145.92 184.635 140.365C182.735 134.502 182.934 129.392 183.68 126.278C186.547 114.284 196.459 109.085 197.441 108.573C209.423 102.325 221.524 106.113 225.729 107.431C229.223 108.525 236.528 110.914 242.74 117.901C248.912 124.842 250.416 132.286 250.768 134.273C251.301 137.298 252.369 143.864 249.238 151.216ZM240.637 138.271C240.116 131.97 236.931 127.724 235.668 126.087C231.178 120.266 225.412 118.156 223.053 117.33C220.639 116.483 215.784 114.848 209.674 115.997C207.334 116.437 202.694 117.311 198.779 121.328C194.838 125.371 194.012 130.159 193.81 132.179C193.317 137.074 194.972 140.751 195.912 142.84C196.396 143.915 197.969 147.199 201.264 150.455C207.438 156.552 214.834 157.788 216.937 158.07C219.565 158.42 224.276 158.989 229.552 156.737C231.522 155.896 235.8 153.998 238.535 149.313C241.176 144.787 240.809 140.356 240.637 138.271Z" fill="black"/>
<path d="M139.624 93.663C142.843 93.663 145.453 91.0634 145.453 87.8566C145.453 84.6499 142.843 82.0503 139.624 82.0503C136.404 82.0503 133.794 84.6499 133.794 87.8566C133.794 91.0634 136.404 93.663 139.624 93.663Z" fill="#B3B3B3"/>
<path d="M33.6396 42.2627C41.2716 43.1422 49.8287 44.5624 59.0604 46.8316C69.5938 49.4207 78.8695 52.5904 86.7748 55.7791C78.4337 53.2015 69.6359 50.7057 60.3984 48.3546C51.1475 46.0016 42.212 43.9875 33.6396 42.2627Z" fill="#E6E6E6"/>
<path d="M192.472 26.8426C193.779 24.1622 196.203 20.0882 200.499 16.3721C207.359 10.4383 214.85 8.99333 218.084 8.56689C214.389 9.81764 209.293 11.9841 203.94 15.801C198.565 19.6332 194.853 23.7548 192.472 26.8426Z" fill="#333333"/>
<path d="M194.247 112.632C194.247 112.632 200.9 108.451 206.445 107.507C213.357 106.33 219.012 107.505 222.072 108.379C218.29 108.175 213.72 107.832 208.643 108.453C202.949 109.152 194.247 112.63 194.247 112.63V112.632Z" fill="#333333"/>
<path d="M8.48798 39.2202C7.95662 39.9931 8.08851 40.3129 8.02734 40.4919C42.8882 56.4356 77.751 72.3792 112.612 88.3229C112.618 88.3267 112.623 88.3286 112.631 88.3324C112.931 87.8393 113.342 88.1839 113.342 88.1839C113.342 88.1839 43.3756 55.2229 8.48798 39.2202Z" fill="#BCBCBC"/>
<path d="M139.624 82.0503C136.405 82.0503 133.794 84.6508 133.794 87.8566C133.794 91.0625 136.405 93.663 139.624 93.663C142.842 93.663 145.453 91.0625 145.453 87.8566C145.453 84.6508 142.842 82.0503 139.624 82.0503ZM139.624 92.7111C136.932 92.7111 134.75 90.5371 134.75 87.8566C134.75 85.1762 136.932 83.0022 139.624 83.0022C142.315 83.0022 144.497 85.1762 144.497 87.8566C144.497 90.5371 142.315 92.7111 139.624 92.7111Z" fill="#9E9E9E"/>
<path d="M176.799 118.983C172.273 108.398 159.345 104.368 153.098 102.42C152.248 102.156 151.258 101.868 150.144 101.583C151.084 101.98 151.902 102.338 152.525 102.611C158.364 105.167 165.805 108.424 173.168 115.365C174.865 116.966 176.063 118.234 176.868 119.146C176.845 119.091 176.822 119.038 176.799 118.983Z" fill="#BCBCBC"/>
<path d="M159.215 91.5688C160.48 93.305 162.051 95.2145 163.978 97.1487C166.682 99.8634 169.354 101.885 171.639 103.372C170.004 102.93 166.495 101.731 163.357 98.4356C160.916 95.8732 159.758 93.1546 159.215 91.5688Z" fill="#E6E6E6"/>
<path d="M183.107 54.4463C179.725 57.8787 175.366 61.7528 169.918 65.4879C162.952 70.2643 156.329 73.3597 150.996 75.3872C158.183 73.5806 163.773 71.1038 167.625 69.1049C176.629 64.4294 179.546 60.5801 180.622 59.0152C181.853 57.2276 182.631 55.5904 183.107 54.4463Z" fill="#C4C4C4"/>
<path d="M115.401 108.476C103.736 112.655 91.3127 116.731 78.1569 120.574C63.4511 124.871 49.3493 128.431 35.9775 131.393C48.6516 129.703 59.5902 127.355 68.4703 125.065C72.3866 124.056 82.9238 121.244 96.2516 116.319C103.845 113.513 110.306 110.774 115.403 108.476H115.401Z" fill="#C4C4C4"/>
</svg>
