<svg width="952" height="858" viewBox="0 0 952 858" fill="none" xmlns="http://www.w3.org/2000/svg">
<path d="M898.767 180.921H52.514C36.4781 180.921 23.4785 193.921 23.4785 209.956V806.796C23.4785 822.832 36.4781 835.832 52.514 835.832H898.767C914.803 835.832 927.803 822.832 927.803 806.796V209.956C927.803 193.921 914.803 180.921 898.767 180.921Z" fill="#DCCEB2"/>
<path d="M905.989 191.368H55.2037C43.1556 191.368 33.3887 201.135 33.3887 213.183V814.043C33.3887 826.091 43.1556 835.858 55.2037 835.858H905.989C918.037 835.858 927.804 826.091 927.804 814.043V213.183C927.804 201.135 918.037 191.368 905.989 191.368Z" fill="#EDE6D9"/>
<path d="M952 193.006C952 184.451 945.065 177.516 936.509 177.516C927.954 177.516 921.019 184.451 921.019 193.006V834.193C921.019 842.749 927.954 849.684 936.509 849.684C945.065 849.684 952 842.749 952 834.193V193.006Z" fill="#DDCEB9"/>
<path d="M929.313 857.775V829.277H23.4786V857.775H929.313Z" fill="#DDCEB9"/>
<path d="M903.504 829.687C901.071 828.945 910.75 830.788 915.666 825.846C922.144 819.317 920.812 814.478 921.273 809.946C921.478 808.051 927.367 824.054 922.553 831.351C917.202 839.442 905.706 830.353 903.504 829.687Z" fill="#DDCEB9"/>
<path d="M883.021 190.113C883.456 192.366 899.331 185.812 911.365 194.287C924.756 203.709 921.325 223.22 928.085 224.039C933.59 224.705 942.551 212.517 940.631 201.277C938.48 188.551 923.604 183.789 920.173 182.688C901.584 176.748 882.509 187.63 882.995 190.113H883.021Z" fill="#DDCEB9"/>
<path d="M67.3154 831.147C67.2129 828.868 50.57 830.507 39.8418 820.393C27.9357 809.153 34.1064 790.333 27.526 788.567C22.1747 787.107 11.5744 797.887 11.8561 809.306C12.1633 822.211 26.1946 829.047 29.4464 830.635C46.9854 839.187 67.4434 833.707 67.3154 831.173V831.147Z" fill="#DDCEB9"/>
<path d="M614.38 849.582H924.45C924.706 849.582 924.937 849.53 925.142 849.479C930.314 849.812 938.328 850.094 942.22 846.816C944.934 844.537 946.445 840.287 946.112 837.573V612.151C946.112 611.358 945.216 610.692 944.115 610.692H942.527C941.426 610.692 940.53 611.332 940.53 612.151V837.573C939.25 841.363 938.84 843.795 936.126 844.794C933.258 845.843 926.678 845.075 924.399 845.51H614.329C613.228 845.51 612.332 846.151 612.332 846.97V848.122C612.332 848.916 613.228 849.582 614.329 849.582H614.38Z" fill="#F4EEE6"/>
<path d="M483.314 16.686L481.942 13.374L125.003 161.15L126.374 164.462L483.314 16.686Z" fill="#B8A991"/>
<path d="M455.487 14.7528L454.079 18.0493L809.345 169.803L810.753 166.507L455.487 14.7528Z" fill="#B8A991"/>
<path opacity="0.31" d="M467.153 43.1177C482.425 43.1177 494.806 33.6488 494.806 21.9684C494.806 10.2879 482.425 0.819092 467.153 0.819092C451.881 0.819092 439.5 10.2879 439.5 21.9684C439.5 33.6488 451.881 43.1177 467.153 43.1177Z" fill="#594A32"/>
<path d="M466.462 42.2986C481.735 42.2986 494.115 32.8297 494.115 21.1493C494.115 9.46886 481.735 0 466.462 0C451.19 0 438.81 9.46886 438.81 21.1493C438.81 32.8297 451.19 42.2986 466.462 42.2986Z" fill="#CEC1AA"/>
<path d="M443.648 19.6897C443.648 17.3341 445.953 12.5461 448.052 10.2929C453.173 4.76234 457.756 3.4053 462.032 3.58453C466.923 3.76376 470.866 5.53047 470.815 6.04256C470.738 6.91311 457.884 2.48354 449.077 12.6997C442.675 20.1506 448.513 33.2857 445.39 30.3668C442.957 28.088 443.648 21.4308 443.648 19.6897Z" fill="#F4EEE6"/>
<path opacity="0.31" d="M908.242 194.824H950.848V186.963C950.848 175.006 941.144 165.302 929.186 165.302H25.1184C13.1611 165.302 3.45703 175.006 3.45703 186.963V835.934C3.45703 847.891 13.1611 857.595 25.1184 857.595H37.1013V216.306C37.1013 204.323 46.831 194.619 58.8139 194.619H905.502C906.45 194.619 907.346 194.696 908.268 194.824H908.242Z" fill="#594A32"/>
<path d="M930.236 162.025H21.7638C9.7297 162.025 0 171.78 0 183.789V836.165C0 848.199 9.7553 857.929 21.7638 857.929H930.236C942.27 857.929 952 848.173 952 836.165V183.789C952 171.755 942.244 162.025 930.236 162.025ZM928.213 814.196C928.213 826.23 918.458 836.011 906.398 836.011H55.6129C43.5788 836.011 33.7979 826.256 33.7979 814.196V213.336C33.7979 201.302 43.5532 191.521 55.6129 191.521H906.424C918.458 191.521 928.239 201.277 928.239 213.336V814.196H928.213Z" fill="#E8DFCE"/>
<path d="M283.415 174.264H27.8573C27.6524 174.264 27.4732 174.315 27.2684 174.367C21.4818 174.264 17.7691 174.367 14.5686 178.028C12.341 180.588 10.3694 183.533 9.98535 187.681V439.859C9.98535 440.755 10.7279 441.472 11.624 441.472H12.9299C13.826 441.472 14.5686 440.755 14.5686 439.859V187.681C15.6183 183.431 17.2314 181.485 19.459 180.384C21.8146 179.206 25.3992 178.719 27.8317 178.796H283.39C284.286 178.796 285.029 178.079 285.029 177.183V175.877C285.029 174.981 284.286 174.264 283.39 174.264H283.415Z" fill="#F4EEE6"/>
<path d="M723.761 852.91H931.618C931.797 852.91 931.951 852.859 932.079 852.808C935.561 852.45 940.836 850.657 943.447 847.124C945.265 844.666 945.598 843.539 946.162 839.955V596.251C946.162 595.381 945.573 594.689 944.83 594.689H943.755C943.012 594.689 942.423 595.381 942.423 596.251V839.955C942.218 842.489 939.914 844.999 938.378 845.997C936.534 847.226 933.154 848.046 931.618 848.532H723.761C723.019 848.532 722.43 849.223 722.43 850.094V851.349C722.43 852.219 723.019 852.91 723.761 852.91Z" fill="#F4EEE6"/>
</svg>
