<svg width="1512" height="154" viewBox="0 0 1512 154" fill="none" xmlns="http://www.w3.org/2000/svg">
<path d="M-47 62.9248C-38.7904 62.9248 -31.3339 65.3936 -23.3165 66.6038C-6.26813 69.1771 12.3987 67.0637 29.5688 67.0637C49.8602 67.0637 66.9411 63.3468 85.9033 56.2566C114.253 45.6564 144.11 37.6049 173.049 28.6643C261.253 1.41435 358.372 -11.0175 446.444 21.0764C470.833 29.964 495.214 39.0763 518.874 49.8184C544.516 61.4606 567.968 75.5993 594.753 84.7688C646.404 102.451 709.022 119.547 761.687 96.0357C772.991 90.989 794.036 84.8973 796.867 70.7426C797.373 68.2141 799.488 54.8821 795.257 54.6471C789.632 54.3346 786.82 54.8062 782.841 58.7859C781.259 60.3679 777.245 68.2133 775.023 68.2133C773.337 68.2133 776.908 48.4388 768.355 48.4388C760.808 48.4388 751.799 45.3382 751.799 54.6471C751.799 92.9995 788.372 123.122 822.85 134.895C866.374 149.757 909.217 151.91 954.603 151.91C1027.6 151.91 1099.49 142.182 1171.43 130.756C1244.31 119.182 1316.36 112.351 1390.1 112.591C1428.32 112.716 1466.89 115.401 1504.15 124.548C1515.65 127.371 1528.03 131.332 1538.18 137.424" stroke="#3D5C6E" stroke-width="3" stroke-linecap="round" stroke-dasharray="6 6"/>
</svg>
