<svg width="282" height="1147" viewBox="0 0 282 1147" fill="none" xmlns="http://www.w3.org/2000/svg">
<path d="M15.1683 4C81.5056 4 128.994 57.7266 148.558 116.418C161.369 154.852 162.214 195.306 162.214 235.664C162.214 254.915 160.536 274.509 155.63 293.214C152.376 305.619 153.435 318.521 153.435 331.256C153.435 346.4 151.241 361.328 151.241 376.614C151.241 395.635 149.053 414.858 155.63 432.945C161.182 448.212 167.73 463.476 174.163 478.18C179.111 489.491 179.729 496.207 190.745 502.688C199.708 507.96 205.852 517.42 214.887 522.44C223.51 527.231 229.263 537.315 240.004 537.315C249.674 537.315 261.952 539.57 267.56 529.756C270.898 523.915 279.924 508.152 273.657 500.493C266.654 491.934 257.748 493.421 247.32 493.421C226.195 493.421 204.088 517.511 197.329 536.096C192.258 550.042 194.391 568.52 195.135 583.404C195.513 590.979 199.665 600.501 202.694 607.424C207.255 617.849 208.101 629.228 212.692 639.491C224.355 665.56 230.152 709.655 220.374 737.034C215.234 751.426 206.423 763.124 199.524 776.539C196.589 782.246 194.138 788.753 189.77 793.121C184.86 798.031 184.813 809.709 181.479 816.044C176 826.453 166.833 833.616 158.922 841.527C146.525 853.924 135.305 872.816 128.074 888.591C119.709 906.843 108.126 922.908 100.274 941.63C92.7705 959.524 91.9832 976.565 91.9832 995.523C91.9832 1028.29 90.375 1065.16 68.9388 1091.36C50.9487 1113.35 29.3882 1136.12 2 1145.25" stroke="#F0EEEA" stroke-width="3" stroke-linecap="round" stroke-dasharray="6 6"/>
<path d="M18.931 2C85.2683 2 132.757 55.7266 152.321 114.418C165.132 152.852 165.977 193.306 165.977 233.664C165.977 252.915 164.299 272.509 159.393 291.214C156.139 303.619 157.198 316.521 157.198 329.256C157.198 344.4 155.003 359.328 155.003 374.614C155.003 393.635 152.816 412.858 159.393 430.945C164.944 446.212 171.493 461.476 177.926 476.18C182.874 487.491 183.491 494.207 194.508 500.688C203.471 505.96 209.614 515.42 218.65 520.44C227.273 525.231 233.026 535.315 243.767 535.315C253.437 535.315 265.715 537.57 271.323 527.756C274.661 521.915 283.686 506.152 277.419 498.493C270.416 489.934 261.511 491.421 251.083 491.421C229.958 491.421 207.851 515.511 201.092 534.096C196.021 548.042 198.153 566.52 198.897 581.404C199.276 588.979 203.428 598.501 206.457 605.424C211.018 615.849 211.863 627.228 216.455 637.491C228.117 663.56 233.915 707.655 224.137 735.034C218.997 749.426 210.186 761.124 203.287 774.539C200.352 780.246 197.901 786.753 193.533 791.121C188.623 796.031 188.576 807.709 185.241 814.044C179.763 824.453 170.595 831.616 162.685 839.527C150.287 851.924 139.067 870.816 131.837 886.591C123.472 904.843 111.888 920.908 104.037 939.63C96.5332 957.524 95.7459 974.565 95.7459 993.523C95.7459 1026.29 94.1377 1063.16 72.7015 1089.36C54.7114 1111.35 33.1509 1134.12 5.7627 1143.25" stroke="#3D5C6D" stroke-width="3" stroke-linecap="round" stroke-dasharray="6 6"/>
</svg>
