<svg width="399" height="356" viewBox="0 0 399 356" fill="none" xmlns="http://www.w3.org/2000/svg">
<path d="M135 49.5529C150.284 49.5529 167.53 47.3747 182.352 51.6652C205.386 58.3331 222.063 81.1264 233.4 100.777C246.593 123.644 256.254 148.076 271.246 169.956C294.678 204.155 331.618 228.795 369.822 243.888C400.625 256.057 433.429 254.679 465.757 258.851C502.653 263.611 536.245 272.567 568.382 291.944C579.9 298.889 635.341 335.145 622.951 353.73" stroke="#3D5C6E" stroke-width="3" stroke-linecap="round" stroke-dasharray="10 10"/>
<path d="M140.083 49.8665C140.326 48.4706 138.827 46.34 137.383 46.3761C133.377 46.4767 131.18 47.3093 125.487 48.6188L0.230813 74.9841C75.2869 60.5833 114.491 53.9106 126.876 53.0315C129.462 52.849 139.564 52.848 140.083 49.8665ZM134.094 50.7593C132.038 50.8657 130.851 50.8475 129.595 50.6287C128.942 50.5149 131.61 48.9662 133.66 48.3942C135.801 47.7976 138.334 47.5297 137.965 49.6414C137.843 50.3393 136.933 50.6122 134.094 50.7593Z" fill="#A4A4A4"/>
<path d="M140.016 49.4235C140.26 48.0277 138.761 45.897 137.316 45.9331C133.311 46.0337 131.114 46.8663 125.42 48.1759L0.164407 74.5411C75.2205 60.1403 114.424 53.4676 126.809 52.5885C129.395 52.4061 139.497 52.4051 140.016 49.4235ZM134.028 50.3163C131.971 50.4227 130.785 50.4045 129.529 50.1858C128.875 50.072 131.544 48.5233 133.594 47.9512C135.734 47.3546 138.268 47.0868 137.898 49.1985C137.777 49.8964 136.866 50.1693 134.028 50.3163Z" fill="#CCD2D6"/>
<path d="M124.972 49.1043C119.808 50.1222 114.646 51.1417 109.483 52.1595C105.851 52.9178 102.219 53.6745 98.588 54.4329C100.403 54.2124 103.004 53.8573 106.12 53.2997C107.637 53.0289 109.492 52.6702 114.029 51.6568C116.794 51.0397 120.518 50.1867 124.972 49.1043Z" fill="#E9E9E9"/>
</svg>
