<svg width="312" height="617" viewBox="0 0 312 617" fill="none" xmlns="http://www.w3.org/2000/svg">
<g clip-path="url(#clip0_269_195)">
<path d="M131 280C131 303.197 112.197 322 89 322C77.8867 322 67.777 317.681 60.269 310.63C59.2581 309.686 58.2954 308.69 57.3848 307.646C50.9175 300.26 47 290.585 47 280C47 256.803 65.8034 238 89 238C107.302 238 122.871 249.704 128.618 266.04C129.108 267.43 129.528 268.85 129.87 270.299C130.61 273.41 131 276.659 131 280Z" fill="#7C8E98"/>
<g opacity="0.11">
<path d="M120.221 280C120.221 297.242 106.242 311.221 88.9996 311.221C71.7573 311.221 57.7783 297.242 57.7783 280V279.874C57.8452 262.691 71.7981 248.779 88.9996 248.779C92.3596 248.779 95.5932 249.31 98.6261 250.295C111.155 254.35 120.221 266.118 120.221 280Z" fill="#162D39"/>
</g>
<path opacity="0.23" d="M78.4072 275.168C81.7942 275.168 84.5399 272.422 84.5399 269.035C84.5399 265.648 81.7942 262.903 78.4072 262.903C75.0201 262.903 72.2744 265.648 72.2744 269.035C72.2744 272.422 75.0201 275.168 78.4072 275.168Z" fill="#101A1F"/>
<path opacity="0.23" d="M100.336 274.796C103.723 274.796 106.469 272.051 106.469 268.664C106.469 265.277 103.723 262.531 100.336 262.531C96.9488 262.531 94.2031 265.277 94.2031 268.664C94.2031 272.051 96.9488 274.796 100.336 274.796Z" fill="#101A1F"/>
<path opacity="0.23" d="M78.4072 296.354C81.7942 296.354 84.5399 293.608 84.5399 290.221C84.5399 286.834 81.7942 284.088 78.4072 284.088C75.0201 284.088 72.2744 286.834 72.2744 290.221C72.2744 293.608 75.0201 296.354 78.4072 296.354Z" fill="#101A1F"/>
<path opacity="0.23" d="M100.336 295.982C103.723 295.982 106.469 293.237 106.469 289.85C106.469 286.463 103.723 283.717 100.336 283.717C96.9488 283.717 94.2031 286.463 94.2031 289.85C94.2031 293.237 96.9488 295.982 100.336 295.982Z" fill="#101A1F"/>
<path d="M98.6261 250.295C93.4003 252.574 82.8966 252.429 73.3889 259.186C64.03 265.835 61.3613 275.726 57.7783 279.874C57.8452 262.691 71.7981 248.779 88.9996 248.779C92.3596 248.779 95.5932 249.31 98.6261 250.295Z" fill="#64747C"/>
<path opacity="0.03" d="M131 280C131 303.197 112.197 322 89 322C77.8867 322 67.777 317.681 60.269 310.63C59.9159 310.262 59.5777 309.887 59.2432 309.504C68.4311 310.608 90.1522 324.784 109.071 311.965C122.957 302.55 126.733 283.081 129.87 270.299C130.61 273.41 131 276.659 131 280Z" fill="black"/>
<path opacity="0.34" d="M59.2658 257.699C52.3748 267.853 54.2072 280.394 50.7171 280.743C47.0003 281.115 49.301 266.671 56.2924 256.584C63.2837 246.497 80.5111 238.762 82.3101 242.46C83.3545 244.608 66.3278 247.292 59.2658 257.699Z" fill="white"/>
</g>
<g clip-path="url(#clip1_269_195)">
<path d="M108 575C108 598.197 89.1966 617 66 617C54.8867 617 44.777 612.681 37.269 605.63C36.2581 604.686 35.2954 603.69 34.3848 602.646C27.9175 595.26 24 585.585 24 575C24 551.803 42.8034 533 66 533C84.3016 533 99.8713 544.704 105.618 561.04C106.108 562.43 106.528 563.85 106.87 565.299C107.61 568.41 108 571.659 108 575Z" fill="#7C8E98"/>
<g opacity="0.11">
<path d="M97.2208 575C97.2208 592.242 83.2419 606.221 65.9996 606.221C48.7573 606.221 34.7783 592.242 34.7783 575V574.874C34.8452 557.691 48.7981 543.779 65.9996 543.779C69.3596 543.779 72.5932 544.31 75.6261 545.295C88.1555 549.35 97.2208 561.118 97.2208 575Z" fill="#162D39"/>
</g>
<path opacity="0.23" d="M55.4072 570.168C58.7942 570.168 61.5399 567.422 61.5399 564.035C61.5399 560.648 58.7942 557.903 55.4072 557.903C52.0201 557.903 49.2744 560.648 49.2744 564.035C49.2744 567.422 52.0201 570.168 55.4072 570.168Z" fill="#101A1F"/>
<path opacity="0.23" d="M77.3359 569.796C80.7229 569.796 83.4686 567.051 83.4686 563.664C83.4686 560.277 80.7229 557.531 77.3359 557.531C73.9488 557.531 71.2031 560.277 71.2031 563.664C71.2031 567.051 73.9488 569.796 77.3359 569.796Z" fill="#101A1F"/>
<path opacity="0.23" d="M55.4072 591.354C58.7942 591.354 61.5399 588.608 61.5399 585.221C61.5399 581.834 58.7942 579.088 55.4072 579.088C52.0201 579.088 49.2744 581.834 49.2744 585.221C49.2744 588.608 52.0201 591.354 55.4072 591.354Z" fill="#101A1F"/>
<path opacity="0.23" d="M77.3359 590.982C80.7229 590.982 83.4686 588.237 83.4686 584.85C83.4686 581.463 80.7229 578.717 77.3359 578.717C73.9488 578.717 71.2031 581.463 71.2031 584.85C71.2031 588.237 73.9488 590.982 77.3359 590.982Z" fill="#101A1F"/>
<path d="M75.6261 545.295C70.4003 547.574 59.8966 547.429 50.3889 554.186C41.03 560.835 38.3613 570.726 34.7783 574.874C34.8452 557.691 48.7981 543.779 65.9996 543.779C69.3596 543.779 72.5932 544.31 75.6261 545.295Z" fill="#64747C"/>
<path opacity="0.03" d="M108 575C108 598.197 89.1966 617 66 617C54.8867 617 44.777 612.681 37.269 605.63C36.9159 605.262 36.5777 604.887 36.2432 604.504C45.4311 605.608 67.1522 619.784 86.0708 606.965C99.9568 597.55 103.733 578.081 106.87 565.299C107.61 568.41 108 571.659 108 575Z" fill="black"/>
<path opacity="0.34" d="M36.2658 552.699C29.3748 562.853 31.2072 575.394 27.7171 575.743C24.0003 576.115 26.301 561.671 33.2924 551.584C40.2837 541.497 57.5111 533.762 59.3101 537.46C60.3545 539.608 43.3278 542.292 36.2658 552.699Z" fill="white"/>
</g>
<g clip-path="url(#clip2_269_195)">
<path d="M140 414.5C140 427.479 129.479 438 116.5 438C110.282 438 104.625 435.583 100.424 431.638C99.8587 431.11 99.32 430.553 98.8105 429.968C95.1919 425.836 93 420.423 93 414.5C93 401.521 103.521 391 116.5 391C126.74 391 135.452 397.549 138.667 406.689C138.941 407.467 139.176 408.261 139.368 409.072C139.782 410.813 140 412.63 140 414.5Z" fill="#7C8E98"/>
<g opacity="0.11">
<path d="M133.969 414.5C133.969 424.148 126.148 431.969 116.5 431.969C106.853 431.969 99.0312 424.148 99.0312 414.5V414.429C99.0687 404.815 106.876 397.031 116.5 397.031C118.38 397.031 120.19 397.328 121.887 397.88C128.897 400.148 133.969 406.733 133.969 414.5Z" fill="#162D39"/>
</g>
<path opacity="0.23" d="M110.573 411.796C112.468 411.796 114.004 410.26 114.004 408.365C114.004 406.47 112.468 404.934 110.573 404.934C108.678 404.934 107.142 406.47 107.142 408.365C107.142 410.26 108.678 411.796 110.573 411.796Z" fill="#101A1F"/>
<path opacity="0.23" d="M122.843 411.588C124.738 411.588 126.274 410.052 126.274 408.157C126.274 406.262 124.738 404.726 122.843 404.726C120.947 404.726 119.411 406.262 119.411 408.157C119.411 410.052 120.947 411.588 122.843 411.588Z" fill="#101A1F"/>
<path opacity="0.23" d="M110.573 423.65C112.468 423.65 114.004 422.114 114.004 420.219C114.004 418.324 112.468 416.788 110.573 416.788C108.678 416.788 107.142 418.324 107.142 420.219C107.142 422.114 108.678 423.65 110.573 423.65Z" fill="#101A1F"/>
<path opacity="0.23" d="M122.843 423.442C124.738 423.442 126.274 421.906 126.274 420.011C126.274 418.116 124.738 416.58 122.843 416.58C120.947 416.58 119.411 418.116 119.411 420.011C119.411 421.906 120.947 423.442 122.843 423.442Z" fill="#101A1F"/>
<path d="M121.887 397.88C118.963 399.154 113.085 399.073 107.766 402.854C102.529 406.575 101.036 412.108 99.0312 414.429C99.0687 404.815 106.876 397.031 116.5 397.031C118.38 397.031 120.19 397.328 121.887 397.88Z" fill="#64747C"/>
<path opacity="0.03" d="M140 414.5C140 427.479 129.479 438 116.5 438C110.282 438 104.625 435.583 100.425 431.638C100.227 431.432 100.038 431.222 99.8506 431.008C104.991 431.626 117.145 439.558 127.73 432.385C135.5 427.117 137.613 416.224 139.368 409.072C139.782 410.813 140 412.63 140 414.5Z" fill="black"/>
<path opacity="0.34" d="M99.8624 402.022C96.0068 407.704 97.032 414.72 95.0792 414.916C92.9996 415.124 94.2869 407.042 98.1987 401.398C102.111 395.754 111.75 391.426 112.756 393.496C113.341 394.698 103.814 396.199 99.8624 402.022Z" fill="white"/>
</g>
<g clip-path="url(#clip3_269_195)">
<path d="M47 469.5C47 482.479 36.4791 493 23.5 493C17.2819 493 11.6252 490.583 7.42434 486.638C6.85867 486.11 6.32004 485.553 5.81053 484.968C2.19195 480.836 0 475.423 0 469.5C0 456.521 10.5209 446 23.5 446C33.7402 446 42.4518 452.549 45.6669 461.689C45.9415 462.467 46.1765 463.261 46.3678 464.072C46.7816 465.813 47 467.63 47 469.5Z" fill="#7C8E98"/>
<g opacity="0.11">
<path d="M40.9693 469.5C40.9693 479.148 33.1478 486.969 23.5003 486.969C13.8528 486.969 6.03125 479.148 6.03125 469.5V469.429C6.06868 459.815 13.8757 452.031 23.5003 452.031C25.3803 452.031 27.1896 452.328 28.8866 452.88C35.897 455.148 40.9693 461.733 40.9693 469.5Z" fill="#162D39"/>
</g>
<path opacity="0.23" d="M17.573 466.796C19.4681 466.796 21.0044 465.26 21.0044 463.365C21.0044 461.47 19.4681 459.934 17.573 459.934C15.6779 459.934 14.1416 461.47 14.1416 463.365C14.1416 465.26 15.6779 466.796 17.573 466.796Z" fill="#101A1F"/>
<path opacity="0.23" d="M29.8425 466.588C31.7377 466.588 33.274 465.052 33.274 463.157C33.274 461.262 31.7377 459.726 29.8425 459.726C27.9474 459.726 26.4111 461.262 26.4111 463.157C26.4111 465.052 27.9474 466.588 29.8425 466.588Z" fill="#101A1F"/>
<path opacity="0.23" d="M17.573 478.65C19.4681 478.65 21.0044 477.114 21.0044 475.219C21.0044 473.324 19.4681 471.788 17.573 471.788C15.6779 471.788 14.1416 473.324 14.1416 475.219C14.1416 477.114 15.6779 478.65 17.573 478.65Z" fill="#101A1F"/>
<path opacity="0.23" d="M29.8425 478.442C31.7377 478.442 33.274 476.906 33.274 475.011C33.274 473.116 31.7377 471.58 29.8425 471.58C27.9474 471.58 26.4111 473.116 26.4111 475.011C26.4111 476.906 27.9474 478.442 29.8425 478.442Z" fill="#101A1F"/>
<path d="M28.8866 452.88C25.9626 454.154 20.0855 454.073 14.7658 457.854C9.52921 461.575 8.03603 467.108 6.03125 469.429C6.06868 459.815 13.8757 452.031 23.5003 452.031C25.3803 452.031 27.1896 452.328 28.8866 452.88Z" fill="#64747C"/>
<path opacity="0.03" d="M47.0002 469.5C47.0002 482.479 36.4793 493 23.5002 493C17.2821 493 11.6255 490.583 7.42457 486.638C7.227 486.432 7.03775 486.222 6.85059 486.008C11.9915 486.626 24.1449 494.558 34.7303 487.385C42.4999 482.117 44.6128 471.224 46.368 464.072C46.7819 465.813 47.0002 467.63 47.0002 469.5Z" fill="black"/>
<path opacity="0.34" d="M6.86242 457.022C3.00676 462.704 4.03202 469.72 2.07924 469.916C-0.000410438 470.124 1.28689 462.042 5.19871 456.398C9.11052 450.754 18.7497 446.426 19.7562 448.496C20.3406 449.698 10.8138 451.199 6.86242 457.022Z" fill="white"/>
</g>
<g clip-path="url(#clip4_269_195)">
<path d="M172 362.5C172 375.479 161.479 386 148.5 386C142.282 386 136.625 383.583 132.424 379.638C131.859 379.11 131.32 378.553 130.811 377.968C127.192 373.836 125 368.423 125 362.5C125 349.521 135.521 339 148.5 339C158.74 339 167.452 345.549 170.667 354.689C170.941 355.467 171.176 356.261 171.368 357.072C171.782 358.813 172 360.63 172 362.5Z" fill="#7C8E98"/>
<g opacity="0.11">
<path d="M165.969 362.5C165.969 372.148 158.148 379.969 148.5 379.969C138.853 379.969 131.031 372.148 131.031 362.5V362.429C131.069 352.815 138.876 345.031 148.5 345.031C150.38 345.031 152.19 345.328 153.887 345.88C160.897 348.148 165.969 354.733 165.969 362.5Z" fill="#162D39"/>
</g>
<path opacity="0.23" d="M142.573 359.796C144.468 359.796 146.004 358.26 146.004 356.365C146.004 354.47 144.468 352.934 142.573 352.934C140.678 352.934 139.142 354.47 139.142 356.365C139.142 358.26 140.678 359.796 142.573 359.796Z" fill="#101A1F"/>
<path opacity="0.23" d="M154.843 359.588C156.738 359.588 158.274 358.052 158.274 356.157C158.274 354.262 156.738 352.726 154.843 352.726C152.947 352.726 151.411 354.262 151.411 356.157C151.411 358.052 152.947 359.588 154.843 359.588Z" fill="#101A1F"/>
<path opacity="0.23" d="M142.573 371.65C144.468 371.65 146.004 370.114 146.004 368.219C146.004 366.324 144.468 364.788 142.573 364.788C140.678 364.788 139.142 366.324 139.142 368.219C139.142 370.114 140.678 371.65 142.573 371.65Z" fill="#101A1F"/>
<path opacity="0.23" d="M154.843 371.442C156.738 371.442 158.274 369.906 158.274 368.011C158.274 366.116 156.738 364.58 154.843 364.58C152.947 364.58 151.411 366.116 151.411 368.011C151.411 369.906 152.947 371.442 154.843 371.442Z" fill="#101A1F"/>
<path d="M153.887 345.88C150.963 347.154 145.085 347.073 139.766 350.854C134.529 354.575 133.036 360.108 131.031 362.429C131.069 352.815 138.876 345.031 148.5 345.031C150.38 345.031 152.19 345.328 153.887 345.88Z" fill="#64747C"/>
<path opacity="0.03" d="M172 362.5C172 375.479 161.479 386 148.5 386C142.282 386 136.625 383.583 132.425 379.638C132.227 379.432 132.038 379.222 131.851 379.008C136.991 379.626 149.145 387.558 159.73 380.385C167.5 375.117 169.613 364.224 171.368 357.072C171.782 358.813 172 360.63 172 362.5Z" fill="black"/>
<path opacity="0.34" d="M131.862 350.022C128.007 355.704 129.032 362.72 127.079 362.916C125 363.124 126.287 355.042 130.199 349.398C134.111 343.754 143.75 339.426 144.756 341.496C145.341 342.698 135.814 344.199 131.862 350.022Z" fill="white"/>
</g>
<g clip-path="url(#clip5_269_195)">
<path d="M151 501.5C151 514.479 140.479 525 127.5 525C121.282 525 115.625 522.583 111.424 518.638C110.859 518.11 110.32 517.553 109.811 516.968C106.192 512.836 104 507.423 104 501.5C104 488.521 114.521 478 127.5 478C137.74 478 146.452 484.549 149.667 493.689C149.941 494.467 150.176 495.261 150.368 496.072C150.782 497.813 151 499.63 151 501.5Z" fill="#7C8E98"/>
<g opacity="0.11">
<path d="M144.969 501.5C144.969 511.148 137.148 518.969 127.5 518.969C117.853 518.969 110.031 511.148 110.031 501.5V501.429C110.069 491.815 117.876 484.031 127.5 484.031C129.38 484.031 131.19 484.328 132.887 484.88C139.897 487.148 144.969 493.733 144.969 501.5Z" fill="#162D39"/>
</g>
<path opacity="0.23" d="M121.573 498.796C123.468 498.796 125.004 497.26 125.004 495.365C125.004 493.47 123.468 491.934 121.573 491.934C119.678 491.934 118.142 493.47 118.142 495.365C118.142 497.26 119.678 498.796 121.573 498.796Z" fill="#101A1F"/>
<path opacity="0.23" d="M133.843 498.588C135.738 498.588 137.274 497.052 137.274 495.157C137.274 493.262 135.738 491.726 133.843 491.726C131.947 491.726 130.411 493.262 130.411 495.157C130.411 497.052 131.947 498.588 133.843 498.588Z" fill="#101A1F"/>
<path opacity="0.23" d="M121.573 510.65C123.468 510.65 125.004 509.114 125.004 507.219C125.004 505.324 123.468 503.788 121.573 503.788C119.678 503.788 118.142 505.324 118.142 507.219C118.142 509.114 119.678 510.65 121.573 510.65Z" fill="#101A1F"/>
<path opacity="0.23" d="M133.843 510.442C135.738 510.442 137.274 508.906 137.274 507.011C137.274 505.116 135.738 503.58 133.843 503.58C131.947 503.58 130.411 505.116 130.411 507.011C130.411 508.906 131.947 510.442 133.843 510.442Z" fill="#101A1F"/>
<path d="M132.887 484.88C129.963 486.154 124.085 486.073 118.766 489.854C113.529 493.575 112.036 499.108 110.031 501.429C110.069 491.815 117.876 484.031 127.5 484.031C129.38 484.031 131.19 484.328 132.887 484.88Z" fill="#64747C"/>
<path opacity="0.03" d="M151 501.5C151 514.479 140.479 525 127.5 525C121.282 525 115.625 522.583 111.425 518.638C111.227 518.432 111.038 518.222 110.851 518.008C115.991 518.626 128.145 526.558 138.73 519.385C146.5 514.117 148.613 503.224 150.368 496.072C150.782 497.813 151 499.63 151 501.5Z" fill="black"/>
<path opacity="0.34" d="M110.862 489.022C107.007 494.704 108.032 501.72 106.079 501.916C104 502.124 105.287 494.042 109.199 488.398C113.111 482.754 122.75 478.426 123.756 480.496C124.341 481.698 114.814 483.199 110.862 489.022Z" fill="white"/>
</g>
<path d="M120.41 189.541C120.214 190.481 120.57 191.253 120.744 191.633C123.203 196.972 135.998 195.251 142.071 193.026C144.249 192.227 146.127 191.159 146.741 189.322C147.048 188.403 147.053 187.266 146.704 186.499C144.366 181.394 121.694 183.406 120.41 189.541Z" fill="#9CADB7"/>
<path d="M103.952 30.093C94.0469 31.9351 85.4033 34.4202 82.9557 40.649C82.0095 43.0618 81.8532 46.377 81.7804 47.9858C81.5778 52.2968 82.3631 53.7017 83.1073 60.9967C83.6211 66.0402 83.2725 65.6006 83.7801 69.9185C84.4368 75.4897 84.9656 75.7463 85.6652 81.163C85.7975 82.1936 85.8371 82.6383 86.5708 93.171C87.1137 101.014 87.1499 101.574 87.3212 103.122C87.567 105.336 87.9776 108.045 88.785 113.363C89.8438 120.326 89.9152 120.308 90.1712 122.576C90.428 124.856 90.3813 125.041 90.9216 132.527C91.2316 136.799 91.194 135.979 91.6461 142.134C92.1962 149.589 92.195 149.976 92.4224 152.428C92.9604 158.195 93.0992 157.302 93.4648 161.667C93.9508 167.468 93.7438 169.468 94.4738 175.046C94.7925 177.503 94.9583 178.737 95.1537 179.478C97.3975 187.919 115.337 192.404 129 192.457C146.309 192.525 158.236 185.478 163.733 180.52C165.936 178.533 168.992 175.707 169.623 171.448C170.042 168.627 169.003 167.81 168.134 160.864C167.817 158.346 167.698 156.208 167.461 151.942C167.205 147.345 167.305 146.811 167.106 142.651C166.878 137.78 166.713 137.835 166.097 129.271C165.555 121.677 165.667 121.402 165.269 118.292C164.61 113.175 164.194 113.043 163.909 109.422C163.52 104.43 164.208 103.259 164.112 98.3652C163.998 92.4324 162.954 92.499 162.519 86.409C161.877 77.3275 164.214 77.4417 163.073 70.8361C162.192 65.7477 160.576 64.3449 160.028 57.9549C159.857 55.9348 159.861 54.2949 159.879 51.4075C159.919 44.9308 160.46 42.9358 159.661 39.3476C159.661 39.3476 160.16 35.2624 157.503 33.6417C144.451 25.6957 110.489 28.874 103.958 30.0866L103.952 30.093Z" fill="#637E8D"/>
<path d="M82.2491 43.5035C82.2815 49.8841 101.903 54.1521 103.16 54.4203C112.744 56.4444 120.917 54.3034 137.267 50.0271C155.153 45.3506 159.143 41.8794 159.65 39.3545C160.31 36.0496 156.944 32.9033 155.759 32.2363C137.184 21.8209 82.174 28.6739 82.2491 43.5035Z" fill="#5A7584"/>
<path d="M90.4158 42.9844C90.4405 47.8167 105.295 51.0466 106.244 51.2473C113.498 52.7755 119.684 51.1594 132.062 47.9208C145.599 44.377 148.622 41.7531 149.005 39.8426C149.502 37.3426 146.957 34.9572 146.058 34.4563C131.998 26.5682 90.3577 31.7594 90.4158 42.9844Z" fill="#5E7782"/>
<path d="M104.891 41.0095C104.14 33.1523 103.478 31.4537 103.038 25.6181C102.687 20.9617 113.181 19.2083 115.175 19.0277C118.844 18.6906 132.322 17.4261 133.405 22.8622C134.139 26.5581 135.513 37.0606 134.154 39.1475C129.304 46.5739 115.558 45.0997 112.77 44.5537C110.165 44.0422 105.213 44.4036 104.891 41.0095Z" fill="#A1B0B7"/>
<path d="M106.298 25.1788C106.208 23.4916 111.231 21.9813 113.01 21.4418C115.003 20.8438 119.165 19.822 124.475 20.5772C126.51 20.8654 130.367 21.4156 130.61 22.9581C130.784 24.0583 129.067 25.18 127.979 25.8731C121.932 29.7294 114.798 28.5794 111.808 27.8671C109.9 27.412 106.373 26.5708 106.292 25.1792L106.298 25.1788Z" fill="#91A4AF"/>
<path d="M82.5104 56.2983C85.8119 59.4617 99.2305 69.7879 116.645 71.1671C139.807 73.0021 155.363 58.1977 157.718 55.8783C155.289 61.0711 145.349 71.2108 130.433 75.6935C108.957 82.1472 83.6483 68.3312 83.4905 66.1589C83.1802 61.8019 83.0534 60.5228 82.5039 56.2927L82.5104 56.2983Z" fill="#68828D"/>
<path d="M84.6309 75.2451C87.9324 78.4085 101.615 89.2594 119.029 90.6385C142.191 92.4736 157.748 77.6691 160.102 75.3498C157.674 80.5426 147.733 90.6822 132.817 95.165C111.342 101.619 86.2215 87.8126 86.0461 85.6477C85.7067 81.4684 85.5841 79.36 84.6309 75.2451Z" fill="#68828D"/>
<path d="M86.9858 99.1598C90.2873 102.323 104.676 113.284 122.09 114.663C145.252 116.498 160.809 101.694 163.163 99.3746C160.734 104.567 150.794 114.707 135.878 119.19C114.402 125.643 90.8041 110.785 88.9358 109.655C88.1415 109.177 86.6656 102.796 86.9798 99.1602L86.9858 99.1598Z" fill="#68828D"/>
<path d="M90.0874 123.562C93.3889 126.726 107.134 137.354 124.548 138.733C147.71 140.568 163.267 125.764 165.621 123.445C163.192 128.637 153.252 138.777 138.336 143.26C116.86 149.713 91.3333 135.902 91.3936 133.725C91.5211 129.384 91.3881 127.621 90.0869 123.556L90.0874 123.562Z" fill="#68828D"/>
<path d="M90.9194 134.59C94.2209 137.753 107.966 148.382 125.38 149.761C148.542 151.596 164.099 136.792 166.453 134.472C164.024 139.665 154.084 149.805 139.168 154.287C117.692 160.741 92.1653 146.929 92.2256 144.753C92.3531 140.411 92.2202 138.648 90.9189 134.584L90.9194 134.59Z" fill="#68828D"/>
<path d="M93.1992 159.436C96.5007 162.599 110.245 173.228 127.66 174.607C150.822 176.442 164.61 163.277 166.97 160.957C164.541 166.15 156.363 174.65 141.448 179.133C119.972 185.587 94.467 171.181 94.1771 169.024C93.6012 164.766 93.9515 163.62 93.1992 159.436Z" fill="#68828D"/>
<path d="M160.293 60.2702L161.826 66.1142C161.292 70.0568 155.352 74.2076 152.09 75.9117C138.816 82.8661 131.668 83.9437 123.02 84.6806C118.138 85.0971 104.428 86.2701 92.9718 78.0769C89.4262 75.5369 85.8421 71.9229 86.2913 71.284C86.8664 70.4662 93.1836 75.7376 101.615 78.5685C115.088 83.1006 135.345 81.8755 146.93 70.8616C151.859 66.176 157.708 59.2793 160.287 60.2646L160.293 60.2702Z" fill="#67808C"/>
<path d="M160.088 42.994L159.913 49.124C159.379 53.0666 153.123 57.2836 149.861 58.9937C136.587 65.9482 129.439 67.0257 120.791 67.7626C115.909 68.1791 102.199 69.3522 90.743 61.1589C87.1974 58.6189 83.6133 55.005 84.0624 54.3661C84.6376 53.5483 90.9548 58.8196 99.3867 61.6506C112.86 66.1826 133.116 64.9575 144.701 53.9436C149.63 49.2581 157.502 42.0091 160.082 43.0004L160.088 42.994Z" fill="#67808C"/>
<path d="M162.403 82.8663L162.575 88.6858C162.042 92.6285 156.101 96.7792 152.839 98.4833C139.566 105.438 132.417 106.515 123.769 107.252C118.888 107.669 105.178 108.842 93.7213 100.648C90.1757 98.1085 86.5915 94.4946 87.0407 93.8557C87.6159 93.0379 93.9331 98.3092 102.365 101.14C115.838 105.672 136.094 104.447 147.679 93.4332C152.609 88.7477 159.824 81.875 162.397 82.8607L162.403 82.8663Z" fill="#67808C"/>
<path d="M163.812 107.984L164.27 114.054C163.736 117.996 158.619 121.716 155.357 123.42C142.083 130.375 134.934 131.452 126.286 132.189C121.405 132.606 107.695 133.779 96.2386 125.585C92.693 123.045 89.1088 119.431 89.558 118.793C90.1332 117.975 96.4504 123.246 104.882 126.077C118.355 130.609 138.612 129.384 150.197 118.37C155.126 113.685 161.232 106.992 163.806 107.978L163.812 107.984Z" fill="#67808C"/>
<path d="M167.095 142.985L167.366 149.069C166.832 153.012 160.892 157.163 157.63 158.867C144.356 165.821 137.208 166.899 128.56 167.636C123.678 168.052 109.968 169.225 98.512 161.032C94.9663 158.492 92.0548 152.94 92.504 152.301C93.0792 151.483 98.7237 158.693 107.156 161.53C120.629 166.062 140.885 164.837 152.47 153.823C157.4 149.137 164.516 142.006 167.09 142.991L167.095 142.985Z" fill="#67808C"/>
<path d="M168.405 164.141L169.57 168.972C169.036 172.914 163.742 178.154 160.487 179.864C147.213 186.818 140.064 187.896 131.416 188.632C126.535 189.049 112.825 190.222 101.369 182.029C97.823 179.489 94.2389 175.875 94.688 175.236C95.2632 174.418 101.58 179.689 110.012 182.52C123.485 187.052 143.742 185.827 155.327 174.813C160.256 170.128 165.826 163.155 168.399 164.141L168.405 164.141Z" fill="#67808C"/>
<path d="M103.122 26.6464C107.561 29.4458 110.988 30.0222 115.446 30.3335C123.628 30.9022 129.228 27.2309 130.352 26.287C131.687 25.1639 133.453 23.0946 133.453 23.0946C133.453 23.0946 135.579 35.5975 134.293 38.9737C130.551 48.7972 105.785 45.5464 104.985 42.1035C103.582 36.0441 103.257 27.8705 103.122 26.6404L103.122 26.6464Z" fill="#98A7AF"/>
<path d="M107.219 40.9308C106.602 40.9531 106.036 36.9785 105.883 34.7998C105.872 34.6433 105.817 30.376 106.38 30.2791C106.643 30.235 106.575 34.4814 106.544 34.871C106.395 36.8425 107.933 40.9072 107.226 40.9364L107.219 40.9308Z" fill="#B5BFC4"/>
<g clip-path="url(#clip6_269_195)">
<path d="M201.245 238.615C200.759 239.443 200.849 240.288 200.893 240.704C201.518 246.548 214.192 249.004 220.658 248.836C222.977 248.774 225.098 248.362 226.266 246.817C226.851 246.045 227.219 244.968 227.133 244.131C226.548 238.546 204.422 233.211 201.245 238.615Z" fill="#9CADB7"/>
<path d="M236.579 82.2623C226.605 80.8441 217.62 80.4381 213.311 85.5588C211.644 87.543 210.437 90.6346 209.854 92.1359C208.285 96.1564 208.58 97.7385 206.955 104.889C205.831 109.832 205.641 109.305 204.743 113.558C203.586 119.048 204.005 119.46 202.938 124.816C202.734 125.835 202.63 126.269 199.961 136.484C197.97 144.089 197.825 144.632 197.493 146.153C197.019 148.33 196.543 151.029 195.609 156.326C194.389 163.262 194.462 163.268 193.98 165.499C193.495 167.741 193.392 167.902 191.513 175.168C190.442 179.315 190.668 178.526 189.131 184.504C187.271 191.744 187.146 192.11 186.578 194.506C185.246 200.143 185.663 199.341 184.615 203.594C183.223 209.247 182.388 211.076 181.298 216.595C180.815 219.025 180.578 220.247 180.526 221.012C179.957 229.727 195.524 239.707 208.454 244.121C224.835 249.715 238.387 246.847 245.18 243.904C247.903 242.725 251.702 241.023 253.66 237.189C254.957 234.65 254.234 233.544 255.629 226.683C256.133 224.196 256.703 222.132 257.841 218.014C259.067 213.576 259.332 213.102 260.473 209.096C261.813 204.407 261.638 204.406 263.79 196.095C265.702 188.725 265.896 188.501 266.512 185.427C267.523 180.367 267.17 180.109 268.057 176.587C269.283 171.732 270.309 170.842 271.781 166.174C273.568 160.516 272.557 160.245 274.09 154.335C276.382 145.524 278.561 146.379 279.59 139.755C280.38 134.652 279.297 132.806 280.818 126.576C281.301 124.607 281.829 123.054 282.769 120.324C284.875 114.199 286.025 112.481 286.414 108.826C286.414 108.826 288.192 105.114 286.191 102.73C276.362 91.0313 243.163 83.1952 236.586 82.2579L236.579 82.2623Z" fill="#637E8D"/>
<path d="M211.73 88.0381C209.722 94.0948 226.953 104.407 228.059 105.062C236.494 110.042 244.922 110.623 261.782 111.793C280.224 113.075 285.114 111.06 286.401 108.829C288.083 105.908 285.897 101.851 284.988 100.841C270.713 85.0383 216.395 73.9613 211.73 88.0381Z" fill="#5A7584"/>
<path d="M219.635 90.1548C218.115 94.7419 231.16 102.547 231.995 103.041C238.381 106.806 244.759 107.25 257.523 108.135C271.483 109.101 275.185 107.58 276.159 105.892C277.428 103.682 275.778 100.608 275.086 99.8462C264.283 87.8805 223.165 79.4994 219.635 90.1548Z" fill="#5E7782"/>
<path d="M233.982 92.9066C235.78 85.2214 235.696 83.4003 237.143 77.7299C238.297 73.2052 248.802 74.8956 250.749 75.3613C254.333 76.2136 267.509 79.3205 266.799 84.8179C266.314 88.5544 264.262 98.9457 262.307 100.489C255.339 105.978 242.784 100.19 240.316 98.7818C238.012 97.4653 233.203 96.2259 233.982 92.9066Z" fill="#A1B0B7"/>
<path d="M240.373 78.3549C240.826 76.727 246.068 76.9004 247.926 76.9574C250.006 77.0272 254.277 77.3885 259.067 79.8001C260.903 80.7233 264.382 82.4764 264.12 84.0161C263.934 85.1141 261.949 85.6287 260.696 85.938C253.734 87.6607 247.341 84.2921 244.735 82.6623C243.072 81.6215 239.999 79.6978 240.367 78.3534L240.373 78.3549Z" fill="#91A4AF"/>
<path d="M207.89 100.246C210.008 104.298 219.426 118.37 235.487 125.239C256.85 134.376 276.32 125.316 279.292 123.87C275.332 128.015 262.673 134.449 247.107 133.932C224.695 133.188 205.125 112.012 205.669 109.903C206.767 105.675 207.055 104.423 207.886 100.239L207.89 100.246Z" fill="#68828D"/>
<path d="M203.848 118.878C205.966 122.93 215.466 137.583 231.527 144.452C252.89 153.589 272.36 144.529 275.332 143.083C271.372 147.228 258.714 153.662 243.147 153.145C220.735 152.401 201.341 131.295 201.866 129.187C202.879 125.119 203.437 123.082 203.848 118.878Z" fill="#68828D"/>
<path d="M198.442 142.292C200.56 146.344 210.693 161.327 226.755 168.196C248.117 177.333 267.588 168.273 270.56 166.827C266.6 170.972 253.941 177.406 238.375 176.889C215.963 176.145 198.347 154.527 196.937 152.86C196.337 152.153 196.977 145.635 198.436 142.29L198.442 142.292Z" fill="#68828D"/>
<path d="M193.586 166.407C195.705 170.459 205.334 184.921 221.396 191.79C242.758 200.927 262.229 191.867 265.201 190.422C261.241 194.567 248.582 201 233.016 200.484C210.604 199.74 190.826 178.498 191.578 176.455C193.086 172.381 193.523 170.668 193.588 166.401L193.586 166.407Z" fill="#68828D"/>
<path d="M190.852 177.122C192.97 181.175 202.6 195.636 218.661 202.506C240.024 211.643 259.495 202.583 262.466 201.137C258.506 205.282 245.848 211.715 230.281 211.199C207.869 210.455 188.091 189.213 188.844 187.17C190.351 183.096 190.788 181.384 190.854 177.116L190.852 177.122Z" fill="#68828D"/>
<path d="M185.076 201.395C187.194 205.447 196.824 219.909 212.886 226.778C234.248 235.915 251.519 227.845 254.497 226.4C250.536 230.545 240.072 235.988 224.505 235.472C202.094 234.728 182.526 212.929 182.94 210.794C183.755 206.574 184.452 205.601 185.076 201.395Z" fill="#68828D"/>
<path d="M280.33 128.855L279.916 134.882C278.151 138.448 271.196 140.484 267.561 141.057C252.761 143.407 245.643 142.145 237.212 140.081C232.453 138.916 219.087 135.649 210.848 124.225C208.299 120.686 206.057 116.116 206.687 115.654C207.493 115.063 211.796 122.076 218.882 127.452C230.201 136.05 249.788 141.359 264.284 134.623C270.452 131.757 278.197 127.09 280.326 128.847L280.33 128.855Z" fill="#67808C"/>
<path d="M285.654 112.418L283.53 118.171C281.765 121.737 274.489 123.734 270.852 124.313C256.052 126.664 248.934 125.401 240.504 123.337C235.745 122.173 222.379 118.905 214.139 107.482C211.591 103.943 209.349 99.373 209.979 98.9111C210.785 98.3198 215.087 105.333 222.173 110.709C233.493 119.307 253.08 124.616 267.576 117.879C273.743 115.014 283.518 110.659 285.646 112.422L285.654 112.418Z" fill="#67808C"/>
<path d="M275.112 150.941L273.416 156.511C271.651 160.076 264.697 162.112 261.061 162.685C246.261 165.036 239.143 163.773 230.713 161.709C225.954 160.545 212.587 157.277 204.348 145.854C201.8 142.315 199.558 137.745 200.187 137.283C200.994 136.692 205.296 143.705 212.382 149.081C223.702 157.679 243.288 162.988 257.784 156.251C263.952 153.386 272.984 149.178 275.108 150.934L275.112 150.941Z" fill="#67808C"/>
<path d="M268.425 175.193L266.92 181.091C265.155 184.657 259.117 186.547 255.482 187.12C240.682 189.47 233.564 188.208 225.134 186.144C220.375 184.98 207.008 181.712 198.769 170.289C196.22 166.749 193.978 162.18 194.608 161.718C195.414 161.127 199.717 168.14 206.803 173.515C218.123 182.113 237.709 187.423 252.205 180.686C258.373 177.821 266.297 173.429 268.421 175.185L268.425 175.193Z" fill="#67808C"/>
<path d="M260.355 209.409L258.668 215.261C256.903 218.827 249.948 220.863 246.313 221.436C231.513 223.786 224.395 222.524 215.964 220.46C211.206 219.295 197.839 216.028 189.6 204.604C187.051 201.065 186.066 194.873 186.696 194.411C187.502 193.82 190.548 202.455 197.632 207.837C208.952 216.435 228.539 221.744 243.035 215.008C249.202 212.142 258.224 207.657 260.348 209.413L260.355 209.409Z" fill="#67808C"/>
<path d="M254.84 229.875L254.401 234.825C252.636 238.391 245.946 241.665 242.315 242.245C227.515 244.595 220.397 243.333 211.966 241.269C207.207 240.105 193.841 236.837 185.602 225.414C183.053 221.874 180.811 217.305 181.441 216.843C182.247 216.252 186.55 223.265 193.635 228.641C204.955 237.239 224.542 242.548 239.038 235.811C245.206 232.946 252.711 228.118 254.834 229.874L254.84 229.875Z" fill="#67808C"/>
<path d="M236.894 78.731C240.206 82.8014 243.27 84.4425 247.394 86.1612C254.966 89.3137 261.446 87.6235 262.812 87.088C264.436 86.45 266.771 85.0533 266.771 85.0533C266.771 85.0533 264.791 97.5802 262.494 100.369C255.811 108.483 233.38 97.4913 233.722 93.9735C234.328 87.7833 236.631 79.934 236.895 78.7252L236.894 78.731Z" fill="#98A7AF"/>
<path d="M236.214 93.5758C235.622 93.3999 236.355 89.4525 236.907 87.3393C236.946 87.1873 238.257 83.1259 238.821 83.2139C239.085 83.2563 237.664 87.2585 237.51 87.6177C236.739 89.4385 236.898 93.7815 236.219 93.5831L236.214 93.5758Z" fill="#B5BFC4"/>
</g>
<defs>
<clipPath id="clip0_269_195">
<rect width="84" height="84" fill="white" transform="translate(47 238)"/>
</clipPath>
<clipPath id="clip1_269_195">
<rect width="84" height="84" fill="white" transform="translate(24 533)"/>
</clipPath>
<clipPath id="clip2_269_195">
<rect width="47" height="47" fill="white" transform="translate(93 391)"/>
</clipPath>
<clipPath id="clip3_269_195">
<rect width="47" height="47" fill="white" transform="translate(0 446)"/>
</clipPath>
<clipPath id="clip4_269_195">
<rect width="47" height="47" fill="white" transform="translate(125 339)"/>
</clipPath>
<clipPath id="clip5_269_195">
<rect width="47" height="47" fill="white" transform="translate(104 478)"/>
</clipPath>
<clipPath id="clip6_269_195">
<rect width="108" height="205" fill="white" transform="translate(206.686 49) rotate(14.3147)"/>
</clipPath>
</defs>
</svg>
