<svg width="782" height="853" viewBox="0 0 782 853" fill="none" xmlns="http://www.w3.org/2000/svg">
<path d="M793.398 1.65723C760.256 1.65723 722.049 29.459 700.603 53.1236C660.571 97.2968 628.372 132.171 614.436 192.317C605.493 230.912 607.417 270.278 607.417 309.676C607.417 339.586 607.905 368.551 615.215 397.792C631.172 461.62 659.355 522.919 660.054 590.011C660.805 662.191 618.068 717.542 562.969 760.396C539.405 778.724 516.059 792.239 486.744 798.411C441.762 807.881 398.126 822.08 353.205 831.357C304.03 841.513 244.762 841.521 195.297 832.527C184.326 830.532 142.325 822.497 137.202 812.252" stroke="white" stroke-width="3" stroke-linecap="round" stroke-dasharray="10 10"/>
<path d="M140.85 813.944C141.514 812.693 140.752 810.202 139.368 809.788C135.529 808.639 133.182 808.747 127.364 808.222L0.116639 794.355C75.9316 803.993 115.268 809.835 127.313 812.848C129.827 813.478 139.429 816.617 140.85 813.944ZM134.88 812.932C132.892 812.394 131.77 812.008 130.644 811.41C130.059 811.098 133.076 810.456 135.203 810.549C137.422 810.647 139.913 811.18 138.906 813.072C138.574 813.698 137.624 813.674 134.88 812.932Z" fill="#A4A4A4"/>
<path d="M140.925 813.503C141.59 812.252 140.827 809.761 139.443 809.346C135.605 808.197 133.257 808.305 127.439 807.781L0.191834 793.914C76.0068 803.552 115.343 809.393 127.388 812.407C129.902 813.037 139.505 816.175 140.925 813.503ZM134.955 812.49C132.967 811.952 131.846 811.566 130.719 810.968C130.134 810.657 133.152 810.014 135.278 810.107C137.498 810.206 139.989 810.738 138.981 812.631C138.649 813.256 137.699 813.233 134.955 812.49Z" fill="#CCD2D6"/>
<path d="M126.724 808.524C121.5 807.887 116.276 807.251 111.052 806.614C107.365 806.206 103.677 805.797 99.9902 805.389C101.783 805.743 104.367 806.214 107.502 806.653C109.028 806.867 110.902 807.102 115.529 807.549C118.349 807.822 122.154 808.168 126.724 808.524Z" fill="#E9E9E9"/>
</svg>
