<svg width="952" height="858" viewBox="0 0 952 858" fill="none" xmlns="http://www.w3.org/2000/svg">
<path d="M898.767 180.921H52.514C36.4781 180.921 23.4785 193.921 23.4785 209.956V806.796C23.4785 822.832 36.4781 835.832 52.514 835.832H898.767C914.803 835.832 927.803 822.832 927.803 806.796V209.956C927.803 193.921 914.803 180.921 898.767 180.921Z" fill="#DCCEB2"/>
<path d="M905.989 191.368H55.2037C43.1556 191.368 33.3887 201.135 33.3887 213.183V814.043C33.3887 826.091 43.1556 835.858 55.2037 835.858H905.989C918.037 835.858 927.804 826.091 927.804 814.043V213.183C927.804 201.135 918.037 191.368 905.989 191.368Z" fill="#EDE6D9"/>
<path d="M952.001 193.006C952.001 184.451 945.066 177.516 936.51 177.516C927.955 177.516 921.02 184.451 921.02 193.006V834.193C921.02 842.749 927.955 849.684 936.51 849.684C945.066 849.684 952.001 842.749 952.001 834.193V193.006Z" fill="#DDCEB9"/>
<path d="M929.314 857.775V829.277H23.4796V857.775H929.314Z" fill="#DDCEB9"/>
<path d="M903.503 829.687C901.07 828.945 910.749 830.788 915.665 825.846C922.143 819.317 920.811 814.478 921.272 809.946C921.477 808.051 927.366 824.054 922.553 831.351C917.201 839.442 905.705 830.353 903.503 829.687Z" fill="#DDCEB9"/>
<path d="M883.021 190.113C883.456 192.366 899.331 185.812 911.365 194.287C924.756 203.709 921.325 223.22 928.085 224.039C933.59 224.705 942.551 212.517 940.631 201.277C938.48 188.551 923.604 183.789 920.173 182.688C901.584 176.748 882.509 187.63 882.995 190.113H883.021Z" fill="#DDCEB9"/>
<path d="M67.3144 831.147C67.212 828.868 50.5691 830.507 39.8408 820.393C27.9347 809.153 34.1054 790.333 27.5251 788.567C22.1737 787.107 11.5735 797.887 11.8551 809.306C12.1624 822.211 26.1936 829.047 29.4454 830.635C46.9844 839.187 67.4424 833.707 67.3144 831.173V831.147Z" fill="#DDCEB9"/>
<path d="M614.38 849.582H924.45C924.706 849.582 924.937 849.53 925.142 849.479C930.314 849.812 938.328 850.094 942.22 846.816C944.934 844.537 946.445 840.287 946.112 837.573V612.151C946.112 611.358 945.216 610.692 944.115 610.692H942.527C941.426 610.692 940.53 611.332 940.53 612.151V837.573C939.25 841.363 938.84 843.795 936.126 844.794C933.258 845.843 926.678 845.075 924.399 845.51H614.329C613.228 845.51 612.332 846.151 612.332 846.97V848.122C612.332 848.916 613.228 849.582 614.329 849.582H614.38Z" fill="#F4EEE6"/>
<path d="M483.315 16.686L481.943 13.374L125.004 161.15L126.375 164.462L483.315 16.686Z" fill="#B8A991"/>
<path d="M455.488 14.7528L454.08 18.0493L809.346 169.803L810.754 166.507L455.488 14.7528Z" fill="#B8A991"/>
<path opacity="0.31" d="M467.155 43.1177C482.427 43.1177 494.808 33.6488 494.808 21.9684C494.808 10.2879 482.427 0.819092 467.155 0.819092C451.883 0.819092 439.502 10.2879 439.502 21.9684C439.502 33.6488 451.883 43.1177 467.155 43.1177Z" fill="#594A32"/>
<path d="M466.463 42.2986C481.736 42.2986 494.116 32.8297 494.116 21.1493C494.116 9.46886 481.736 0 466.463 0C451.191 0 438.811 9.46886 438.811 21.1493C438.811 32.8297 451.191 42.2986 466.463 42.2986Z" fill="#CEC1AA"/>
<path d="M443.649 19.6897C443.649 17.3341 445.954 12.5461 448.053 10.2929C453.174 4.76234 457.757 3.4053 462.033 3.58453C466.924 3.76376 470.867 5.53047 470.816 6.04256C470.739 6.91311 457.885 2.48354 449.078 12.6997C442.676 20.1506 448.514 33.2857 445.39 30.3668C442.958 28.088 443.649 21.4308 443.649 19.6897Z" fill="#F4EEE6"/>
<path opacity="0.31" d="M908.242 194.824H950.848V186.963C950.848 175.006 941.144 165.302 929.186 165.302H25.1184C13.1611 165.302 3.45703 175.006 3.45703 186.963V835.934C3.45703 847.891 13.1611 857.595 25.1184 857.595H37.1013V216.306C37.1013 204.323 46.831 194.619 58.8139 194.619H905.502C906.45 194.619 907.346 194.696 908.268 194.824H908.242Z" fill="#594A32"/>
<path d="M930.236 162.025H21.7638C9.7297 162.025 0 171.78 0 183.789V836.165C0 848.199 9.7553 857.929 21.7638 857.929H930.236C942.27 857.929 952 848.173 952 836.165V183.789C952 171.755 942.244 162.025 930.236 162.025ZM928.213 814.196C928.213 826.23 918.458 836.011 906.398 836.011H55.6129C43.5788 836.011 33.7979 826.256 33.7979 814.196V213.336C33.7979 201.302 43.5532 191.521 55.6129 191.521H906.424C918.458 191.521 928.239 201.277 928.239 213.336V814.196H928.213Z" fill="#E8DFCE"/>
<path d="M283.414 174.264H27.8563C27.6515 174.264 27.4722 174.315 27.2674 174.367C21.4808 174.264 17.7681 174.367 14.5676 178.028C12.34 180.588 10.3684 183.533 9.98438 187.681V439.859C9.98438 440.755 10.7269 441.472 11.6231 441.472H12.9289C13.825 441.472 14.5676 440.755 14.5676 439.859V187.681C15.6174 183.431 17.2304 181.485 19.458 180.384C21.8136 179.206 25.3983 178.719 27.8307 178.796H283.389C284.285 178.796 285.028 178.079 285.028 177.183V175.877C285.028 174.981 284.285 174.264 283.389 174.264H283.414Z" fill="#F4EEE6"/>
<path d="M723.761 852.91H931.618C931.797 852.91 931.951 852.859 932.079 852.808C935.561 852.45 940.836 850.657 943.447 847.124C945.265 844.666 945.598 843.539 946.162 839.955V596.251C946.162 595.381 945.573 594.689 944.83 594.689H943.755C943.012 594.689 942.423 595.381 942.423 596.251V839.955C942.218 842.489 939.914 844.999 938.378 845.997C936.534 847.226 933.154 848.046 931.618 848.532H723.761C723.019 848.532 722.43 849.223 722.43 850.094V851.349C722.43 852.219 723.019 852.91 723.761 852.91Z" fill="#F4EEE6"/>
<path d="M197.242 241.751C197.304 242.85 197.563 243.742 198.02 244.427C198.89 245.71 200.424 246.352 202.621 246.352C203.605 246.352 204.502 246.211 205.311 245.93C206.875 245.385 207.657 244.41 207.657 243.003C207.657 241.949 207.328 241.197 206.668 240.749C206 240.31 204.955 239.927 203.531 239.602L200.907 239.009C199.193 238.622 197.98 238.196 197.269 237.73C196.038 236.921 195.423 235.713 195.423 234.104C195.423 232.364 196.025 230.936 197.229 229.82C198.433 228.704 200.138 228.146 202.344 228.146C204.375 228.146 206.097 228.638 207.512 229.622C208.936 230.598 209.648 232.162 209.648 234.315H207.183C207.051 233.278 206.77 232.483 206.339 231.929C205.539 230.918 204.181 230.413 202.265 230.413C200.718 230.413 199.606 230.738 198.93 231.389C198.253 232.039 197.915 232.795 197.915 233.656C197.915 234.605 198.31 235.3 199.101 235.739C199.62 236.021 200.793 236.372 202.621 236.794L205.337 237.414C206.646 237.712 207.657 238.121 208.369 238.64C209.6 239.545 210.215 240.859 210.215 242.582C210.215 244.726 209.433 246.26 207.868 247.183C206.312 248.105 204.502 248.567 202.437 248.567C200.028 248.567 198.143 247.952 196.781 246.721C195.418 245.5 194.75 243.843 194.777 241.751H197.242ZM213.788 228.633H227.907V231.006H216.345V236.886H227.037V239.127H216.345V245.693H228.105V248H213.788V228.633ZM240.59 228.633L246.153 245.126L251.651 228.633H254.591L247.524 248H244.743L237.689 228.633H240.59ZM257.663 228.633H260.312V248H257.663V228.633ZM272.02 245.759C272.907 245.759 273.637 245.667 274.208 245.482C275.228 245.139 276.062 244.48 276.713 243.504C277.231 242.722 277.605 241.72 277.833 240.499C277.965 239.769 278.031 239.092 278.031 238.468C278.031 236.069 277.552 234.206 276.594 232.878C275.645 231.551 274.111 230.888 271.993 230.888H267.339V245.759H272.02ZM264.703 228.633H272.547C275.21 228.633 277.275 229.578 278.743 231.468C280.053 233.173 280.708 235.357 280.708 238.02C280.708 240.077 280.321 241.936 279.547 243.597C278.185 246.532 275.843 248 272.521 248H264.703V228.633ZM284.346 228.633H298.466V231.006H286.904V236.886H297.596V239.127H286.904V245.693H298.664V248H284.346V228.633ZM310.463 228.106C313.882 228.106 316.413 229.205 318.057 231.402C319.34 233.116 319.981 235.309 319.981 237.98C319.981 240.872 319.248 243.276 317.78 245.192C316.057 247.442 313.601 248.567 310.41 248.567C307.431 248.567 305.088 247.583 303.383 245.614C301.863 243.715 301.103 241.316 301.103 238.416C301.103 235.796 301.753 233.555 303.054 231.692C304.724 229.301 307.193 228.106 310.463 228.106ZM310.727 246.22C313.038 246.22 314.708 245.394 315.736 243.742C316.773 242.081 317.292 240.173 317.292 238.02C317.292 235.744 316.694 233.911 315.499 232.522C314.312 231.134 312.687 230.439 310.621 230.439C308.617 230.439 306.982 231.129 305.717 232.509C304.451 233.88 303.818 235.906 303.818 238.587C303.818 240.731 304.359 242.542 305.44 244.019C306.53 245.486 308.292 246.22 310.727 246.22ZM323.37 228.633H337.489V231.006H325.927V236.886H336.619V239.127H325.927V245.693H337.687V248H323.37V228.633ZM341.128 228.633H344.226L354.008 244.322V228.633H356.5V248H353.56L343.633 232.325V248H341.128V228.633ZM368.405 228.633H381.839V231.006H371.028V236.886H380.534V239.193H371.028V248H368.405V228.633ZM393.019 228.106C396.438 228.106 398.969 229.205 400.612 231.402C401.896 233.116 402.537 235.309 402.537 237.98C402.537 240.872 401.803 243.276 400.335 245.192C398.613 247.442 396.156 248.567 392.966 248.567C389.986 248.567 387.644 247.583 385.939 245.614C384.418 243.715 383.658 241.316 383.658 238.416C383.658 235.796 384.309 233.555 385.609 231.692C387.279 229.301 389.749 228.106 393.019 228.106ZM393.282 246.22C395.594 246.22 397.264 245.394 398.292 243.742C399.329 242.081 399.848 240.173 399.848 238.02C399.848 235.744 399.25 233.911 398.055 232.522C396.868 231.134 395.242 230.439 393.177 230.439C391.173 230.439 389.538 231.129 388.272 232.509C387.007 233.88 386.374 235.906 386.374 238.587C386.374 240.731 386.915 242.542 387.996 244.019C389.085 245.486 390.848 246.22 393.282 246.22ZM414.679 237.506C415.91 237.506 416.881 237.26 417.593 236.768C418.313 236.275 418.674 235.388 418.674 234.104C418.674 232.725 418.173 231.784 417.171 231.283C416.635 231.02 415.918 230.888 415.022 230.888H408.615V237.506H414.679ZM405.991 228.633H414.956C416.433 228.633 417.65 228.849 418.608 229.279C420.427 230.105 421.337 231.63 421.337 233.854C421.337 235.014 421.095 235.963 420.612 236.702C420.137 237.44 419.469 238.033 418.608 238.481C419.364 238.789 419.931 239.193 420.309 239.694C420.695 240.195 420.911 241.008 420.955 242.133L421.047 244.73C421.073 245.469 421.135 246.018 421.231 246.378C421.39 246.994 421.671 247.389 422.075 247.565V248H418.858C418.771 247.833 418.7 247.618 418.647 247.354C418.595 247.09 418.551 246.581 418.516 245.825L418.357 242.595C418.296 241.329 417.826 240.481 416.947 240.05C416.446 239.813 415.659 239.694 414.587 239.694H408.615V248H405.991V228.633ZM441.165 240.063L438.225 231.507L435.101 240.063H441.165ZM436.854 228.633H439.82L446.847 248H443.973L442.009 242.199H434.349L432.253 248H429.563L436.854 228.633ZM461.323 228.633V230.94H454.797V248H452.134V230.94H445.608V228.633H461.323ZM471.026 228.633H484.46V231.006H473.649V236.886H483.155V239.193H473.649V248H471.026V228.633ZM497.222 240.063L494.282 231.507L491.157 240.063H497.222ZM492.911 228.633H495.877L502.904 248H500.03L498.065 242.199H490.406L488.31 248H485.62L492.911 228.633ZM494.466 226.761C494.923 226.761 495.314 226.599 495.64 226.273C495.965 225.948 496.127 225.557 496.127 225.1C496.127 224.643 495.965 224.252 495.64 223.927C495.314 223.602 494.923 223.439 494.466 223.439C494.018 223.439 493.631 223.602 493.306 223.927C492.981 224.252 492.818 224.643 492.818 225.1C492.818 225.557 492.981 225.948 493.306 226.273C493.631 226.599 494.018 226.761 494.466 226.761ZM494.466 222.345C495.222 222.345 495.868 222.617 496.404 223.162C496.949 223.698 497.222 224.344 497.222 225.1C497.222 225.856 496.949 226.506 496.404 227.051C495.868 227.587 495.222 227.855 494.466 227.855C493.71 227.855 493.064 227.587 492.528 227.051C491.992 226.506 491.724 225.856 491.724 225.1C491.724 224.344 491.992 223.698 492.528 223.162C493.064 222.617 493.71 222.345 494.466 222.345ZM513.055 228.633H527.175V231.006H515.613V236.886H526.305V239.127H515.613V245.693H527.373V248H513.055V228.633ZM544.907 228.633V230.94H538.381V248H535.718V230.94H529.192V228.633H544.907ZM554.953 228.633H557.603V248H554.953V228.633ZM561.874 228.633H564.972L574.754 244.322V228.633H577.246V248H574.306L564.379 232.325V248H561.874V228.633ZM588.821 245.759C589.709 245.759 590.438 245.667 591.01 245.482C592.029 245.139 592.864 244.48 593.515 243.504C594.033 242.722 594.407 241.72 594.635 240.499C594.767 239.769 594.833 239.092 594.833 238.468C594.833 236.069 594.354 234.206 593.396 232.878C592.447 231.551 590.913 230.888 588.795 230.888H584.141V245.759H588.821ZM581.504 228.633H589.349C592.012 228.633 594.077 229.578 595.545 231.468C596.854 233.173 597.509 235.357 597.509 238.02C597.509 240.077 597.123 241.936 596.349 243.597C594.987 246.532 592.645 248 589.322 248H581.504V228.633ZM608.175 236.82C609.282 236.82 610.144 236.667 610.759 236.359C611.726 235.875 612.209 235.005 612.209 233.749C612.209 232.483 611.695 231.63 610.667 231.191C610.086 230.945 609.225 230.822 608.083 230.822H603.402V236.82H608.175ZM609.058 245.759C610.667 245.759 611.813 245.293 612.499 244.361C612.93 243.772 613.145 243.061 613.145 242.226C613.145 240.819 612.517 239.861 611.26 239.352C610.592 239.079 609.708 238.943 608.61 238.943H603.402V245.759H609.058ZM600.832 228.633H609.15C611.418 228.633 613.031 229.31 613.989 230.664C614.551 231.463 614.833 232.386 614.833 233.432C614.833 234.654 614.485 235.656 613.791 236.438C613.431 236.851 612.912 237.229 612.235 237.572C613.229 237.95 613.971 238.376 614.463 238.851C615.333 239.694 615.769 240.859 615.769 242.344C615.769 243.592 615.377 244.722 614.595 245.732C613.426 247.244 611.567 248 609.019 248H600.832V228.633ZM618.906 228.633H621.53V245.693H631.338V248H618.906V228.633ZM634.529 228.633H637.179V248H634.529V228.633ZM641.45 228.633H644.008V238.073L653.447 228.633H657.073L649.018 236.438L657.297 248H653.882L647.106 238.284L644.008 241.25V248H641.45V228.633ZM667.567 228.633H670.217V248H667.567V228.633ZM690.361 228.106C693.78 228.106 696.312 229.205 697.955 231.402C699.238 233.116 699.88 235.309 699.88 237.98C699.88 240.872 699.146 243.276 697.678 245.192C695.956 247.442 693.499 248.567 690.309 248.567C687.329 248.567 684.987 247.583 683.282 245.614C681.761 243.715 681.001 241.316 681.001 238.416C681.001 235.796 681.651 233.555 682.952 231.692C684.622 229.301 687.092 228.106 690.361 228.106ZM690.625 246.22C692.937 246.22 694.606 245.394 695.635 243.742C696.672 242.081 697.19 240.173 697.19 238.02C697.19 235.744 696.593 233.911 695.397 232.522C694.211 231.134 692.585 230.439 690.52 230.439C688.516 230.439 686.881 231.129 685.615 232.509C684.35 233.88 683.717 235.906 683.717 238.587C683.717 240.731 684.257 242.542 685.338 244.019C686.428 245.486 688.19 246.22 690.625 246.22ZM703.018 228.633H705.641V245.693H715.45V248H703.018V228.633ZM718.297 228.633H732.417V231.006H720.855V236.886H731.547V239.127H720.855V245.693H732.615V248H718.297V228.633ZM736.056 228.633H739.154L748.936 244.322V228.633H751.428V248H748.488L738.561 232.325V248H736.056V228.633ZM765.508 240.063L762.568 231.507L759.443 240.063H765.508ZM761.197 228.633H764.163L771.19 248H768.316L766.352 242.199H758.692L756.596 248H753.906L761.197 228.633ZM775.29 241.751C775.352 242.85 775.611 243.742 776.068 244.427C776.938 245.71 778.472 246.352 780.669 246.352C781.653 246.352 782.55 246.211 783.358 245.93C784.923 245.385 785.705 244.41 785.705 243.003C785.705 241.949 785.375 241.197 784.716 240.749C784.048 240.31 783.002 239.927 781.579 239.602L778.955 239.009C777.241 238.622 776.028 238.196 775.316 237.73C774.086 236.921 773.471 235.713 773.471 234.104C773.471 232.364 774.073 230.936 775.277 229.82C776.481 228.704 778.186 228.146 780.392 228.146C782.422 228.146 784.145 228.638 785.56 229.622C786.984 230.598 787.696 232.162 787.696 234.315H785.23C785.099 233.278 784.817 232.483 784.387 231.929C783.587 230.918 782.229 230.413 780.313 230.413C778.766 230.413 777.654 230.738 776.978 231.389C776.301 232.039 775.962 232.795 775.962 233.656C775.962 234.605 776.358 235.3 777.149 235.739C777.667 236.021 778.841 236.372 780.669 236.794L783.385 237.414C784.694 237.712 785.705 238.121 786.417 238.64C787.647 239.545 788.263 240.859 788.263 242.582C788.263 244.726 787.48 246.26 785.916 247.183C784.36 248.105 782.55 248.567 780.484 248.567C778.076 248.567 776.191 247.952 774.829 246.721C773.466 245.5 772.798 243.843 772.825 241.751H775.29ZM248.447 259.633H251.097V267.636H261.169V259.633H263.819V279H261.169V269.943H251.097V279H248.447V259.633ZM269.422 259.633L274.986 276.126L280.483 259.633H283.423L276.357 279H273.575L266.522 259.633H269.422ZM286.152 259.633H300.272V262.006H288.71V267.886H299.402V270.127H288.71V276.693H300.47V279H286.152V259.633ZM312.915 268.506C314.146 268.506 315.117 268.26 315.829 267.768C316.549 267.275 316.91 266.388 316.91 265.104C316.91 263.725 316.409 262.784 315.407 262.283C314.871 262.02 314.154 261.888 313.258 261.888H306.851V268.506H312.915ZM304.227 259.633H313.192C314.668 259.633 315.886 259.849 316.844 260.279C318.663 261.105 319.573 262.63 319.573 264.854C319.573 266.014 319.331 266.963 318.848 267.702C318.373 268.44 317.705 269.033 316.844 269.481C317.6 269.789 318.167 270.193 318.544 270.694C318.931 271.195 319.146 272.008 319.19 273.133L319.283 275.73C319.309 276.469 319.371 277.018 319.467 277.378C319.625 277.994 319.907 278.389 320.311 278.565V279H317.094C317.006 278.833 316.936 278.618 316.883 278.354C316.831 278.09 316.787 277.581 316.751 276.825L316.593 273.595C316.532 272.329 316.062 271.481 315.183 271.05C314.682 270.813 313.895 270.694 312.823 270.694H306.851V279H304.227V259.633ZM330.858 276.759C331.746 276.759 332.475 276.667 333.046 276.482C334.066 276.139 334.901 275.48 335.551 274.504C336.07 273.722 336.443 272.72 336.672 271.499C336.804 270.769 336.87 270.092 336.87 269.468C336.87 267.069 336.391 265.206 335.433 263.878C334.483 262.551 332.95 261.888 330.832 261.888H326.178V276.759H330.858ZM323.541 259.633H331.385C334.048 259.633 336.114 260.578 337.582 262.468C338.891 264.173 339.546 266.357 339.546 269.02C339.546 271.077 339.159 272.936 338.386 274.597C337.023 277.532 334.681 279 331.359 279H323.541V259.633ZM352.875 271.063L349.935 262.507L346.81 271.063H352.875ZM348.563 259.633H351.53L358.557 279H355.683L353.718 273.199H346.059L343.962 279H341.273L348.563 259.633ZM369.314 259.132C371.134 259.132 372.707 259.484 374.034 260.187C375.959 261.198 377.137 262.969 377.567 265.5H374.97C374.654 264.085 373.999 263.057 373.006 262.415C372.013 261.765 370.76 261.439 369.249 261.439C367.456 261.439 365.944 262.112 364.713 263.457C363.492 264.801 362.881 266.805 362.881 269.468C362.881 271.771 363.386 273.647 364.397 275.098C365.408 276.539 367.056 277.26 369.341 277.26C371.09 277.26 372.536 276.754 373.678 275.744C374.83 274.724 375.418 273.081 375.445 270.813H369.38V268.638H377.884V279H376.196L375.563 276.508C374.676 277.484 373.889 278.161 373.204 278.539C372.052 279.189 370.589 279.514 368.813 279.514C366.52 279.514 364.546 278.771 362.894 277.286C361.092 275.423 360.191 272.865 360.191 269.613C360.191 266.37 361.07 263.791 362.828 261.875C364.498 260.046 366.66 259.132 369.314 259.132ZM389.538 259.633H392.188V267.636H402.26V259.633H404.91V279H402.26V269.943H392.188V279H389.538V259.633ZM417.342 259.106C420.761 259.106 423.292 260.205 424.936 262.402C426.219 264.116 426.861 266.309 426.861 268.98C426.861 271.872 426.127 274.276 424.659 276.192C422.937 278.442 420.48 279.567 417.29 279.567C414.31 279.567 411.968 278.583 410.263 276.614C408.742 274.715 407.982 272.316 407.982 269.416C407.982 266.796 408.632 264.555 409.933 262.692C411.603 260.301 414.073 259.106 417.342 259.106ZM417.606 277.22C419.917 277.22 421.587 276.394 422.616 274.742C423.653 273.081 424.171 271.173 424.171 269.02C424.171 266.744 423.574 264.911 422.378 263.522C421.192 262.134 419.566 261.439 417.5 261.439C415.497 261.439 413.862 262.129 412.596 263.509C411.331 264.88 410.698 266.906 410.698 269.587C410.698 271.731 411.238 273.542 412.319 275.019C413.409 276.486 415.171 277.22 417.606 277.22ZM431.712 272.751C431.774 273.85 432.033 274.742 432.49 275.427C433.36 276.71 434.894 277.352 437.091 277.352C438.076 277.352 438.972 277.211 439.781 276.93C441.345 276.385 442.127 275.41 442.127 274.003C442.127 272.949 441.798 272.197 441.139 271.749C440.471 271.31 439.425 270.927 438.001 270.602L435.377 270.009C433.664 269.622 432.451 269.196 431.739 268.73C430.508 267.921 429.893 266.713 429.893 265.104C429.893 263.364 430.495 261.936 431.699 260.82C432.903 259.704 434.608 259.146 436.814 259.146C438.845 259.146 440.567 259.638 441.982 260.622C443.406 261.598 444.118 263.162 444.118 265.315H441.653C441.521 264.278 441.24 263.483 440.809 262.929C440.009 261.918 438.651 261.413 436.735 261.413C435.188 261.413 434.077 261.738 433.4 262.389C432.723 263.039 432.385 263.795 432.385 264.656C432.385 265.605 432.78 266.3 433.571 266.739C434.09 267.021 435.263 267.372 437.091 267.794L439.807 268.414C441.117 268.712 442.127 269.121 442.839 269.64C444.07 270.545 444.685 271.859 444.685 273.582C444.685 275.726 443.903 277.26 442.338 278.183C440.783 279.105 438.972 279.567 436.907 279.567C434.499 279.567 432.613 278.952 431.251 277.721C429.889 276.5 429.221 274.843 429.247 272.751H431.712ZM456.115 259.633H458.765V279H456.115V259.633ZM484.17 259.633V261.94H477.644V279H474.981V261.94H468.455V259.633H484.17ZM495.587 268.506C496.817 268.506 497.789 268.26 498.5 267.768C499.221 267.275 499.582 266.388 499.582 265.104C499.582 263.725 499.081 262.784 498.079 262.283C497.542 262.02 496.826 261.888 495.93 261.888H489.522V268.506H495.587ZM486.899 259.633H495.864C497.34 259.633 498.558 259.849 499.516 260.279C501.335 261.105 502.245 262.63 502.245 264.854C502.245 266.014 502.003 266.963 501.52 267.702C501.045 268.44 500.377 269.033 499.516 269.481C500.271 269.789 500.838 270.193 501.216 270.694C501.603 271.195 501.818 272.008 501.862 273.133L501.955 275.73C501.981 276.469 502.042 277.018 502.139 277.378C502.297 277.994 502.579 278.389 502.983 278.565V279H499.766C499.678 278.833 499.608 278.618 499.555 278.354C499.502 278.09 499.458 277.581 499.423 276.825L499.265 273.595C499.204 272.329 498.733 271.481 497.854 271.05C497.354 270.813 496.567 270.694 495.495 270.694H489.522V279H486.899V259.633ZM516.035 271.063L513.095 262.507L509.97 271.063H516.035ZM511.724 259.633H514.69L521.717 279H518.843L516.878 273.199H509.219L507.123 279H504.433L511.724 259.633ZM513.279 257.761C513.736 257.761 514.127 257.599 514.453 257.273C514.778 256.948 514.94 256.557 514.94 256.1C514.94 255.643 514.778 255.252 514.453 254.927C514.127 254.602 513.736 254.439 513.279 254.439C512.831 254.439 512.444 254.602 512.119 254.927C511.794 255.252 511.631 255.643 511.631 256.1C511.631 256.557 511.794 256.948 512.119 257.273C512.444 257.599 512.831 257.761 513.279 257.761ZM513.279 253.345C514.035 253.345 514.681 253.617 515.217 254.162C515.762 254.698 516.035 255.344 516.035 256.1C516.035 256.856 515.762 257.506 515.217 258.051C514.681 258.587 514.035 258.855 513.279 258.855C512.523 258.855 511.877 258.587 511.341 258.051C510.805 257.506 510.537 256.856 510.537 256.1C510.537 255.344 510.805 254.698 511.341 254.162C511.877 253.617 512.523 253.345 513.279 253.345ZM531.539 276.759C532.426 276.759 533.156 276.667 533.727 276.482C534.747 276.139 535.582 275.48 536.232 274.504C536.75 273.722 537.124 272.72 537.353 271.499C537.484 270.769 537.55 270.092 537.55 269.468C537.55 267.069 537.071 265.206 536.113 263.878C535.164 262.551 533.63 261.888 531.512 261.888H526.858V276.759H531.539ZM524.222 259.633H532.066C534.729 259.633 536.794 260.578 538.262 262.468C539.572 264.173 540.227 266.357 540.227 269.02C540.227 271.077 539.84 272.936 539.066 274.597C537.704 277.532 535.362 279 532.04 279H524.222V259.633ZM551.063 259.633H554.821L560.384 276.007L565.908 259.633H569.626V279H567.134V267.57C567.134 267.174 567.143 266.52 567.161 265.605C567.178 264.691 567.187 263.711 567.187 262.666L561.663 279H559.066L553.502 262.666V263.259C553.502 263.733 553.511 264.458 553.529 265.434C553.555 266.401 553.568 267.113 553.568 267.57V279H551.063V259.633ZM573.871 259.633H587.991V262.006H576.429V267.886H587.121V270.127H576.429V276.693H588.188V279H573.871V259.633ZM599.065 276.759C599.953 276.759 600.682 276.667 601.253 276.482C602.273 276.139 603.108 275.48 603.758 274.504C604.277 273.722 604.65 272.72 604.879 271.499C605.011 270.769 605.077 270.092 605.077 269.468C605.077 267.069 604.598 265.206 603.64 263.878C602.69 262.551 601.157 261.888 599.039 261.888H594.385V276.759H599.065ZM591.748 259.633H599.592C602.255 259.633 604.321 260.578 605.789 262.468C607.098 264.173 607.753 266.357 607.753 269.02C607.753 271.077 607.366 272.936 606.593 274.597C605.23 277.532 602.888 279 599.566 279H591.748V259.633ZM620.185 259.633L625.749 276.126L631.246 259.633H634.186L627.12 279H624.338L617.285 259.633H620.185ZM636.915 259.633H651.035V262.006H639.473V267.886H650.165V270.127H639.473V276.693H651.232V279H636.915V259.633ZM663.678 268.506C664.908 268.506 665.879 268.26 666.591 267.768C667.312 267.275 667.672 266.388 667.672 265.104C667.672 263.725 667.171 262.784 666.169 262.283C665.633 262.02 664.917 261.888 664.021 261.888H657.613V268.506H663.678ZM654.99 259.633H663.955C665.431 259.633 666.648 259.849 667.606 260.279C669.426 261.105 670.335 262.63 670.335 264.854C670.335 266.014 670.094 266.963 669.61 267.702C669.136 268.44 668.468 269.033 667.606 269.481C668.362 269.789 668.929 270.193 669.307 270.694C669.694 271.195 669.909 272.008 669.953 273.133L670.045 275.73C670.072 276.469 670.133 277.018 670.23 277.378C670.388 277.994 670.669 278.389 671.074 278.565V279H667.857C667.769 278.833 667.699 278.618 667.646 278.354C667.593 278.09 667.549 277.581 667.514 276.825L667.356 273.595C667.294 272.329 666.824 271.481 665.945 271.05C665.444 270.813 664.658 270.694 663.585 270.694H657.613V279H654.99V259.633ZM681.621 276.759C682.508 276.759 683.238 276.667 683.809 276.482C684.829 276.139 685.664 275.48 686.314 274.504C686.833 273.722 687.206 272.72 687.435 271.499C687.566 270.769 687.632 270.092 687.632 269.468C687.632 267.069 687.153 265.206 686.195 263.878C685.246 262.551 683.712 261.888 681.594 261.888H676.94V276.759H681.621ZM674.304 259.633H682.148C684.811 259.633 686.876 260.578 688.344 262.468C689.654 264.173 690.309 266.357 690.309 269.02C690.309 271.077 689.922 272.936 689.148 274.597C687.786 277.532 685.444 279 682.122 279H674.304V259.633ZM693.947 259.633H708.067V262.006H696.505V267.886H707.197V270.127H696.505V276.693H708.265V279H693.947V259.633ZM711.706 259.633H714.804L724.586 275.322V259.633H727.078V279H724.138L714.21 263.325V279H711.706V259.633ZM731.468 276.126H734.223V279H731.468V276.126Z" fill="#1E1E1E"/>
<path opacity="0.05" d="M854.221 323.586C854.519 322.441 851.976 320.789 848.54 319.895C845.105 319.002 842.079 319.206 841.781 320.351C841.484 321.496 844.027 323.148 847.462 324.042C850.897 324.935 853.923 324.731 854.221 323.586Z" fill="black"/>
<path d="M855.171 300.144L852.698 299.501C852.628 299.483 852.555 299.525 852.537 299.596L846.726 321.936C846.708 322.006 846.75 322.079 846.821 322.097L849.293 322.74C849.364 322.758 849.436 322.716 849.455 322.645L855.266 300.305C855.284 300.235 855.242 300.163 855.171 300.144Z" fill="#8E8E8E"/>
<path d="M882.801 261.165C883.732 255.379 876.337 249.38 866.292 247.772C856.248 246.159 847.351 249.544 846.42 255.326C845.748 259.52 849.482 263.805 855.396 266.471L847.89 276.674C840.543 277.536 834.995 280.879 834.217 285.698C833.133 292.447 841.755 299.44 853.465 301.318C865.182 303.195 875.554 299.255 876.639 292.505C877.347 288.094 873.862 283.603 868.112 280.477L869.366 269.052C876.517 268.676 882.076 265.667 882.796 261.171L882.801 261.165Z" fill="#DE9895"/>
<path opacity="0.06" d="M882.369 261.317C883.37 255.566 876.26 249.527 866.489 247.827C856.718 246.127 847.986 249.41 846.985 255.16C845.985 260.911 853.095 266.95 862.866 268.65C872.637 270.351 881.369 267.067 882.369 261.317Z" fill="black"/>
<path opacity="0.44" d="M835.227 286.787C835.227 290.146 838.416 294.986 841.045 294.986C843.674 294.986 836.813 290.411 836.813 287.052C836.813 283.693 844.203 279.646 841.574 279.646C838.945 279.646 835.227 283.428 835.227 286.787Z" fill="white"/>
<path opacity="0.05" d="M98.4773 332.699C98.196 331.618 100.598 330.057 103.842 329.213C107.086 328.37 109.944 328.562 110.225 329.644C110.506 330.725 108.105 332.286 104.86 333.129C101.616 333.973 98.7586 333.781 98.4773 332.699Z" fill="black"/>
<path d="M97.5831 310.561L99.9182 309.953C99.985 309.936 100.053 309.976 100.07 310.043L105.558 331.14C105.576 331.207 105.536 331.275 105.469 331.293L103.134 331.9C103.067 331.917 102.999 331.877 102.981 331.811L97.4937 310.713C97.4764 310.646 97.5164 310.578 97.5831 310.561Z" fill="#8E8E8E"/>
<path d="M71.4878 273.749C70.6086 268.284 77.5921 262.62 87.0783 261.101C96.5645 259.577 104.967 262.774 105.846 268.234C106.48 272.196 102.954 276.242 97.3687 278.76L104.457 288.396C111.396 289.21 116.636 292.367 117.37 296.918C118.394 303.292 110.252 309.896 99.192 311.669C88.1273 313.442 78.3314 309.721 77.3074 303.347C76.638 299.181 79.9299 294.94 85.3599 291.987L84.176 281.197C77.4223 280.843 72.1721 278 71.4928 273.754L71.4878 273.749Z" fill="#BCD9EC"/>
<path opacity="0.06" d="M71.8962 273.893C70.9513 268.462 77.6659 262.758 86.8936 261.153C96.1213 259.547 104.368 262.648 105.313 268.079C106.257 273.509 99.5429 279.213 90.3152 280.819C81.0875 282.424 72.841 279.323 71.8962 273.893Z" fill="black"/>
<path opacity="0.44" d="M116.416 297.947C116.416 301.119 113.404 305.69 110.921 305.69C108.438 305.69 114.917 301.369 114.917 298.197C114.917 295.025 107.939 291.203 110.422 291.203C112.904 291.203 116.416 294.775 116.416 297.947Z" fill="white"/>
</svg>
